<svg width="100" height="100" xmlns="http://www.w3.org/2000/svg">

 <g>
  <title>background</title>
  <rect fill="none" id="canvas_background" height="402" width="582" y="-1" x="-1"/>
 </g>
 <g>
  <title>Layer 1</title>
  <path stroke="#000" id="svg_3" d="m73.53717,10.874994c-7.131416,5.529061 -16.988365,5.58273 -24.173947,0.164843c-6.910973,5.21269 -16.296924,5.361907 -23.349559,0.447458l-12.681587,13.06349c7.800953,8.181235 7.755612,21.325753 -0.133306,29.450897c-1.047003,2.774083 -1.595745,2.640312 -1.709967,5.433928c-0.268623,6.725863 1.304455,13.000234 6.23184,17.72576c4.401605,4.221217 10.374767,6.011521 16.11246,5.372742c9.581242,0.50992 14.17456,4.78433 16.101934,7.340888c2.602558,-2.73166 6.649773,-7.123114 18.950468,-7.670558c7.342997,-1.091748 9.996597,-2.855464 13.442826,-6.116261c4.638529,-4.448432 6.260456,-10.08147 6.123756,-16.340318c-0.056766,-2.598368 -0.365439,-3.50173 -1.889551,-6.819394c-7.925505,-8.162817 -7.93127,-21.392579 -0.021038,-29.565268l-13.004329,-12.488207z" stroke-width="1.5" fill="#fff"/>
 </g>
</svg>