<?xml version="1.0" encoding="utf-8"?>
<!-- Generator: Adobe Illustrator 16.0.0, SVG Export Plug-In . SVG Version: 6.00 Build 0)  -->
<!DOCTYPE svg PUBLIC "-//W3C//DTD SVG 1.0//EN" "http://www.w3.org/TR/2001/REC-SVG-20010904/DTD/svg10.dtd">
<svg version="1.0" id="Layer_1" xmlns="http://www.w3.org/2000/svg" xmlns:xlink="http://www.w3.org/1999/xlink" x="0px" y="0px"
	 width="48px" height="48px" viewBox="0 0 48 48" enable-background="new 0 0 48 48" xml:space="preserve">
<linearGradient id="SVGID_1_" gradientUnits="userSpaceOnUse" x1="0.2109" y1="24" x2="47.7891" y2="24">
	<stop  offset="0" style="stop-color:#2483C5"/>
	<stop  offset="1" style="stop-color:#00ADEE"/>
</linearGradient>
<path fill="url(#SVGID_1_)" d="M47.789,24c0,13.139-10.65,23.789-23.792,23.789C10.861,47.789,0.211,37.139,0.211,24
	c0-13.137,10.65-23.789,23.786-23.789C37.139,0.211,47.789,10.863,47.789,24z"/>
<g>
	<g>
		<path fill="#65CBEB" d="M24.172,37.256c0.827-0.338,1.64-0.711,2.398-1.18c5.873-3.623,8.807-8.936,9.067-15.777
			c-0.014-0.654-0.063-1.291-0.127-1.93c-0.169-1.68-0.583-3.305-1.215-4.871c-0.148-0.369-0.292-0.428-0.673-0.303
			c-0.91,0.299-1.847,0.484-2.802,0.535c-2.354,0.125-4.56-0.371-6.597-1.574c-0.204-0.117-0.374-0.125-0.584-0.006
			c-3.008,1.709-6.166,2.057-9.473,1.023c-0.314-0.1-0.479-0.02-0.602,0.283c-0.771,1.916-1.222,3.906-1.312,5.971
			c-0.121,2.744,0.319,5.395,1.405,7.924c1.998,4.648,5.336,7.949,10.008,9.896C23.839,37.318,23.995,37.326,24.172,37.256z"/>
		<path fill="#65CBEB" d="M42.529,20.559c0,0.002-0.04,1.357-0.227,2.75c-0.164,1.393-0.5,2.799-0.5,2.799l2.687,0.625
			c0,0,0.37-1.553,0.551-3.07c0.204-1.525,0.249-2.998,0.249-2.998L42.529,20.559z"/>
		<path fill="#65CBEB" d="M40.032,31.732c-0.536,1.088-1.188,2.117-1.188,2.117l1.866,1.178c0,0,0.714-1.123,1.298-2.313
			c0.598-1.18,1.054-2.402,1.054-2.402L41,29.525C41,29.525,40.582,30.648,40.032,31.732z"/>
		<path fill="#65CBEB" d="M34.843,39.008c-0.693,0.65-1.424,1.229-1.424,1.229l1.106,1.375c0,0,0.777-0.613,1.52-1.307
			c0.747-0.688,1.448-1.443,1.448-1.443l-1.291-1.203C36.202,37.658,35.543,38.365,34.843,39.008z"/>
		<path fill="#65CBEB" d="M27.375,44.131c-0.117,0.049-0.257,0.107-0.405,0.17l-0.115,0.047l-0.056,0.023l-0.014,0.006l-0.005,0.002
			l0,0c-11.535-0.049-3.199-0.014-5.772-0.023h-0.004l-0.006-0.006l-0.033-0.014l-0.253-0.109c-0.683-0.287-1.354-0.621-1.354-0.621
			l-0.623,1.268c0,0,0.704,0.348,1.419,0.654c0.09,0.039,0.179,0.074,0.267,0.113l0.034,0.014l0.007,0.002l0.002,0.002
			c0.371,0.002,0.551,0.002,0.604,0.002c-0.333,0-4.995-0.02,6.245,0.029h0.001l0.005-0.002l0.014-0.01l0.06-0.021l0.118-0.049
			c0.152-0.063,0.299-0.125,0.423-0.176c0.249-0.109,0.416-0.182,0.416-0.182l-0.571-1.293
			C27.777,43.957,27.617,44.027,27.375,44.131z M21.078,45.66C21.09,45.66,21.088,45.66,21.078,45.66L21.078,45.66z"/>
		<path fill="#65CBEB" d="M11.793,38.238c-0.438-0.447-0.846-0.92-0.846-0.92l-0.852,0.746c0,0,0.428,0.49,0.882,0.959
			c0.45,0.473,0.925,0.916,0.925,0.916l0.775-0.822C12.678,39.117,12.224,38.691,11.793,38.238z"/>
		<path fill="#65CBEB" d="M5.501,27.732c-0.178-0.594-0.331-1.217-0.331-1.219l-0.885,0.189c0,0,0.162,0.656,0.349,1.279
			c0.048,0.154,0.095,0.307,0.14,0.451c0.042,0.131,0.083,0.254,0.117,0.357c0.064,0.188,0.107,0.313,0.107,0.313l0.852-0.299
			c0,0-0.041-0.119-0.104-0.303C5.689,28.348,5.586,28.012,5.501,27.732z"/>
		<path fill="#65CBEB" d="M6.102,9.045C6.027,9.203,5.93,9.414,5.83,9.629c-0.178,0.441-0.348,0.887-0.348,0.887l0.615,0.455
			c0,0,0.16-0.434,0.33-0.861c0.093-0.207,0.188-0.412,0.258-0.564c0.076-0.15,0.129-0.248,0.129-0.248L6.236,8.791
			C6.236,8.791,6.178,8.889,6.102,9.045z"/>
		<path fill="#65CBEB" d="M20.119,5.145c0.396-0.145,0.797-0.25,0.795-0.248l-0.045-0.596c0,0.002-0.413,0.109-0.822,0.258
			c-0.402,0.152-0.814,0.311-0.836,0.295l0.102,0.572C19.332,5.439,19.729,5.289,20.119,5.145z"/>
		<polygon fill="#65CBEB" points="31.528,5.35 31.439,5.326 31.316,5.773 31.438,5.803 		"/>
		<path fill="#65CBEB" d="M41.265,25.98c0,0,0.328-1.375,0.49-2.74c0.183-1.367,0.224-2.699,0.224-2.699l-2.759-0.105
			c0,0-0.036,1.221-0.202,2.455c-0.146,1.232-0.44,2.467-0.44,2.467L41.265,25.98z"/>
		<path fill="#65CBEB" d="M39.97,29.131l-2.062-0.785c-0.001,0-0.364,0.975-0.84,1.91c-0.462,0.939-1.026,1.83-1.026,1.83
			l1.868,1.176c0,0,0.621-0.982,1.135-2.021C39.568,30.207,39.97,29.131,39.97,29.131z"/>
		<path fill="#65CBEB" d="M35.072,36.604L33.778,35.4c0,0-0.571,0.613-1.184,1.176c-0.607,0.57-1.252,1.082-1.252,1.082l1.106,1.373
			c0,0,0.691-0.545,1.346-1.158C34.453,37.27,35.072,36.604,35.072,36.604z"/>
		<path fill="#65CBEB" d="M26.066,42.621L26.066,42.621l0.004-0.002l0.015-0.004l0.052-0.023l0.109-0.047
			c0.142-0.057,0.272-0.111,0.386-0.16c0.228-0.098,0.381-0.166,0.381-0.166l-0.572-1.291c0,0-0.145,0.063-0.362,0.158
			c-0.108,0.045-0.235,0.098-0.371,0.154l-0.104,0.043l-0.053,0.02l-0.015,0.006l-0.003,0.002l-0.001,0.002
			c-6.497-0.029-1.8-0.01-3.251-0.016l-0.002-0.002l-0.007-0.002l-0.028-0.012l-0.225-0.096c-0.605-0.256-1.199-0.551-1.199-0.551
			l-0.624,1.268c0,0,0.626,0.311,1.265,0.582l0.237,0.102l0.03,0.012l0.007,0.004h0.003C23.668,42.611,17.416,42.584,26.066,42.621z
			"/>
		<path fill="#65CBEB" d="M14.178,35.941c-0.381-0.391-0.737-0.803-0.737-0.803l-0.853,0.746c0,0,0.377,0.434,0.775,0.842
			c0.395,0.414,0.813,0.803,0.813,0.805l0.775-0.822C14.951,36.709,14.553,36.336,14.178,35.941z"/>
		<path fill="#65CBEB" d="M8.41,25.822l-0.885,0.189c0,0,0.135,0.535,0.289,1.049c0.16,0.537,0.309,0.949,0.309,0.949l0.852-0.299
			c0,0-0.143-0.396-0.293-0.9C8.537,26.324,8.41,25.822,8.41,25.822z"/>
		<path fill="#65CBEB" d="M8.771,11.324c-0.057,0.137-0.133,0.32-0.207,0.504c-0.135,0.379-0.27,0.756-0.27,0.756l0.615,0.453
			c0,0,0.126-0.365,0.252-0.729c0.07-0.178,0.141-0.354,0.194-0.484c0.058-0.129,0.096-0.213,0.096-0.213l-0.577-0.506
			C8.875,11.105,8.833,11.191,8.771,11.324z"/>
		<path fill="#65CBEB" d="M19.783,8.119l0.1,0.568c0.012,0.01,0.336-0.096,0.654-0.201c0.322-0.102,0.646-0.188,0.646-0.188
			l-0.048-0.596c0.001,0.002-0.336,0.09-0.671,0.199C20.133,8.016,19.796,8.129,19.783,8.119z"/>
		<path fill="#65CBEB" d="M30.792,9.051l0.091-0.453c0,0-0.083-0.018-0.166-0.033c-0.08-0.02-0.163-0.045-0.163-0.045l-0.122,0.445
			c0,0,0.087,0.025,0.178,0.047C30.701,9.031,30.792,9.051,30.792,9.051z"/>
		<path fill="#65CBEB" d="M38.04,25.232c0,0,0.285-1.205,0.431-2.412c0.16-1.207,0.199-2.406,0.199-2.406l-2.758-0.105
			c0,0-0.032,1.086-0.178,2.162c-0.13,1.078-0.381,2.137-0.381,2.137L38.04,25.232z"/>
		<path fill="#65CBEB" d="M34.105,28.781c-0.392,0.793-0.865,1.539-0.865,1.539l1.867,1.174c0,0,0.534-0.838,0.973-1.729
			c0.449-0.889,0.795-1.814,0.795-1.814l-2.063-0.785C34.813,27.166,34.503,27.994,34.105,28.781z"/>
		<path fill="#65CBEB" d="M32.649,34.346l-1.294-1.203c0,0-0.483,0.523-1.01,1.004c-0.521,0.488-1.078,0.93-1.078,0.93l1.107,1.377
			c0,0,0.605-0.479,1.171-1.012C32.117,34.92,32.647,34.346,32.649,34.346z"/>
		<path fill="#65CBEB" d="M23.553,38.24L23.553,38.24l-0.006-0.004l-0.023-0.01l-0.197-0.086c-0.527-0.223-1.041-0.475-1.041-0.475
			l-0.625,1.266c0,0,0.547,0.271,1.109,0.51l0.207,0.09l0.025,0.01l0.007,0.004h0.002c0.046,0,0.078,0,0.104,0
			c-0.237,0-0.962-0.004,1.704,0.008h0.001h0.003l0.014-0.006l0.048-0.021l0.099-0.039c0.128-0.055,0.248-0.104,0.352-0.146
			c0.202-0.09,0.342-0.148,0.342-0.148l-0.571-1.295c0,0-0.131,0.057-0.326,0.143c-0.098,0.041-0.213,0.088-0.332,0.139
			l-0.097,0.041l-0.048,0.02l-0.01,0.004h-0.006v0.002C22.825,38.238,23.881,38.242,23.553,38.24z"/>
		<path fill="#65CBEB" d="M16.563,33.646c-0.325-0.334-0.629-0.688-0.628-0.688l-0.854,0.746c0,0,0.323,0.371,0.667,0.725
			c0.34,0.355,0.698,0.693,0.698,0.693l0.776-0.824C17.224,34.299,16.885,33.984,16.563,33.646z"/>
		<path fill="#65CBEB" d="M11.25,26.916l0.852-0.299c0,0-0.125-0.35-0.239-0.729c-0.113-0.375-0.214-0.758-0.212-0.758l-0.883,0.188
			c0,0,0.105,0.416,0.227,0.82C11.119,26.553,11.25,26.916,11.25,26.916z"/>
		<path fill="#65CBEB" d="M11.896,14.508c0.094-0.295,0.193-0.586,0.193-0.586l-0.575-0.502c0,0-0.113,0.299-0.216,0.607
			c-0.097,0.313-0.191,0.623-0.191,0.623l0.614,0.453C11.722,15.104,11.81,14.805,11.896,14.508z"/>
		<path fill="#65CBEB" d="M20.523,11.342c-0.096,0.029-0.17,0.039-0.17,0.039l0.102,0.572c0,0,0.253-0.055,0.498-0.121
			c0.25-0.066,0.498-0.131,0.498-0.131l-0.047-0.594c0,0-0.262,0.07-0.523,0.141C20.752,11.281,20.621,11.318,20.523,11.342z"/>
		<path fill="#65CBEB" d="M30.145,12.299l0.091-0.451c0,0-0.143-0.031-0.287-0.063c-0.143-0.035-0.278-0.074-0.278-0.074
			l-0.126,0.443c0,0,0.149,0.047,0.298,0.082C29.992,12.268,30.145,12.299,30.145,12.299z"/>
	</g>
	<g>
		<path fill="#65CBEB" d="M24.172,37.256c0.827-0.338,1.64-0.711,2.398-1.18c5.873-3.623,8.807-8.936,9.067-15.777
			c-0.014-0.654-0.063-1.291-0.127-1.93c-0.169-1.68-0.583-3.305-1.215-4.871c-0.148-0.369-0.292-0.428-0.673-0.303
			c-0.91,0.299-1.847,0.484-2.802,0.535c-2.354,0.125-4.56-0.371-6.597-1.574c-0.204-0.117-0.374-0.125-0.584-0.006
			c-3.008,1.709-6.166,2.057-9.473,1.023c-0.314-0.1-0.479-0.02-0.602,0.283c-0.771,1.916-1.222,3.906-1.312,5.971
			c-0.121,2.744,0.319,5.395,1.405,7.924c1.998,4.648,5.336,7.949,10.008,9.896C23.839,37.318,23.995,37.326,24.172,37.256z"/>
		<path fill="#65CBEB" d="M42.529,20.559c0,0.002-0.04,1.357-0.227,2.75c-0.164,1.393-0.5,2.799-0.5,2.799l2.687,0.625
			c0,0,0.37-1.553,0.551-3.07c0.204-1.525,0.249-2.998,0.249-2.998L42.529,20.559z"/>
		<path fill="#65CBEB" d="M40.032,31.732c-0.536,1.088-1.188,2.117-1.188,2.117l1.866,1.178c0,0,0.714-1.123,1.298-2.313
			c0.598-1.18,1.054-2.402,1.054-2.402L41,29.525C41,29.525,40.582,30.648,40.032,31.732z"/>
		<path fill="#65CBEB" d="M34.843,39.008c-0.693,0.65-1.424,1.229-1.424,1.229l1.106,1.375c0,0,0.777-0.613,1.52-1.307
			c0.747-0.688,1.448-1.443,1.448-1.443l-1.291-1.203C36.202,37.658,35.543,38.365,34.843,39.008z"/>
		<path fill="#65CBEB" d="M27.375,44.131c-0.117,0.049-0.257,0.107-0.405,0.17l-0.115,0.047l-0.056,0.023l-0.014,0.006l-0.005,0.002
			l0,0c-11.535-0.049-3.199-0.014-5.772-0.023h-0.004l-0.006-0.006l-0.033-0.014l-0.253-0.109c-0.683-0.287-1.354-0.621-1.354-0.621
			l-0.623,1.268c0,0,0.704,0.348,1.419,0.654c0.09,0.039,0.179,0.074,0.267,0.113l0.034,0.014l0.007,0.002l0.002,0.002
			c0.371,0.002,0.551,0.002,0.604,0.002c-0.333,0-4.995-0.02,6.245,0.029h0.001l0.005-0.002l0.014-0.01l0.06-0.021l0.118-0.049
			c0.152-0.063,0.299-0.125,0.423-0.176c0.249-0.109,0.416-0.182,0.416-0.182l-0.571-1.293
			C27.777,43.957,27.617,44.027,27.375,44.131z M21.078,45.66C21.09,45.66,21.088,45.66,21.078,45.66L21.078,45.66z"/>
		<path fill="#65CBEB" d="M11.793,38.238c-0.438-0.447-0.846-0.92-0.846-0.92l-0.852,0.746c0,0,0.428,0.49,0.882,0.959
			c0.45,0.473,0.925,0.916,0.925,0.916l0.775-0.822C12.678,39.117,12.224,38.691,11.793,38.238z"/>
		<path fill="#65CBEB" d="M5.501,27.732c-0.178-0.594-0.331-1.217-0.331-1.219l-0.885,0.189c0,0,0.162,0.656,0.349,1.279
			c0.048,0.154,0.095,0.307,0.14,0.451c0.042,0.131,0.083,0.254,0.117,0.357c0.064,0.188,0.107,0.313,0.107,0.313l0.852-0.299
			c0,0-0.041-0.119-0.104-0.303C5.689,28.348,5.586,28.012,5.501,27.732z"/>
		<path fill="#65CBEB" d="M6.102,9.045C6.027,9.203,5.93,9.414,5.83,9.629c-0.178,0.441-0.348,0.887-0.348,0.887l0.615,0.455
			c0,0,0.16-0.434,0.33-0.861c0.093-0.207,0.188-0.412,0.258-0.564c0.076-0.15,0.129-0.248,0.129-0.248L6.236,8.791
			C6.236,8.791,6.178,8.889,6.102,9.045z"/>
		<path fill="#65CBEB" d="M20.119,5.145c0.396-0.145,0.797-0.25,0.795-0.248l-0.045-0.596c0,0.002-0.413,0.109-0.822,0.258
			c-0.402,0.152-0.814,0.311-0.836,0.295l0.102,0.572C19.332,5.439,19.729,5.289,20.119,5.145z"/>
		<polygon fill="#65CBEB" points="31.528,5.35 31.439,5.326 31.316,5.773 31.438,5.803 		"/>
		<path fill="#65CBEB" d="M41.265,25.98c0,0,0.328-1.375,0.49-2.74c0.183-1.367,0.224-2.699,0.224-2.699l-2.759-0.105
			c0,0-0.036,1.221-0.202,2.455c-0.146,1.232-0.44,2.467-0.44,2.467L41.265,25.98z"/>
		<path fill="#65CBEB" d="M39.97,29.131l-2.062-0.785c-0.001,0-0.364,0.975-0.84,1.91c-0.462,0.939-1.026,1.83-1.026,1.83
			l1.868,1.176c0,0,0.621-0.982,1.135-2.021C39.568,30.207,39.97,29.131,39.97,29.131z"/>
		<path fill="#65CBEB" d="M35.072,36.604L33.778,35.4c0,0-0.571,0.613-1.184,1.176c-0.607,0.57-1.252,1.082-1.252,1.082l1.106,1.373
			c0,0,0.691-0.545,1.346-1.158C34.453,37.27,35.072,36.604,35.072,36.604z"/>
		<path fill="#65CBEB" d="M26.066,42.621L26.066,42.621l0.004-0.002l0.015-0.004l0.052-0.023l0.109-0.047
			c0.142-0.057,0.272-0.111,0.386-0.16c0.228-0.098,0.381-0.166,0.381-0.166l-0.572-1.291c0,0-0.145,0.063-0.362,0.158
			c-0.108,0.045-0.235,0.098-0.371,0.154l-0.104,0.043l-0.053,0.02l-0.015,0.006l-0.003,0.002l-0.001,0.002
			c-6.497-0.029-1.8-0.01-3.251-0.016l-0.002-0.002l-0.007-0.002l-0.028-0.012l-0.225-0.096c-0.605-0.256-1.199-0.551-1.199-0.551
			l-0.624,1.268c0,0,0.626,0.311,1.265,0.582l0.237,0.102l0.03,0.012l0.007,0.004h0.003C23.668,42.611,17.416,42.584,26.066,42.621z
			"/>
		<path fill="#65CBEB" d="M14.178,35.941c-0.381-0.391-0.737-0.803-0.737-0.803l-0.853,0.746c0,0,0.377,0.434,0.775,0.842
			c0.395,0.414,0.813,0.803,0.813,0.805l0.775-0.822C14.951,36.709,14.553,36.336,14.178,35.941z"/>
		<path fill="#65CBEB" d="M8.41,25.822l-0.885,0.189c0,0,0.135,0.535,0.289,1.049c0.16,0.537,0.309,0.949,0.309,0.949l0.852-0.299
			c0,0-0.143-0.396-0.293-0.9C8.537,26.324,8.41,25.822,8.41,25.822z"/>
		<path fill="#65CBEB" d="M8.771,11.324c-0.057,0.137-0.133,0.32-0.207,0.504c-0.135,0.379-0.27,0.756-0.27,0.756l0.615,0.453
			c0,0,0.126-0.365,0.252-0.729c0.07-0.178,0.141-0.354,0.194-0.484c0.058-0.129,0.096-0.213,0.096-0.213l-0.577-0.506
			C8.875,11.105,8.833,11.191,8.771,11.324z"/>
		<path fill="#65CBEB" d="M19.783,8.119l0.1,0.568c0.012,0.01,0.336-0.096,0.654-0.201c0.322-0.102,0.646-0.188,0.646-0.188
			l-0.048-0.596c0.001,0.002-0.336,0.09-0.671,0.199C20.133,8.016,19.796,8.129,19.783,8.119z"/>
		<path fill="#65CBEB" d="M30.792,9.051l0.091-0.453c0,0-0.083-0.018-0.166-0.033c-0.08-0.02-0.163-0.045-0.163-0.045l-0.122,0.445
			c0,0,0.087,0.025,0.178,0.047C30.701,9.031,30.792,9.051,30.792,9.051z"/>
		<path fill="#65CBEB" d="M38.04,25.232c0,0,0.285-1.205,0.431-2.412c0.16-1.207,0.199-2.406,0.199-2.406l-2.758-0.105
			c0,0-0.032,1.086-0.178,2.162c-0.13,1.078-0.381,2.137-0.381,2.137L38.04,25.232z"/>
		<path fill="#65CBEB" d="M34.105,28.781c-0.392,0.793-0.865,1.539-0.865,1.539l1.867,1.174c0,0,0.534-0.838,0.973-1.729
			c0.449-0.889,0.795-1.814,0.795-1.814l-2.063-0.785C34.813,27.166,34.503,27.994,34.105,28.781z"/>
		<path fill="#65CBEB" d="M32.649,34.346l-1.294-1.203c0,0-0.483,0.523-1.01,1.004c-0.521,0.488-1.078,0.93-1.078,0.93l1.107,1.377
			c0,0,0.605-0.479,1.171-1.012C32.117,34.92,32.647,34.346,32.649,34.346z"/>
		<path fill="#65CBEB" d="M23.553,38.24L23.553,38.24l-0.006-0.004l-0.023-0.01l-0.197-0.086c-0.527-0.223-1.041-0.475-1.041-0.475
			l-0.625,1.266c0,0,0.547,0.271,1.109,0.51l0.207,0.09l0.025,0.01l0.007,0.004h0.002c0.046,0,0.078,0,0.104,0
			c-0.237,0-0.962-0.004,1.704,0.008h0.001h0.003l0.014-0.006l0.048-0.021l0.099-0.039c0.128-0.055,0.248-0.104,0.352-0.146
			c0.202-0.09,0.342-0.148,0.342-0.148l-0.571-1.295c0,0-0.131,0.057-0.326,0.143c-0.098,0.041-0.213,0.088-0.332,0.139
			l-0.097,0.041l-0.048,0.02l-0.01,0.004h-0.006v0.002C22.825,38.238,23.881,38.242,23.553,38.24z"/>
		<path fill="#65CBEB" d="M16.563,33.646c-0.325-0.334-0.629-0.688-0.628-0.688l-0.854,0.746c0,0,0.323,0.371,0.667,0.725
			c0.34,0.355,0.698,0.693,0.698,0.693l0.776-0.824C17.224,34.299,16.885,33.984,16.563,33.646z"/>
		<path fill="#65CBEB" d="M11.25,26.916l0.852-0.299c0,0-0.125-0.35-0.239-0.729c-0.113-0.375-0.214-0.758-0.212-0.758l-0.883,0.188
			c0,0,0.105,0.416,0.227,0.82C11.119,26.553,11.25,26.916,11.25,26.916z"/>
		<path fill="#65CBEB" d="M11.896,14.508c0.094-0.295,0.193-0.586,0.193-0.586l-0.575-0.502c0,0-0.113,0.299-0.216,0.607
			c-0.097,0.313-0.191,0.623-0.191,0.623l0.614,0.453C11.722,15.104,11.81,14.805,11.896,14.508z"/>
		<path fill="#65CBEB" d="M20.523,11.342c-0.096,0.029-0.17,0.039-0.17,0.039l0.102,0.572c0,0,0.253-0.055,0.498-0.121
			c0.25-0.066,0.498-0.131,0.498-0.131l-0.047-0.594c0,0-0.262,0.07-0.523,0.141C20.752,11.281,20.621,11.318,20.523,11.342z"/>
		<path fill="#65CBEB" d="M30.145,12.299l0.091-0.451c0,0-0.143-0.031-0.287-0.063c-0.143-0.035-0.278-0.074-0.278-0.074
			l-0.126,0.443c0,0,0.149,0.047,0.298,0.082C29.992,12.268,30.145,12.299,30.145,12.299z"/>
	</g>
	<g>
		<path fill="#FFFFFF" d="M24.172,37.256c0.827-0.338,1.64-0.711,2.398-1.18c5.873-3.623,8.807-8.936,9.067-15.777
			c-0.014-0.654-0.063-1.291-0.127-1.93c-0.169-1.68-0.583-3.305-1.215-4.871c-0.148-0.369-0.292-0.428-0.673-0.303
			c-0.91,0.299-1.847,0.484-2.802,0.535c-2.354,0.125-4.56-0.371-6.597-1.574c-0.204-0.117-0.374-0.125-0.584-0.006
			c-3.008,1.709-6.166,2.057-9.473,1.023c-0.314-0.1-0.479-0.02-0.602,0.283c-0.771,1.916-1.222,3.906-1.312,5.971
			c-0.121,2.744,0.319,5.395,1.405,7.924c1.998,4.648,5.336,7.949,10.008,9.896C23.839,37.318,23.995,37.326,24.172,37.256z"/>
		<path fill="#65CBEB" d="M42.529,20.559c0,0.002-0.04,1.357-0.227,2.75c-0.164,1.393-0.5,2.799-0.5,2.799l2.687,0.625
			c0,0,0.37-1.553,0.551-3.07c0.204-1.525,0.249-2.998,0.249-2.998L42.529,20.559z"/>
		<path fill="#65CBEB" d="M40.032,31.732c-0.536,1.088-1.188,2.117-1.188,2.117l1.866,1.178c0,0,0.714-1.123,1.298-2.313
			c0.598-1.18,1.054-2.402,1.054-2.402L41,29.525C41,29.525,40.582,30.648,40.032,31.732z"/>
		<path fill="#65CBEB" d="M34.843,39.008c-0.693,0.65-1.424,1.229-1.424,1.229l1.106,1.375c0,0,0.777-0.613,1.52-1.307
			c0.747-0.688,1.448-1.443,1.448-1.443l-1.291-1.203C36.202,37.658,35.543,38.365,34.843,39.008z"/>
		<path fill="#65CBEB" d="M27.375,44.131c-0.117,0.049-0.257,0.107-0.405,0.17l-0.115,0.047l-0.056,0.023l-0.014,0.006l-0.005,0.002
			l0,0c-11.535-0.049-3.199-0.014-5.772-0.023h-0.004l-0.006-0.006l-0.033-0.014l-0.253-0.109c-0.683-0.287-1.354-0.621-1.354-0.621
			l-0.623,1.268c0,0,0.704,0.348,1.419,0.654c0.09,0.039,0.179,0.074,0.267,0.113l0.034,0.014l0.007,0.002l0.002,0.002
			c0.371,0.002,0.551,0.002,0.604,0.002c-0.333,0-4.995-0.02,6.245,0.029h0.001l0.005-0.002l0.014-0.01l0.06-0.021l0.118-0.049
			c0.152-0.063,0.299-0.125,0.423-0.176c0.249-0.109,0.416-0.182,0.416-0.182l-0.571-1.293
			C27.777,43.957,27.617,44.027,27.375,44.131z M21.078,45.66C21.09,45.66,21.088,45.66,21.078,45.66L21.078,45.66z"/>
		<path fill="#65CBEB" d="M11.793,38.238c-0.438-0.447-0.846-0.92-0.846-0.92l-0.852,0.746c0,0,0.428,0.49,0.882,0.959
			c0.45,0.473,0.925,0.916,0.925,0.916l0.775-0.822C12.678,39.117,12.224,38.691,11.793,38.238z"/>
		<path fill="#65CBEB" d="M5.501,27.732c-0.178-0.594-0.331-1.217-0.331-1.219l-0.885,0.189c0,0,0.162,0.656,0.349,1.279
			c0.048,0.154,0.095,0.307,0.14,0.451c0.042,0.131,0.083,0.254,0.117,0.357c0.064,0.188,0.107,0.313,0.107,0.313l0.852-0.299
			c0,0-0.041-0.119-0.104-0.303C5.689,28.348,5.586,28.012,5.501,27.732z"/>
		<path fill="#65CBEB" d="M6.102,9.045C6.027,9.203,5.93,9.414,5.83,9.629c-0.178,0.441-0.348,0.887-0.348,0.887l0.615,0.455
			c0,0,0.16-0.434,0.33-0.861c0.093-0.207,0.188-0.412,0.258-0.564c0.076-0.15,0.129-0.248,0.129-0.248L6.236,8.791
			C6.236,8.791,6.178,8.889,6.102,9.045z"/>
		<path fill="#65CBEB" d="M20.119,5.145c0.396-0.145,0.797-0.25,0.795-0.248l-0.045-0.596c0,0.002-0.413,0.109-0.822,0.258
			c-0.402,0.152-0.814,0.311-0.836,0.295l0.102,0.572C19.332,5.439,19.729,5.289,20.119,5.145z"/>
		<polygon fill="#65CBEB" points="31.528,5.35 31.439,5.326 31.316,5.773 31.438,5.803 		"/>
		<path fill="#65CBEB" d="M41.265,25.98c0,0,0.328-1.375,0.49-2.74c0.183-1.367,0.224-2.699,0.224-2.699l-2.759-0.105
			c0,0-0.036,1.221-0.202,2.455c-0.146,1.232-0.44,2.467-0.44,2.467L41.265,25.98z"/>
		<path fill="#65CBEB" d="M39.97,29.131l-2.062-0.785c-0.001,0-0.364,0.975-0.84,1.91c-0.462,0.939-1.026,1.83-1.026,1.83
			l1.868,1.176c0,0,0.621-0.982,1.135-2.021C39.568,30.207,39.97,29.131,39.97,29.131z"/>
		<path fill="#65CBEB" d="M35.072,36.604L33.778,35.4c0,0-0.571,0.613-1.184,1.176c-0.607,0.57-1.252,1.082-1.252,1.082l1.106,1.373
			c0,0,0.691-0.545,1.346-1.158C34.453,37.27,35.072,36.604,35.072,36.604z"/>
		<path fill="#65CBEB" d="M26.066,42.621L26.066,42.621l0.004-0.002l0.015-0.004l0.052-0.023l0.109-0.047
			c0.142-0.057,0.272-0.111,0.386-0.16c0.228-0.098,0.381-0.166,0.381-0.166l-0.572-1.291c0,0-0.145,0.063-0.362,0.158
			c-0.108,0.045-0.235,0.098-0.371,0.154l-0.104,0.043l-0.053,0.02l-0.015,0.006l-0.003,0.002l-0.001,0.002
			c-6.497-0.029-1.8-0.01-3.251-0.016l-0.002-0.002l-0.007-0.002l-0.028-0.012l-0.225-0.096c-0.605-0.256-1.199-0.551-1.199-0.551
			l-0.624,1.268c0,0,0.626,0.311,1.265,0.582l0.237,0.102l0.03,0.012l0.007,0.004h0.003C23.668,42.611,17.416,42.584,26.066,42.621z
			"/>
		<path fill="#65CBEB" d="M14.178,35.941c-0.381-0.391-0.737-0.803-0.737-0.803l-0.853,0.746c0,0,0.377,0.434,0.775,0.842
			c0.395,0.414,0.813,0.803,0.813,0.805l0.775-0.822C14.951,36.709,14.553,36.336,14.178,35.941z"/>
		<path fill="#65CBEB" d="M8.41,25.822l-0.885,0.189c0,0,0.135,0.535,0.289,1.049c0.16,0.537,0.309,0.949,0.309,0.949l0.852-0.299
			c0,0-0.143-0.396-0.293-0.9C8.537,26.324,8.41,25.822,8.41,25.822z"/>
		<path fill="#65CBEB" d="M8.771,11.324c-0.057,0.137-0.133,0.32-0.207,0.504c-0.135,0.379-0.27,0.756-0.27,0.756l0.615,0.453
			c0,0,0.126-0.365,0.252-0.729c0.07-0.178,0.141-0.354,0.194-0.484c0.058-0.129,0.096-0.213,0.096-0.213l-0.577-0.506
			C8.875,11.105,8.833,11.191,8.771,11.324z"/>
		<path fill="#65CBEB" d="M19.783,8.119l0.1,0.568c0.012,0.01,0.336-0.096,0.654-0.201c0.322-0.102,0.646-0.188,0.646-0.188
			l-0.048-0.596c0.001,0.002-0.336,0.09-0.671,0.199C20.133,8.016,19.796,8.129,19.783,8.119z"/>
		<path fill="#65CBEB" d="M30.792,9.051l0.091-0.453c0,0-0.083-0.018-0.166-0.033c-0.08-0.02-0.163-0.045-0.163-0.045l-0.122,0.445
			c0,0,0.087,0.025,0.178,0.047C30.701,9.031,30.792,9.051,30.792,9.051z"/>
		<path fill="#65CBEB" d="M38.04,25.232c0,0,0.285-1.205,0.431-2.412c0.16-1.207,0.199-2.406,0.199-2.406l-2.758-0.105
			c0,0-0.032,1.086-0.178,2.162c-0.13,1.078-0.381,2.137-0.381,2.137L38.04,25.232z"/>
		<path fill="#65CBEB" d="M34.105,28.781c-0.392,0.793-0.865,1.539-0.865,1.539l1.867,1.174c0,0,0.534-0.838,0.973-1.729
			c0.449-0.889,0.795-1.814,0.795-1.814l-2.063-0.785C34.813,27.166,34.503,27.994,34.105,28.781z"/>
		<path fill="#65CBEB" d="M32.649,34.346l-1.294-1.203c0,0-0.483,0.523-1.01,1.004c-0.521,0.488-1.078,0.93-1.078,0.93l1.107,1.377
			c0,0,0.605-0.479,1.171-1.012C32.117,34.92,32.647,34.346,32.649,34.346z"/>
		<path fill="#65CBEB" d="M23.553,38.24L23.553,38.24l-0.006-0.004l-0.023-0.01l-0.197-0.086c-0.527-0.223-1.041-0.475-1.041-0.475
			l-0.625,1.266c0,0,0.547,0.271,1.109,0.51l0.207,0.09l0.025,0.01l0.007,0.004h0.002c0.046,0,0.078,0,0.104,0
			c-0.237,0-0.962-0.004,1.704,0.008h0.001h0.003l0.014-0.006l0.048-0.021l0.099-0.039c0.128-0.055,0.248-0.104,0.352-0.146
			c0.202-0.09,0.342-0.148,0.342-0.148l-0.571-1.295c0,0-0.131,0.057-0.326,0.143c-0.098,0.041-0.213,0.088-0.332,0.139
			l-0.097,0.041l-0.048,0.02l-0.01,0.004h-0.006v0.002C22.825,38.238,23.881,38.242,23.553,38.24z"/>
		<path fill="#65CBEB" d="M16.563,33.646c-0.325-0.334-0.629-0.688-0.628-0.688l-0.854,0.746c0,0,0.323,0.371,0.667,0.725
			c0.34,0.355,0.698,0.693,0.698,0.693l0.776-0.824C17.224,34.299,16.885,33.984,16.563,33.646z"/>
		<path fill="#65CBEB" d="M11.25,26.916l0.852-0.299c0,0-0.125-0.35-0.239-0.729c-0.113-0.375-0.214-0.758-0.212-0.758l-0.883,0.188
			c0,0,0.105,0.416,0.227,0.82C11.119,26.553,11.25,26.916,11.25,26.916z"/>
		<path fill="#65CBEB" d="M11.896,14.508c0.094-0.295,0.193-0.586,0.193-0.586l-0.575-0.502c0,0-0.113,0.299-0.216,0.607
			c-0.097,0.313-0.191,0.623-0.191,0.623l0.614,0.453C11.722,15.104,11.81,14.805,11.896,14.508z"/>
		<path fill="#65CBEB" d="M20.523,11.342c-0.096,0.029-0.17,0.039-0.17,0.039l0.102,0.572c0,0,0.253-0.055,0.498-0.121
			c0.25-0.066,0.498-0.131,0.498-0.131l-0.047-0.594c0,0-0.262,0.07-0.523,0.141C20.752,11.281,20.621,11.318,20.523,11.342z"/>
		<path fill="#65CBEB" d="M30.145,12.299l0.091-0.451c0,0-0.143-0.031-0.287-0.063c-0.143-0.035-0.278-0.074-0.278-0.074
			l-0.126,0.443c0,0,0.149,0.047,0.298,0.082C29.992,12.268,30.145,12.299,30.145,12.299z"/>
	</g>
</g>
</svg>
