<?xml version="1.0" encoding="utf-8"?>
<!-- Generator: Adobe Illustrator 16.0.0, SVG Export Plug-In . SVG Version: 6.00 Build 0)  -->
<!DOCTYPE svg PUBLIC "-//W3C//DTD SVG 1.0//EN" "http://www.w3.org/TR/2001/REC-SVG-20010904/DTD/svg10.dtd">
<svg version="1.0" id="Layer_1" xmlns="http://www.w3.org/2000/svg" xmlns:xlink="http://www.w3.org/1999/xlink" x="0px" y="0px"
	 width="48px" height="48px" viewBox="0 0 48 48" enable-background="new 0 0 48 48" xml:space="preserve">
<path fill="#FFFFFF" d="M47.789,23.997c0,13.141-10.65,23.791-23.789,23.791c-13.138,0-23.789-10.65-23.789-23.791
	C0.212,10.862,10.863,0.212,24,0.212C37.139,0.212,47.789,10.862,47.789,23.997z"/>
<g>
	<g>
		<path fill="#65CBEB" d="M24.415,38.185c0.827-0.336,1.639-0.707,2.398-1.176c5.872-3.623,8.808-8.938,9.065-15.777
			c-0.013-0.656-0.059-1.293-0.122-1.93c-0.173-1.684-0.584-3.305-1.217-4.871c-0.148-0.369-0.292-0.428-0.674-0.303
			c-0.91,0.299-1.847,0.48-2.803,0.533c-2.352,0.127-4.559-0.371-6.593-1.572c-0.201-0.121-0.375-0.127-0.586-0.006
			c-3.008,1.709-6.166,2.057-9.472,1.023c-0.313-0.1-0.48-0.02-0.601,0.283c-0.772,1.916-1.221,3.906-1.313,5.971
			c-0.121,2.744,0.321,5.393,1.407,7.924c1.996,4.646,5.334,7.947,10.006,9.895C24.082,38.251,24.239,38.259,24.415,38.185z"/>
		<path fill="#65CBEB" d="M42.773,21.491c0,0-0.04,1.355-0.229,2.75c-0.165,1.391-0.498,2.799-0.498,2.799l2.687,0.625
			c0,0,0.366-1.555,0.548-3.072c0.205-1.523,0.248-2.996,0.248-2.998L42.773,21.491z"/>
		<path fill="#65CBEB" d="M40.275,32.665c-0.536,1.088-1.189,2.117-1.189,2.117l1.867,1.176c0,0,0.715-1.123,1.299-2.311
			c0.598-1.182,1.053-2.402,1.053-2.402l-2.062-0.789C41.243,30.456,40.824,31.581,40.275,32.665z"/>
		<path fill="#65CBEB" d="M35.088,39.938c-0.695,0.65-1.427,1.229-1.427,1.229l1.107,1.377c0,0,0.776-0.615,1.518-1.309
			c0.748-0.686,1.452-1.443,1.452-1.443l-1.295-1.203C36.443,38.589,35.787,39.296,35.088,39.938z"/>
		<path fill="#65CBEB" d="M27.619,45.063c-0.119,0.049-0.257,0.107-0.406,0.17l-0.112,0.045l-0.06,0.025l-0.012,0.006l-0.006,0.002
			h-0.002c-11.535-0.053-3.198-0.016-5.772-0.025l-0.001-0.002L21.24,45.28l-0.032-0.012l-0.254-0.109
			c-0.681-0.289-1.352-0.623-1.352-0.623l-0.624,1.27c0,0,0.703,0.348,1.419,0.652c0.09,0.037,0.178,0.076,0.267,0.115l0.032,0.012
			l0.009,0.004l0.002,0.002c0.371,0,0.55,0.002,0.604,0.002c-0.333-0.002-4.996-0.021,6.244,0.027h0.001l0.003-0.002l0.016-0.008
			l0.061-0.021l0.117-0.049c0.154-0.066,0.299-0.125,0.423-0.178c0.25-0.109,0.417-0.18,0.417-0.18l-0.57-1.293
			C28.021,44.89,27.859,44.958,27.619,45.063z M21.321,46.593C21.331,46.593,21.331,46.593,21.321,46.593L21.321,46.593z"/>
		<path fill="#65CBEB" d="M12.035,39.171c-0.436-0.447-0.844-0.922-0.844-0.922l-0.852,0.742c0,0,0.428,0.496,0.882,0.963
			c0.451,0.473,0.925,0.916,0.925,0.916l0.776-0.822C12.921,40.048,12.466,39.622,12.035,39.171z"/>
		<path fill="#65CBEB" d="M5.745,28.663c-0.179-0.592-0.333-1.215-0.333-1.217l-0.884,0.188c0,0,0.162,0.658,0.348,1.279
			c0.048,0.156,0.095,0.307,0.139,0.453c0.043,0.129,0.083,0.252,0.119,0.355c0.063,0.188,0.107,0.314,0.107,0.314l0.852-0.301
			c0,0-0.041-0.119-0.103-0.301C5.932,29.278,5.83,28.942,5.745,28.663z"/>
		<path fill="#65CBEB" d="M6.344,9.978c-0.074,0.158-0.173,0.371-0.271,0.582c-0.178,0.441-0.347,0.889-0.347,0.889l0.614,0.453
			c0,0,0.161-0.436,0.331-0.859c0.093-0.207,0.187-0.412,0.256-0.568c0.078-0.146,0.128-0.246,0.128-0.246L6.479,9.722
			C6.479,9.722,6.421,9.821,6.344,9.978z"/>
		<path fill="#65CBEB" d="M20.362,6.075c0.395-0.143,0.796-0.248,0.795-0.246l-0.045-0.596c0,0-0.414,0.107-0.823,0.258
			c-0.402,0.152-0.813,0.309-0.834,0.295l0.101,0.572C19.574,6.37,19.973,6.222,20.362,6.075z"/>
		<polygon fill="#65CBEB" points="31.771,6.28 31.682,6.261 31.56,6.702 31.682,6.733 		"/>
		<path fill="#65CBEB" d="M41.509,26.915c0,0,0.326-1.379,0.489-2.742c0.184-1.367,0.224-2.701,0.224-2.701l-2.758-0.105
			c0,0-0.038,1.221-0.202,2.455c-0.148,1.234-0.44,2.469-0.44,2.469L41.509,26.915z"/>
		<path fill="#65CBEB" d="M40.211,30.063l-2.063-0.785c0,0-0.363,0.973-0.837,1.91c-0.464,0.939-1.028,1.828-1.028,1.828
			l1.869,1.176c0,0,0.623-0.982,1.135-2.021C39.811,31.138,40.211,30.063,40.211,30.063z"/>
		<path fill="#65CBEB" d="M35.314,37.536l-1.293-1.205c0,0-0.571,0.615-1.184,1.178c-0.607,0.57-1.252,1.078-1.252,1.078
			l1.107,1.375c0,0,0.69-0.543,1.344-1.158C34.697,38.2,35.314,37.536,35.314,37.536z"/>
		<path fill="#65CBEB" d="M26.309,43.554L26.309,43.554l0.004-0.002l0.014-0.008l0.055-0.021l0.108-0.045
			c0.141-0.059,0.272-0.111,0.386-0.16c0.229-0.102,0.38-0.164,0.38-0.164l-0.571-1.293c0,0-0.146,0.063-0.363,0.158
			c-0.108,0.043-0.234,0.098-0.371,0.154l-0.103,0.041l-0.054,0.023l-0.012,0.004l-0.005,0.002l0,0
			c-6.499-0.029-1.802-0.008-3.253-0.014l-0.001-0.002l-0.007-0.002l-0.029-0.012l-0.225-0.096
			c-0.605-0.256-1.198-0.551-1.198-0.551l-0.624,1.268c0,0,0.625,0.311,1.264,0.58l0.237,0.104l0.029,0.01l0.007,0.004l0.002,0.002
			C23.911,43.542,17.66,43.515,26.309,43.554z"/>
		<path fill="#65CBEB" d="M14.42,36.874c-0.379-0.391-0.736-0.805-0.736-0.805l-0.852,0.746c0,0,0.376,0.432,0.775,0.842
			c0.395,0.414,0.812,0.805,0.811,0.807l0.777-0.822C15.194,37.642,14.797,37.269,14.42,36.874z"/>
		<path fill="#65CBEB" d="M8.653,26.755l-0.884,0.188c0,0.002,0.133,0.537,0.289,1.049c0.16,0.539,0.308,0.949,0.308,0.949
			l0.852-0.297c0,0-0.143-0.398-0.292-0.902C8.779,27.257,8.653,26.755,8.653,26.755z"/>
		<path fill="#65CBEB" d="M9.015,12.257c-0.058,0.135-0.132,0.32-0.208,0.504c-0.134,0.379-0.269,0.754-0.269,0.754l0.614,0.453
			c0,0,0.127-0.365,0.252-0.729c0.072-0.176,0.142-0.352,0.195-0.482c0.058-0.129,0.096-0.213,0.096-0.213l-0.576-0.506
			C9.119,12.038,9.077,12.124,9.015,12.257z"/>
		<path fill="#65CBEB" d="M20.026,9.054l0.101,0.566c0.011,0.01,0.335-0.096,0.654-0.199c0.322-0.104,0.646-0.189,0.646-0.189
			l-0.047-0.596c0,0.002-0.336,0.09-0.672,0.199C20.376,8.946,20.039,9.062,20.026,9.054z"/>
		<path fill="#65CBEB" d="M31.034,9.983l0.091-0.453c0,0-0.083-0.02-0.165-0.035c-0.083-0.02-0.164-0.043-0.164-0.043l-0.123,0.445
			c0,0,0.089,0.023,0.181,0.045C30.943,9.964,31.034,9.983,31.034,9.983z"/>
		<path fill="#65CBEB" d="M38.283,26.163c0,0,0.285-1.203,0.431-2.41c0.162-1.209,0.198-2.408,0.198-2.408l-2.758-0.104
			c0,0-0.032,1.086-0.178,2.16c-0.129,1.078-0.381,2.139-0.381,2.139L38.283,26.163z"/>
		<path fill="#65CBEB" d="M34.348,29.712c-0.392,0.793-0.865,1.539-0.865,1.539l1.868,1.178c0,0,0.532-0.842,0.973-1.732
			c0.449-0.887,0.794-1.814,0.794-1.814l-2.063-0.785C35.055,28.097,34.746,28.925,34.348,29.712z"/>
		<path fill="#65CBEB" d="M32.893,35.278l-1.292-1.205c0,0-0.487,0.523-1.012,1.006c-0.521,0.486-1.077,0.93-1.077,0.93l1.107,1.375
			c0,0,0.603-0.479,1.168-1.01C32.361,35.851,32.893,35.278,32.893,35.278z"/>
		<path fill="#65CBEB" d="M23.797,39.173L23.797,39.173l-0.007-0.004l-0.023-0.01l-0.198-0.084c-0.528-0.225-1.042-0.48-1.042-0.48
			l-0.625,1.27c0,0,0.547,0.27,1.11,0.508l0.208,0.09l0.025,0.01l0.007,0.004h0.002c0.045,0,0.079,0,0.104,0
			c-0.238,0-0.963-0.004,1.705,0.01l0,0l0.003-0.002l0.013-0.006l0.049-0.02l0.1-0.039c0.127-0.055,0.246-0.104,0.35-0.148
			c0.205-0.088,0.342-0.146,0.342-0.146l-0.571-1.295c0,0-0.131,0.057-0.326,0.143c-0.098,0.043-0.212,0.09-0.334,0.141
			l-0.094,0.037l-0.047,0.021l-0.013,0.004H24.53l-0.001,0.002C23.067,39.171,24.124,39.175,23.797,39.173z"/>
		<path fill="#65CBEB" d="M16.806,34.577c-0.324-0.332-0.629-0.686-0.629-0.686l-0.851,0.746c0,0,0.321,0.371,0.667,0.725
			c0.338,0.354,0.699,0.691,0.699,0.691l0.776-0.822C17.467,35.231,17.127,34.915,16.806,34.577z"/>
		<path fill="#65CBEB" d="M11.491,27.847l0.853-0.297c0,0-0.125-0.35-0.239-0.73c-0.113-0.377-0.213-0.758-0.213-0.758l-0.883,0.188
			c0,0,0.107,0.418,0.229,0.82C11.362,27.485,11.491,27.847,11.491,27.847z"/>
		<path fill="#65CBEB" d="M12.139,15.438c0.093-0.293,0.196-0.584,0.195-0.584l-0.578-0.502c0,0-0.112,0.299-0.215,0.605
			c-0.096,0.313-0.191,0.625-0.191,0.625l0.615,0.451C11.965,16.034,12.053,15.735,12.139,15.438z"/>
		<path fill="#65CBEB" d="M20.766,12.274c-0.096,0.029-0.17,0.039-0.17,0.039l0.101,0.572c0,0,0.254-0.059,0.5-0.123
			c0.249-0.064,0.496-0.131,0.496-0.131l-0.047-0.592c0,0-0.259,0.068-0.52,0.141C20.994,12.214,20.863,12.249,20.766,12.274z"/>
		<path fill="#65CBEB" d="M30.388,13.229l0.091-0.453c0,0-0.143-0.031-0.286-0.059c-0.142-0.035-0.282-0.076-0.282-0.076
			l-0.125,0.447c0,0,0.149,0.045,0.301,0.078C30.237,13.198,30.388,13.229,30.388,13.229z"/>
	</g>
	<g>
		<path fill="#65CBEB" d="M24.415,38.185c0.827-0.336,1.639-0.707,2.398-1.176c5.872-3.623,8.808-8.938,9.065-15.777
			c-0.013-0.656-0.059-1.293-0.122-1.93c-0.173-1.684-0.584-3.305-1.217-4.871c-0.148-0.369-0.292-0.428-0.674-0.303
			c-0.91,0.299-1.847,0.48-2.803,0.533c-2.352,0.127-4.559-0.371-6.593-1.572c-0.201-0.121-0.375-0.127-0.586-0.006
			c-3.008,1.709-6.166,2.057-9.472,1.023c-0.313-0.1-0.48-0.02-0.601,0.283c-0.772,1.916-1.221,3.906-1.313,5.971
			c-0.121,2.744,0.321,5.393,1.407,7.924c1.996,4.646,5.334,7.947,10.006,9.895C24.082,38.251,24.239,38.259,24.415,38.185z"/>
		<path fill="#65CBEB" d="M42.773,21.491c0,0-0.04,1.355-0.229,2.75c-0.165,1.391-0.498,2.799-0.498,2.799l2.687,0.625
			c0,0,0.366-1.555,0.548-3.072c0.205-1.523,0.248-2.996,0.248-2.998L42.773,21.491z"/>
		<path fill="#65CBEB" d="M40.275,32.665c-0.536,1.088-1.189,2.117-1.189,2.117l1.867,1.176c0,0,0.715-1.123,1.299-2.311
			c0.598-1.182,1.053-2.402,1.053-2.402l-2.062-0.789C41.243,30.456,40.824,31.581,40.275,32.665z"/>
		<path fill="#65CBEB" d="M35.088,39.938c-0.695,0.65-1.427,1.229-1.427,1.229l1.107,1.377c0,0,0.776-0.615,1.518-1.309
			c0.748-0.686,1.452-1.443,1.452-1.443l-1.295-1.203C36.443,38.589,35.787,39.296,35.088,39.938z"/>
		<path fill="#65CBEB" d="M27.619,45.063c-0.119,0.049-0.257,0.107-0.406,0.17l-0.112,0.045l-0.06,0.025l-0.012,0.006l-0.006,0.002
			h-0.002c-11.535-0.053-3.198-0.016-5.772-0.025l-0.001-0.002L21.24,45.28l-0.032-0.012l-0.254-0.109
			c-0.681-0.289-1.352-0.623-1.352-0.623l-0.624,1.27c0,0,0.703,0.348,1.419,0.652c0.09,0.037,0.178,0.076,0.267,0.115l0.032,0.012
			l0.009,0.004l0.002,0.002c0.371,0,0.55,0.002,0.604,0.002c-0.333-0.002-4.996-0.021,6.244,0.027h0.001l0.003-0.002l0.016-0.008
			l0.061-0.021l0.117-0.049c0.154-0.066,0.299-0.125,0.423-0.178c0.25-0.109,0.417-0.18,0.417-0.18l-0.57-1.293
			C28.021,44.89,27.859,44.958,27.619,45.063z M21.321,46.593C21.331,46.593,21.331,46.593,21.321,46.593L21.321,46.593z"/>
		<path fill="#65CBEB" d="M12.035,39.171c-0.436-0.447-0.844-0.922-0.844-0.922l-0.852,0.742c0,0,0.428,0.496,0.882,0.963
			c0.451,0.473,0.925,0.916,0.925,0.916l0.776-0.822C12.921,40.048,12.466,39.622,12.035,39.171z"/>
		<path fill="#65CBEB" d="M5.745,28.663c-0.179-0.592-0.333-1.215-0.333-1.217l-0.884,0.188c0,0,0.162,0.658,0.348,1.279
			c0.048,0.156,0.095,0.307,0.139,0.453c0.043,0.129,0.083,0.252,0.119,0.355c0.063,0.188,0.107,0.314,0.107,0.314l0.852-0.301
			c0,0-0.041-0.119-0.103-0.301C5.932,29.278,5.83,28.942,5.745,28.663z"/>
		<path fill="#65CBEB" d="M6.344,9.978c-0.074,0.158-0.173,0.371-0.271,0.582c-0.178,0.441-0.347,0.889-0.347,0.889l0.614,0.453
			c0,0,0.161-0.436,0.331-0.859c0.093-0.207,0.187-0.412,0.256-0.568c0.078-0.146,0.128-0.246,0.128-0.246L6.479,9.722
			C6.479,9.722,6.421,9.821,6.344,9.978z"/>
		<path fill="#65CBEB" d="M20.362,6.075c0.395-0.143,0.796-0.248,0.795-0.246l-0.045-0.596c0,0-0.414,0.107-0.823,0.258
			c-0.402,0.152-0.813,0.309-0.834,0.295l0.101,0.572C19.574,6.37,19.973,6.222,20.362,6.075z"/>
		<polygon fill="#65CBEB" points="31.771,6.28 31.682,6.261 31.56,6.702 31.682,6.733 		"/>
		<path fill="#65CBEB" d="M41.509,26.915c0,0,0.326-1.379,0.489-2.742c0.184-1.367,0.224-2.701,0.224-2.701l-2.758-0.105
			c0,0-0.038,1.221-0.202,2.455c-0.148,1.234-0.44,2.469-0.44,2.469L41.509,26.915z"/>
		<path fill="#65CBEB" d="M40.211,30.063l-2.063-0.785c0,0-0.363,0.973-0.837,1.91c-0.464,0.939-1.028,1.828-1.028,1.828
			l1.869,1.176c0,0,0.623-0.982,1.135-2.021C39.811,31.138,40.211,30.063,40.211,30.063z"/>
		<path fill="#65CBEB" d="M35.314,37.536l-1.293-1.205c0,0-0.571,0.615-1.184,1.178c-0.607,0.57-1.252,1.078-1.252,1.078
			l1.107,1.375c0,0,0.69-0.543,1.344-1.158C34.697,38.2,35.314,37.536,35.314,37.536z"/>
		<path fill="#65CBEB" d="M26.309,43.554L26.309,43.554l0.004-0.002l0.014-0.008l0.055-0.021l0.108-0.045
			c0.141-0.059,0.272-0.111,0.386-0.16c0.229-0.102,0.38-0.164,0.38-0.164l-0.571-1.293c0,0-0.146,0.063-0.363,0.158
			c-0.108,0.043-0.234,0.098-0.371,0.154l-0.103,0.041l-0.054,0.023l-0.012,0.004l-0.005,0.002l0,0
			c-6.499-0.029-1.802-0.008-3.253-0.014l-0.001-0.002l-0.007-0.002l-0.029-0.012l-0.225-0.096
			c-0.605-0.256-1.198-0.551-1.198-0.551l-0.624,1.268c0,0,0.625,0.311,1.264,0.58l0.237,0.104l0.029,0.01l0.007,0.004l0.002,0.002
			C23.911,43.542,17.66,43.515,26.309,43.554z"/>
		<path fill="#65CBEB" d="M14.42,36.874c-0.379-0.391-0.736-0.805-0.736-0.805l-0.852,0.746c0,0,0.376,0.432,0.775,0.842
			c0.395,0.414,0.812,0.805,0.811,0.807l0.777-0.822C15.194,37.642,14.797,37.269,14.42,36.874z"/>
		<path fill="#65CBEB" d="M8.653,26.755l-0.884,0.188c0,0.002,0.133,0.537,0.289,1.049c0.16,0.539,0.308,0.949,0.308,0.949
			l0.852-0.297c0,0-0.143-0.398-0.292-0.902C8.779,27.257,8.653,26.755,8.653,26.755z"/>
		<path fill="#65CBEB" d="M9.015,12.257c-0.058,0.135-0.132,0.32-0.208,0.504c-0.134,0.379-0.269,0.754-0.269,0.754l0.614,0.453
			c0,0,0.127-0.365,0.252-0.729c0.072-0.176,0.142-0.352,0.195-0.482c0.058-0.129,0.096-0.213,0.096-0.213l-0.576-0.506
			C9.119,12.038,9.077,12.124,9.015,12.257z"/>
		<path fill="#65CBEB" d="M20.026,9.054l0.101,0.566c0.011,0.01,0.335-0.096,0.654-0.199c0.322-0.104,0.646-0.189,0.646-0.189
			l-0.047-0.596c0,0.002-0.336,0.09-0.672,0.199C20.376,8.946,20.039,9.062,20.026,9.054z"/>
		<path fill="#65CBEB" d="M31.034,9.983l0.091-0.453c0,0-0.083-0.02-0.165-0.035c-0.083-0.02-0.164-0.043-0.164-0.043l-0.123,0.445
			c0,0,0.089,0.023,0.181,0.045C30.943,9.964,31.034,9.983,31.034,9.983z"/>
		<path fill="#65CBEB" d="M38.283,26.163c0,0,0.285-1.203,0.431-2.41c0.162-1.209,0.198-2.408,0.198-2.408l-2.758-0.104
			c0,0-0.032,1.086-0.178,2.16c-0.129,1.078-0.381,2.139-0.381,2.139L38.283,26.163z"/>
		<path fill="#65CBEB" d="M34.348,29.712c-0.392,0.793-0.865,1.539-0.865,1.539l1.868,1.178c0,0,0.532-0.842,0.973-1.732
			c0.449-0.887,0.794-1.814,0.794-1.814l-2.063-0.785C35.055,28.097,34.746,28.925,34.348,29.712z"/>
		<path fill="#65CBEB" d="M32.893,35.278l-1.292-1.205c0,0-0.487,0.523-1.012,1.006c-0.521,0.486-1.077,0.93-1.077,0.93l1.107,1.375
			c0,0,0.603-0.479,1.168-1.01C32.361,35.851,32.893,35.278,32.893,35.278z"/>
		<path fill="#65CBEB" d="M23.797,39.173L23.797,39.173l-0.007-0.004l-0.023-0.01l-0.198-0.084c-0.528-0.225-1.042-0.48-1.042-0.48
			l-0.625,1.27c0,0,0.547,0.27,1.11,0.508l0.208,0.09l0.025,0.01l0.007,0.004h0.002c0.045,0,0.079,0,0.104,0
			c-0.238,0-0.963-0.004,1.705,0.01l0,0l0.003-0.002l0.013-0.006l0.049-0.02l0.1-0.039c0.127-0.055,0.246-0.104,0.35-0.148
			c0.205-0.088,0.342-0.146,0.342-0.146l-0.571-1.295c0,0-0.131,0.057-0.326,0.143c-0.098,0.043-0.212,0.09-0.334,0.141
			l-0.094,0.037l-0.047,0.021l-0.013,0.004H24.53l-0.001,0.002C23.067,39.171,24.124,39.175,23.797,39.173z"/>
		<path fill="#65CBEB" d="M16.806,34.577c-0.324-0.332-0.629-0.686-0.629-0.686l-0.851,0.746c0,0,0.321,0.371,0.667,0.725
			c0.338,0.354,0.699,0.691,0.699,0.691l0.776-0.822C17.467,35.231,17.127,34.915,16.806,34.577z"/>
		<path fill="#65CBEB" d="M11.491,27.847l0.853-0.297c0,0-0.125-0.35-0.239-0.73c-0.113-0.377-0.213-0.758-0.213-0.758l-0.883,0.188
			c0,0,0.107,0.418,0.229,0.82C11.362,27.485,11.491,27.847,11.491,27.847z"/>
		<path fill="#65CBEB" d="M12.139,15.438c0.093-0.293,0.196-0.584,0.195-0.584l-0.578-0.502c0,0-0.112,0.299-0.215,0.605
			c-0.096,0.313-0.191,0.625-0.191,0.625l0.615,0.451C11.965,16.034,12.053,15.735,12.139,15.438z"/>
		<path fill="#65CBEB" d="M20.766,12.274c-0.096,0.029-0.17,0.039-0.17,0.039l0.101,0.572c0,0,0.254-0.059,0.5-0.123
			c0.249-0.064,0.496-0.131,0.496-0.131l-0.047-0.592c0,0-0.259,0.068-0.52,0.141C20.994,12.214,20.863,12.249,20.766,12.274z"/>
		<path fill="#65CBEB" d="M30.388,13.229l0.091-0.453c0,0-0.143-0.031-0.286-0.059c-0.142-0.035-0.282-0.076-0.282-0.076
			l-0.125,0.447c0,0,0.149,0.045,0.301,0.078C30.237,13.198,30.388,13.229,30.388,13.229z"/>
	</g>
	<g>
		<linearGradient id="SVGID_1_" gradientUnits="userSpaceOnUse" x1="12.4775" y1="25.6162" x2="35.8779" y2="25.6162">
			<stop  offset="0" style="stop-color:#2483C5"/>
			<stop  offset="1" style="stop-color:#00ADEE"/>
		</linearGradient>
		<path fill="url(#SVGID_1_)" d="M24.415,38.185c0.827-0.336,1.639-0.707,2.398-1.176c5.872-3.623,8.808-8.938,9.065-15.777
			c-0.013-0.656-0.059-1.293-0.122-1.93c-0.173-1.684-0.584-3.305-1.217-4.871c-0.148-0.369-0.292-0.428-0.674-0.303
			c-0.91,0.299-1.847,0.48-2.803,0.533c-2.352,0.127-4.559-0.371-6.593-1.572c-0.201-0.121-0.375-0.127-0.586-0.006
			c-3.008,1.709-6.166,2.057-9.472,1.023c-0.313-0.1-0.48-0.02-0.601,0.283c-0.772,1.916-1.221,3.906-1.313,5.971
			c-0.121,2.744,0.321,5.393,1.407,7.924c1.996,4.646,5.334,7.947,10.006,9.895C24.082,38.251,24.239,38.259,24.415,38.185z"/>
		<path fill="#65CBEB" d="M42.773,21.491c0,0-0.04,1.355-0.229,2.75c-0.165,1.391-0.498,2.799-0.498,2.799l2.687,0.625
			c0,0,0.366-1.555,0.548-3.072c0.205-1.523,0.248-2.996,0.248-2.998L42.773,21.491z"/>
		<path fill="#65CBEB" d="M40.275,32.665c-0.536,1.088-1.189,2.117-1.189,2.117l1.867,1.176c0,0,0.715-1.123,1.299-2.311
			c0.598-1.182,1.053-2.402,1.053-2.402l-2.062-0.789C41.243,30.456,40.824,31.581,40.275,32.665z"/>
		<path fill="#65CBEB" d="M35.088,39.938c-0.695,0.65-1.427,1.229-1.427,1.229l1.107,1.377c0,0,0.776-0.615,1.518-1.309
			c0.748-0.686,1.452-1.443,1.452-1.443l-1.295-1.203C36.443,38.589,35.787,39.296,35.088,39.938z"/>
		<path fill="#65CBEB" d="M27.619,45.063c-0.119,0.049-0.257,0.107-0.406,0.17l-0.112,0.045l-0.06,0.025l-0.012,0.006l-0.006,0.002
			h-0.002c-11.535-0.053-3.198-0.016-5.772-0.025l-0.001-0.002L21.24,45.28l-0.032-0.012l-0.254-0.109
			c-0.681-0.289-1.352-0.623-1.352-0.623l-0.624,1.27c0,0,0.703,0.348,1.419,0.652c0.09,0.037,0.178,0.076,0.267,0.115l0.032,0.012
			l0.009,0.004l0.002,0.002c0.371,0,0.55,0.002,0.604,0.002c-0.333-0.002-4.996-0.021,6.244,0.027h0.001l0.003-0.002l0.016-0.008
			l0.061-0.021l0.117-0.049c0.154-0.066,0.299-0.125,0.423-0.178c0.25-0.109,0.417-0.18,0.417-0.18l-0.57-1.293
			C28.021,44.89,27.859,44.958,27.619,45.063z M21.321,46.593C21.331,46.593,21.331,46.593,21.321,46.593L21.321,46.593z"/>
		<path fill="#65CBEB" d="M12.035,39.171c-0.436-0.447-0.844-0.922-0.844-0.922l-0.852,0.742c0,0,0.428,0.496,0.882,0.963
			c0.451,0.473,0.925,0.916,0.925,0.916l0.776-0.822C12.921,40.048,12.466,39.622,12.035,39.171z"/>
		<path fill="#65CBEB" d="M5.745,28.663c-0.179-0.592-0.333-1.215-0.333-1.217l-0.884,0.188c0,0,0.162,0.658,0.348,1.279
			c0.048,0.156,0.095,0.307,0.139,0.453c0.043,0.129,0.083,0.252,0.119,0.355c0.063,0.188,0.107,0.314,0.107,0.314l0.852-0.301
			c0,0-0.041-0.119-0.103-0.301C5.932,29.278,5.83,28.942,5.745,28.663z"/>
		<path fill="#65CBEB" d="M6.344,9.978c-0.074,0.158-0.173,0.371-0.271,0.582c-0.178,0.441-0.347,0.889-0.347,0.889l0.614,0.453
			c0,0,0.161-0.436,0.331-0.859c0.093-0.207,0.187-0.412,0.256-0.568c0.078-0.146,0.128-0.246,0.128-0.246L6.479,9.722
			C6.479,9.722,6.421,9.821,6.344,9.978z"/>
		<path fill="#65CBEB" d="M20.362,6.075c0.395-0.143,0.796-0.248,0.795-0.246l-0.045-0.596c0,0-0.414,0.107-0.823,0.258
			c-0.402,0.152-0.813,0.309-0.834,0.295l0.101,0.572C19.574,6.37,19.973,6.222,20.362,6.075z"/>
		<polygon fill="#65CBEB" points="31.771,6.28 31.682,6.261 31.56,6.702 31.682,6.733 		"/>
		<path fill="#65CBEB" d="M41.509,26.915c0,0,0.326-1.379,0.489-2.742c0.184-1.367,0.224-2.701,0.224-2.701l-2.758-0.105
			c0,0-0.038,1.221-0.202,2.455c-0.148,1.234-0.44,2.469-0.44,2.469L41.509,26.915z"/>
		<path fill="#65CBEB" d="M40.211,30.063l-2.063-0.785c0,0-0.363,0.973-0.837,1.91c-0.464,0.939-1.028,1.828-1.028,1.828
			l1.869,1.176c0,0,0.623-0.982,1.135-2.021C39.811,31.138,40.211,30.063,40.211,30.063z"/>
		<path fill="#65CBEB" d="M35.314,37.536l-1.293-1.205c0,0-0.571,0.615-1.184,1.178c-0.607,0.57-1.252,1.078-1.252,1.078
			l1.107,1.375c0,0,0.69-0.543,1.344-1.158C34.697,38.2,35.314,37.536,35.314,37.536z"/>
		<path fill="#65CBEB" d="M26.309,43.554L26.309,43.554l0.004-0.002l0.014-0.008l0.055-0.021l0.108-0.045
			c0.141-0.059,0.272-0.111,0.386-0.16c0.229-0.102,0.38-0.164,0.38-0.164l-0.571-1.293c0,0-0.146,0.063-0.363,0.158
			c-0.108,0.043-0.234,0.098-0.371,0.154l-0.103,0.041l-0.054,0.023l-0.012,0.004l-0.005,0.002l0,0
			c-6.499-0.029-1.802-0.008-3.253-0.014l-0.001-0.002l-0.007-0.002l-0.029-0.012l-0.225-0.096
			c-0.605-0.256-1.198-0.551-1.198-0.551l-0.624,1.268c0,0,0.625,0.311,1.264,0.58l0.237,0.104l0.029,0.01l0.007,0.004l0.002,0.002
			C23.911,43.542,17.66,43.515,26.309,43.554z"/>
		<path fill="#65CBEB" d="M14.42,36.874c-0.379-0.391-0.736-0.805-0.736-0.805l-0.852,0.746c0,0,0.376,0.432,0.775,0.842
			c0.395,0.414,0.812,0.805,0.811,0.807l0.777-0.822C15.194,37.642,14.797,37.269,14.42,36.874z"/>
		<path fill="#65CBEB" d="M8.653,26.755l-0.884,0.188c0,0.002,0.133,0.537,0.289,1.049c0.16,0.539,0.308,0.949,0.308,0.949
			l0.852-0.297c0,0-0.143-0.398-0.292-0.902C8.779,27.257,8.653,26.755,8.653,26.755z"/>
		<path fill="#65CBEB" d="M9.015,12.257c-0.058,0.135-0.132,0.32-0.208,0.504c-0.134,0.379-0.269,0.754-0.269,0.754l0.614,0.453
			c0,0,0.127-0.365,0.252-0.729c0.072-0.176,0.142-0.352,0.195-0.482c0.058-0.129,0.096-0.213,0.096-0.213l-0.576-0.506
			C9.119,12.038,9.077,12.124,9.015,12.257z"/>
		<path fill="#65CBEB" d="M20.026,9.054l0.101,0.566c0.011,0.01,0.335-0.096,0.654-0.199c0.322-0.104,0.646-0.189,0.646-0.189
			l-0.047-0.596c0,0.002-0.336,0.09-0.672,0.199C20.376,8.946,20.039,9.062,20.026,9.054z"/>
		<path fill="#65CBEB" d="M31.034,9.983l0.091-0.453c0,0-0.083-0.02-0.165-0.035c-0.083-0.02-0.164-0.043-0.164-0.043l-0.123,0.445
			c0,0,0.089,0.023,0.181,0.045C30.943,9.964,31.034,9.983,31.034,9.983z"/>
		<path fill="#65CBEB" d="M38.283,26.163c0,0,0.285-1.203,0.431-2.41c0.162-1.209,0.198-2.408,0.198-2.408l-2.758-0.104
			c0,0-0.032,1.086-0.178,2.16c-0.129,1.078-0.381,2.139-0.381,2.139L38.283,26.163z"/>
		<path fill="#65CBEB" d="M34.348,29.712c-0.392,0.793-0.865,1.539-0.865,1.539l1.868,1.178c0,0,0.532-0.842,0.973-1.732
			c0.449-0.887,0.794-1.814,0.794-1.814l-2.063-0.785C35.055,28.097,34.746,28.925,34.348,29.712z"/>
		<path fill="#65CBEB" d="M32.893,35.278l-1.292-1.205c0,0-0.487,0.523-1.012,1.006c-0.521,0.486-1.077,0.93-1.077,0.93l1.107,1.375
			c0,0,0.603-0.479,1.168-1.01C32.361,35.851,32.893,35.278,32.893,35.278z"/>
		<path fill="#65CBEB" d="M23.797,39.173L23.797,39.173l-0.007-0.004l-0.023-0.01l-0.198-0.084c-0.528-0.225-1.042-0.48-1.042-0.48
			l-0.625,1.27c0,0,0.547,0.27,1.11,0.508l0.208,0.09l0.025,0.01l0.007,0.004h0.002c0.045,0,0.079,0,0.104,0
			c-0.238,0-0.963-0.004,1.705,0.01l0,0l0.003-0.002l0.013-0.006l0.049-0.02l0.1-0.039c0.127-0.055,0.246-0.104,0.35-0.148
			c0.205-0.088,0.342-0.146,0.342-0.146l-0.571-1.295c0,0-0.131,0.057-0.326,0.143c-0.098,0.043-0.212,0.09-0.334,0.141
			l-0.094,0.037l-0.047,0.021l-0.013,0.004H24.53l-0.001,0.002C23.067,39.171,24.124,39.175,23.797,39.173z"/>
		<path fill="#65CBEB" d="M16.806,34.577c-0.324-0.332-0.629-0.686-0.629-0.686l-0.851,0.746c0,0,0.321,0.371,0.667,0.725
			c0.338,0.354,0.699,0.691,0.699,0.691l0.776-0.822C17.467,35.231,17.127,34.915,16.806,34.577z"/>
		<path fill="#65CBEB" d="M11.491,27.847l0.853-0.297c0,0-0.125-0.35-0.239-0.73c-0.113-0.377-0.213-0.758-0.213-0.758l-0.883,0.188
			c0,0,0.107,0.418,0.229,0.82C11.362,27.485,11.491,27.847,11.491,27.847z"/>
		<path fill="#65CBEB" d="M12.139,15.438c0.093-0.293,0.196-0.584,0.195-0.584l-0.578-0.502c0,0-0.112,0.299-0.215,0.605
			c-0.096,0.313-0.191,0.625-0.191,0.625l0.615,0.451C11.965,16.034,12.053,15.735,12.139,15.438z"/>
		<path fill="#65CBEB" d="M20.766,12.274c-0.096,0.029-0.17,0.039-0.17,0.039l0.101,0.572c0,0,0.254-0.059,0.5-0.123
			c0.249-0.064,0.496-0.131,0.496-0.131l-0.047-0.592c0,0-0.259,0.068-0.52,0.141C20.994,12.214,20.863,12.249,20.766,12.274z"/>
		<path fill="#65CBEB" d="M30.388,13.229l0.091-0.453c0,0-0.143-0.031-0.286-0.059c-0.142-0.035-0.282-0.076-0.282-0.076
			l-0.125,0.447c0,0,0.149,0.045,0.301,0.078C30.237,13.198,30.388,13.229,30.388,13.229z"/>
	</g>
</g>
</svg>
