<?xml version="1.0" encoding="utf-8"?>
<!-- Generator: Adobe Illustrator 16.0.0, SVG Export Plug-In . SVG Version: 6.00 Build 0)  -->
<!DOCTYPE svg PUBLIC "-//W3C//DTD SVG 1.0//EN" "http://www.w3.org/TR/2001/REC-SVG-20010904/DTD/svg10.dtd">
<svg version="1.0" id="Layer_1" xmlns="http://www.w3.org/2000/svg" xmlns:xlink="http://www.w3.org/1999/xlink" x="0px" y="0px"
	 width="48px" height="48px" viewBox="0 0 48 48" enable-background="new 0 0 48 48" xml:space="preserve">
<pattern  width="37.971" height="41.93" patternUnits="userSpaceOnUse" id="Arrows_Dark" viewBox="0 -41.93 37.971 41.93" overflow="visible">
	<g>
		<polygon fill="none" points="0,0 37.971,0 37.971,-41.93 0,-41.93 		"/>
		
			<linearGradient id="SVGID_1_" gradientUnits="userSpaceOnUse" x1="6893.2358" y1="-8021.2764" x2="6893.2358" y2="-8063.2061" gradientTransform="matrix(1 0 0 -1 -6874.25 -8063.2061)">
			<stop  offset="0" style="stop-color:#454B52"/>
			<stop  offset="0.8598" style="stop-color:#4E565E"/>
			<stop  offset="1" style="stop-color:#505861"/>
		</linearGradient>
		<path fill="url(#SVGID_1_)" d="M26.715-31.444L15.457-41.93v9.345H1.188C0.532-32.585,0-31.934,0-31.133v20.336
			c0,0.803,0.532,1.451,1.188,1.451h14.269V0l11.258-10.48l11.256-10.482L26.715-31.444z"/>
	</g>
</pattern>
<path fill="#FFFFFF" d="M47.393,24.156c0,12.896-10.46,23.358-23.359,23.358c-12.901,0-23.359-10.462-23.359-23.358
	c0-12.903,10.458-23.361,23.359-23.361C36.933,0.795,47.393,11.253,47.393,24.156z"/>
<g opacity="0.4">
	<defs>
		<circle id="SVGID_2_" opacity="0.4" cx="24.033" cy="23.975" r="23.359"/>
	</defs>
	<clipPath id="SVGID_3_">
		<use xlink:href="#SVGID_2_"  overflow="visible"/>
	</clipPath>
	<g clip-path="url(#SVGID_3_)">
		<line fill="#C01E58" stroke="#404041" stroke-miterlimit="10" x1="27.421" y1="53.935" x2="35.765" y2="3.758"/>
		<line fill="#C01E58" stroke="#404041" stroke-miterlimit="10" x1="29.062" y1="44.585" x2="42.467" y2="44.585"/>
		<line fill="#C01E58" stroke="#404041" stroke-miterlimit="10" x1="30.573" y1="34.527" x2="40.882" y2="34.527"/>
		<line fill="#C01E58" stroke="#404041" stroke-miterlimit="10" x1="33.847" y1="15.292" x2="37.731" y2="15.292"/>
		<line fill="#C01E58" stroke="#404041" stroke-miterlimit="10" x1="32.243" y1="24.939" x2="39.457" y2="24.939"/>
		<line fill="#C01E58" stroke="#404041" stroke-miterlimit="10" x1="44.106" y1="53.935" x2="35.765" y2="3.758"/>
		<line fill="#C01E58" stroke="#404041" stroke-miterlimit="10" x1="29.062" y1="44.585" x2="34.093" y2="34.527"/>
		<line fill="#C01E58" stroke="#404041" stroke-miterlimit="10" x1="37.313" y1="34.527" x2="42.467" y2="44.585"/>
		<line fill="#C01E58" stroke="#404041" stroke-miterlimit="10" x1="30.573" y1="34.527" x2="34.886" y2="24.939"/>
		<line fill="#C01E58" stroke="#404041" stroke-miterlimit="10" x1="36.916" y1="24.939" x2="40.681" y2="34.527"/>
		<line fill="#C01E58" stroke="#404041" stroke-miterlimit="10" x1="32.243" y1="24.939" x2="35.237" y2="15.292"/>
		<line fill="#C01E58" stroke="#404041" stroke-miterlimit="10" x1="36.296" y1="15.292" x2="39.457" y2="24.939"/>
		<line fill="#C01E58" stroke="#404041" stroke-miterlimit="10" x1="30.573" y1="34.527" x2="34.093" y2="32.909"/>
		<line fill="#C01E58" stroke="#404041" stroke-miterlimit="10" x1="34.093" y1="32.909" x2="42.109" y2="32.909"/>
		<line fill="#C01E58" stroke="#404041" stroke-miterlimit="10" x1="35.765" y1="3.758" x2="44.826" y2="46.234"/>
		<line fill="#C01E58" stroke="#404041" stroke-miterlimit="10" x1="40.882" y1="34.527" x2="42.109" y2="32.909"/>
		<line fill="#C01E58" stroke="#404041" stroke-miterlimit="10" x1="35.765" y1="3.758" x2="33.474" y2="46.234"/>
		<line fill="#C01E58" stroke="#404041" stroke-miterlimit="10" x1="29.062" y1="44.585" x2="33.847" y2="41.937"/>
		<line fill="#C01E58" stroke="#404041" stroke-miterlimit="10" x1="33.847" y1="41.937" x2="43.945" y2="41.937"/>
		<line fill="#C01E58" stroke="#404041" stroke-miterlimit="10" x1="43.945" y1="41.937" x2="42.467" y2="44.585"/>
		<line fill="#C01E58" stroke="#404041" stroke-miterlimit="10" x1="32.243" y1="24.939" x2="34.667" y2="24.119"/>
		<line fill="#C01E58" stroke="#404041" stroke-miterlimit="10" x1="34.667" y1="24.119" x2="40.107" y2="24.119"/>
		<line fill="#C01E58" stroke="#404041" stroke-miterlimit="10" x1="40.107" y1="24.119" x2="39.287" y2="24.939"/>
		<line fill="#C01E58" stroke="#404041" stroke-miterlimit="10" x1="33.948" y1="15.221" x2="35.12" y2="14.857"/>
		<line fill="#C01E58" stroke="#404041" stroke-miterlimit="10" x1="35.12" y1="14.857" x2="38.149" y2="14.857"/>
		<line fill="#C01E58" stroke="#404041" stroke-miterlimit="10" x1="37.731" y1="15.292" x2="38.149" y2="14.857"/>
	</g>
	<g clip-path="url(#SVGID_3_)">
		<linearGradient id="SVGID_4_" gradientUnits="userSpaceOnUse" x1="18.8257" y1="21.0615" x2="23.0352" y2="21.0615">
			<stop  offset="0" style="stop-color:#D64826"/>
			<stop  offset="0.618" style="stop-color:#C64327"/>
			<stop  offset="0.6292" style="stop-color:#C64127"/>
			<stop  offset="0.9831" style="stop-color:#CE4327"/>
		</linearGradient>
		
			<line fill="url(#SVGID_4_)" stroke="#404041" stroke-width="0.5" stroke-miterlimit="10" x1="18.826" y1="33.718" x2="23.035" y2="8.405"/>
		<linearGradient id="SVGID_5_" gradientUnits="userSpaceOnUse" x1="19.6543" y1="29.002" x2="26.415" y2="29.002">
			<stop  offset="0" style="stop-color:#D64826"/>
			<stop  offset="0.618" style="stop-color:#C64327"/>
			<stop  offset="0.6292" style="stop-color:#C64127"/>
			<stop  offset="0.9831" style="stop-color:#CE4327"/>
		</linearGradient>
		
			<line fill="url(#SVGID_5_)" stroke="#404041" stroke-width="0.5" stroke-miterlimit="10" x1="19.654" y1="29.002" x2="26.415" y2="29.002"/>
		<linearGradient id="SVGID_6_" gradientUnits="userSpaceOnUse" x1="20.4175" y1="23.9292" x2="25.6162" y2="23.9292">
			<stop  offset="0" style="stop-color:#D64826"/>
			<stop  offset="0.618" style="stop-color:#C64327"/>
			<stop  offset="0.6292" style="stop-color:#C64127"/>
			<stop  offset="0.9831" style="stop-color:#CE4327"/>
		</linearGradient>
		
			<line fill="url(#SVGID_6_)" stroke="#404041" stroke-width="0.5" stroke-miterlimit="10" x1="20.417" y1="23.929" x2="25.616" y2="23.929"/>
		<linearGradient id="SVGID_7_" gradientUnits="userSpaceOnUse" x1="22.0679" y1="14.2241" x2="24.0273" y2="14.2241">
			<stop  offset="0" style="stop-color:#D64826"/>
			<stop  offset="0.618" style="stop-color:#C64327"/>
			<stop  offset="0.6292" style="stop-color:#C64127"/>
			<stop  offset="0.9831" style="stop-color:#CE4327"/>
		</linearGradient>
		
			<line fill="url(#SVGID_7_)" stroke="#404041" stroke-width="0.5" stroke-miterlimit="10" x1="22.068" y1="14.224" x2="24.027" y2="14.224"/>
		<linearGradient id="SVGID_8_" gradientUnits="userSpaceOnUse" x1="21.2588" y1="19.0894" x2="24.8984" y2="19.0894">
			<stop  offset="0" style="stop-color:#D64826"/>
			<stop  offset="0.618" style="stop-color:#C64327"/>
			<stop  offset="0.6292" style="stop-color:#C64127"/>
			<stop  offset="0.9831" style="stop-color:#CE4327"/>
		</linearGradient>
		
			<line fill="url(#SVGID_8_)" stroke="#404041" stroke-width="0.5" stroke-miterlimit="10" x1="21.259" y1="19.089" x2="24.898" y2="19.089"/>
		<linearGradient id="SVGID_9_" gradientUnits="userSpaceOnUse" x1="23.0352" y1="21.0615" x2="27.2441" y2="21.0615">
			<stop  offset="0" style="stop-color:#D64826"/>
			<stop  offset="0.618" style="stop-color:#C64327"/>
			<stop  offset="0.6292" style="stop-color:#C64127"/>
			<stop  offset="0.9831" style="stop-color:#CE4327"/>
		</linearGradient>
		
			<line fill="url(#SVGID_9_)" stroke="#404041" stroke-width="0.5" stroke-miterlimit="10" x1="27.244" y1="33.718" x2="23.035" y2="8.405"/>
		<linearGradient id="SVGID_10_" gradientUnits="userSpaceOnUse" x1="19.6543" y1="26.4658" x2="22.1909" y2="26.4658">
			<stop  offset="0" style="stop-color:#D64826"/>
			<stop  offset="0.618" style="stop-color:#C64327"/>
			<stop  offset="0.6292" style="stop-color:#C64127"/>
			<stop  offset="0.9831" style="stop-color:#CE4327"/>
		</linearGradient>
		
			<line fill="url(#SVGID_10_)" stroke="#404041" stroke-width="0.5" stroke-miterlimit="10" x1="19.654" y1="29.002" x2="22.191" y2="23.929"/>
		<linearGradient id="SVGID_11_" gradientUnits="userSpaceOnUse" x1="23.8164" y1="26.4658" x2="26.415" y2="26.4658">
			<stop  offset="0" style="stop-color:#D64826"/>
			<stop  offset="0.618" style="stop-color:#C64327"/>
			<stop  offset="0.6292" style="stop-color:#C64127"/>
			<stop  offset="0.9831" style="stop-color:#CE4327"/>
		</linearGradient>
		
			<line fill="url(#SVGID_11_)" stroke="#404041" stroke-width="0.5" stroke-miterlimit="10" x1="23.816" y1="23.929" x2="26.415" y2="29.002"/>
		<linearGradient id="SVGID_12_" gradientUnits="userSpaceOnUse" x1="20.4175" y1="21.5093" x2="22.5918" y2="21.5093">
			<stop  offset="0" style="stop-color:#D64826"/>
			<stop  offset="0.618" style="stop-color:#C64327"/>
			<stop  offset="0.6292" style="stop-color:#C64127"/>
			<stop  offset="0.9831" style="stop-color:#CE4327"/>
		</linearGradient>
		
			<line fill="url(#SVGID_12_)" stroke="#404041" stroke-width="0.5" stroke-miterlimit="10" x1="20.417" y1="23.929" x2="22.592" y2="19.089"/>
		<linearGradient id="SVGID_13_" gradientUnits="userSpaceOnUse" x1="23.6157" y1="21.5093" x2="25.5156" y2="21.5093">
			<stop  offset="0" style="stop-color:#D64826"/>
			<stop  offset="0.618" style="stop-color:#C64327"/>
			<stop  offset="0.6292" style="stop-color:#C64127"/>
			<stop  offset="0.9831" style="stop-color:#CE4327"/>
		</linearGradient>
		
			<line fill="url(#SVGID_13_)" stroke="#404041" stroke-width="0.5" stroke-miterlimit="10" x1="23.616" y1="19.089" x2="25.516" y2="23.929"/>
		<linearGradient id="SVGID_14_" gradientUnits="userSpaceOnUse" x1="21.2588" y1="16.6567" x2="22.7695" y2="16.6567">
			<stop  offset="0" style="stop-color:#D64826"/>
			<stop  offset="0.618" style="stop-color:#C64327"/>
			<stop  offset="0.6292" style="stop-color:#C64127"/>
			<stop  offset="0.9831" style="stop-color:#CE4327"/>
		</linearGradient>
		
			<line fill="url(#SVGID_14_)" stroke="#404041" stroke-width="0.5" stroke-miterlimit="10" x1="21.259" y1="19.089" x2="22.77" y2="14.224"/>
		<linearGradient id="SVGID_15_" gradientUnits="userSpaceOnUse" x1="23.3042" y1="16.6567" x2="24.8984" y2="16.6567">
			<stop  offset="0" style="stop-color:#D64826"/>
			<stop  offset="0.618" style="stop-color:#C64327"/>
			<stop  offset="0.6292" style="stop-color:#C64127"/>
			<stop  offset="0.9831" style="stop-color:#CE4327"/>
		</linearGradient>
		
			<line fill="url(#SVGID_15_)" stroke="#404041" stroke-width="0.5" stroke-miterlimit="10" x1="23.304" y1="14.224" x2="24.898" y2="19.089"/>
		<linearGradient id="SVGID_16_" gradientUnits="userSpaceOnUse" x1="20.4175" y1="23.5205" x2="22.1909" y2="23.5205">
			<stop  offset="0" style="stop-color:#D64826"/>
			<stop  offset="0.618" style="stop-color:#C64327"/>
			<stop  offset="0.6292" style="stop-color:#C64127"/>
			<stop  offset="0.9831" style="stop-color:#CE4327"/>
		</linearGradient>
		
			<line fill="url(#SVGID_16_)" stroke="#404041" stroke-width="0.5" stroke-miterlimit="10" x1="20.417" y1="23.929" x2="22.191" y2="23.111"/>
		<linearGradient id="SVGID_17_" gradientUnits="userSpaceOnUse" x1="22.1909" y1="23.1113" x2="26.2363" y2="23.1113">
			<stop  offset="0" style="stop-color:#D64826"/>
			<stop  offset="0.618" style="stop-color:#C64327"/>
			<stop  offset="0.6292" style="stop-color:#C64127"/>
			<stop  offset="0.9831" style="stop-color:#CE4327"/>
		</linearGradient>
		
			<line fill="url(#SVGID_17_)" stroke="#404041" stroke-width="0.5" stroke-miterlimit="10" x1="22.191" y1="23.111" x2="26.236" y2="23.111"/>
		<linearGradient id="SVGID_18_" gradientUnits="userSpaceOnUse" x1="23.0352" y1="19.1182" x2="27.6074" y2="19.1182">
			<stop  offset="0" style="stop-color:#D64826"/>
			<stop  offset="0.618" style="stop-color:#C64327"/>
			<stop  offset="0.6292" style="stop-color:#C64127"/>
			<stop  offset="0.9831" style="stop-color:#CE4327"/>
		</linearGradient>
		
			<line fill="url(#SVGID_18_)" stroke="#404041" stroke-width="0.5" stroke-miterlimit="10" x1="23.035" y1="8.405" x2="27.607" y2="29.832"/>
		<linearGradient id="SVGID_19_" gradientUnits="userSpaceOnUse" x1="25.6162" y1="23.5205" x2="26.2363" y2="23.5205">
			<stop  offset="0" style="stop-color:#D64826"/>
			<stop  offset="0.618" style="stop-color:#C64327"/>
			<stop  offset="0.6292" style="stop-color:#C64127"/>
			<stop  offset="0.9831" style="stop-color:#CE4327"/>
		</linearGradient>
		
			<line fill="url(#SVGID_19_)" stroke="#404041" stroke-width="0.5" stroke-miterlimit="10" x1="25.616" y1="23.929" x2="26.236" y2="23.111"/>
		<linearGradient id="SVGID_20_" gradientUnits="userSpaceOnUse" x1="21.8789" y1="19.1182" x2="23.0352" y2="19.1182">
			<stop  offset="0" style="stop-color:#D64826"/>
			<stop  offset="0.618" style="stop-color:#C64327"/>
			<stop  offset="0.6292" style="stop-color:#C64127"/>
			<stop  offset="0.9831" style="stop-color:#CE4327"/>
		</linearGradient>
		
			<line fill="url(#SVGID_20_)" stroke="#404041" stroke-width="0.5" stroke-miterlimit="10" x1="23.035" y1="8.405" x2="21.879" y2="29.832"/>
		<linearGradient id="SVGID_21_" gradientUnits="userSpaceOnUse" x1="19.6543" y1="28.334" x2="22.0679" y2="28.334">
			<stop  offset="0" style="stop-color:#D64826"/>
			<stop  offset="0.618" style="stop-color:#C64327"/>
			<stop  offset="0.6292" style="stop-color:#C64127"/>
			<stop  offset="0.9831" style="stop-color:#CE4327"/>
		</linearGradient>
		
			<line fill="url(#SVGID_21_)" stroke="#404041" stroke-width="0.5" stroke-miterlimit="10" x1="19.654" y1="29.002" x2="22.068" y2="27.665"/>
		<linearGradient id="SVGID_22_" gradientUnits="userSpaceOnUse" x1="22.0679" y1="27.665" x2="27.1641" y2="27.665">
			<stop  offset="0" style="stop-color:#D64826"/>
			<stop  offset="0.618" style="stop-color:#C64327"/>
			<stop  offset="0.6292" style="stop-color:#C64127"/>
			<stop  offset="0.9831" style="stop-color:#CE4327"/>
		</linearGradient>
		
			<line fill="url(#SVGID_22_)" stroke="#404041" stroke-width="0.5" stroke-miterlimit="10" x1="22.068" y1="27.665" x2="27.164" y2="27.665"/>
		<linearGradient id="SVGID_23_" gradientUnits="userSpaceOnUse" x1="26.415" y1="28.334" x2="27.1641" y2="28.334">
			<stop  offset="0" style="stop-color:#D64826"/>
			<stop  offset="0.618" style="stop-color:#C64327"/>
			<stop  offset="0.6292" style="stop-color:#C64127"/>
			<stop  offset="0.9831" style="stop-color:#CE4327"/>
		</linearGradient>
		
			<line fill="url(#SVGID_23_)" stroke="#404041" stroke-width="0.5" stroke-miterlimit="10" x1="27.164" y1="27.665" x2="26.415" y2="29.002"/>
		<linearGradient id="SVGID_24_" gradientUnits="userSpaceOnUse" x1="21.2588" y1="18.8833" x2="22.481" y2="18.8833">
			<stop  offset="0" style="stop-color:#D64826"/>
			<stop  offset="0.618" style="stop-color:#C64327"/>
			<stop  offset="0.6292" style="stop-color:#C64127"/>
			<stop  offset="0.9831" style="stop-color:#CE4327"/>
		</linearGradient>
		
			<line fill="url(#SVGID_24_)" stroke="#404041" stroke-width="0.5" stroke-miterlimit="10" x1="21.259" y1="19.089" x2="22.481" y2="18.677"/>
		<linearGradient id="SVGID_25_" gradientUnits="userSpaceOnUse" x1="22.481" y1="18.6772" x2="25.2275" y2="18.6772">
			<stop  offset="0" style="stop-color:#D64826"/>
			<stop  offset="0.618" style="stop-color:#C64327"/>
			<stop  offset="0.6292" style="stop-color:#C64127"/>
			<stop  offset="0.9831" style="stop-color:#CE4327"/>
		</linearGradient>
		
			<line fill="url(#SVGID_25_)" stroke="#404041" stroke-width="0.5" stroke-miterlimit="10" x1="22.481" y1="18.677" x2="25.228" y2="18.677"/>
		<linearGradient id="SVGID_26_" gradientUnits="userSpaceOnUse" x1="24.813" y1="18.8833" x2="25.2275" y2="18.8833">
			<stop  offset="0" style="stop-color:#D64826"/>
			<stop  offset="0.618" style="stop-color:#C64327"/>
			<stop  offset="0.6292" style="stop-color:#C64127"/>
			<stop  offset="0.9831" style="stop-color:#CE4327"/>
		</linearGradient>
		
			<line fill="url(#SVGID_26_)" stroke="#404041" stroke-width="0.5" stroke-miterlimit="10" x1="25.228" y1="18.677" x2="24.813" y2="19.089"/>
		<linearGradient id="SVGID_27_" gradientUnits="userSpaceOnUse" x1="22.1191" y1="14.0957" x2="22.709" y2="14.0957">
			<stop  offset="0" style="stop-color:#D64826"/>
			<stop  offset="0.618" style="stop-color:#C64327"/>
			<stop  offset="0.6292" style="stop-color:#C64127"/>
			<stop  offset="0.9831" style="stop-color:#CE4327"/>
		</linearGradient>
		
			<line fill="url(#SVGID_27_)" stroke="#404041" stroke-width="0.5" stroke-miterlimit="10" x1="22.119" y1="14.188" x2="22.709" y2="14.004"/>
		<linearGradient id="SVGID_28_" gradientUnits="userSpaceOnUse" x1="22.709" y1="14.0039" x2="24.2397" y2="14.0039">
			<stop  offset="0" style="stop-color:#D64826"/>
			<stop  offset="0.618" style="stop-color:#C64327"/>
			<stop  offset="0.6292" style="stop-color:#C64127"/>
			<stop  offset="0.9831" style="stop-color:#CE4327"/>
		</linearGradient>
		
			<line fill="url(#SVGID_28_)" stroke="#404041" stroke-width="0.5" stroke-miterlimit="10" x1="22.709" y1="14.004" x2="24.24" y2="14.004"/>
		<linearGradient id="SVGID_29_" gradientUnits="userSpaceOnUse" x1="24.0273" y1="14.1143" x2="24.2397" y2="14.1143">
			<stop  offset="0" style="stop-color:#D64826"/>
			<stop  offset="0.618" style="stop-color:#C64327"/>
			<stop  offset="0.6292" style="stop-color:#C64127"/>
			<stop  offset="0.9831" style="stop-color:#CE4327"/>
		</linearGradient>
		
			<line fill="url(#SVGID_29_)" stroke="#404041" stroke-width="0.5" stroke-miterlimit="10" x1="24.027" y1="14.224" x2="24.24" y2="14.004"/>
	</g>
	<g clip-path="url(#SVGID_3_)">
		<line fill="#212413" stroke="#404041" stroke-miterlimit="10" x1="-1.274" y1="50.846" x2="9.813" y2="-15.833"/>
		<line fill="#212413" stroke="#404041" stroke-miterlimit="10" x1="0.905" y1="38.421" x2="18.717" y2="38.421"/>
		<line fill="#212413" stroke="#404041" stroke-miterlimit="10" x1="2.914" y1="25.057" x2="16.61" y2="25.057"/>
		<line fill="#212413" stroke="#404041" stroke-miterlimit="10" x1="7.263" y1="-0.504" x2="12.425" y2="-0.504"/>
		<line fill="#212413" stroke="#404041" stroke-miterlimit="10" x1="5.131" y1="12.316" x2="14.72" y2="12.316"/>
		<line fill="#212413" stroke="#404041" stroke-miterlimit="10" x1="20.897" y1="50.846" x2="9.813" y2="-15.833"/>
		<line fill="#212413" stroke="#404041" stroke-miterlimit="10" x1="0.905" y1="38.421" x2="7.589" y2="25.057"/>
		<line fill="#212413" stroke="#404041" stroke-miterlimit="10" x1="11.869" y1="25.057" x2="18.717" y2="38.421"/>
		<line fill="#212413" stroke="#404041" stroke-miterlimit="10" x1="2.914" y1="25.057" x2="8.645" y2="12.316"/>
		<line fill="#212413" stroke="#404041" stroke-miterlimit="10" x1="11.341" y1="12.316" x2="16.343" y2="25.057"/>
		<line fill="#212413" stroke="#404041" stroke-miterlimit="10" x1="5.131" y1="12.316" x2="9.114" y2="-0.504"/>
		<line fill="#212413" stroke="#404041" stroke-miterlimit="10" x1="10.521" y1="-0.504" x2="14.72" y2="12.316"/>
		<line fill="#212413" stroke="#404041" stroke-miterlimit="10" x1="2.914" y1="25.057" x2="7.589" y2="22.907"/>
		<line fill="#212413" stroke="#404041" stroke-miterlimit="10" x1="7.589" y1="22.907" x2="18.245" y2="22.907"/>
		<line fill="#212413" stroke="#404041" stroke-miterlimit="10" x1="9.813" y1="-15.833" x2="21.854" y2="40.607"/>
		<line fill="#212413" stroke="#404041" stroke-miterlimit="10" x1="16.61" y1="25.057" x2="18.245" y2="22.907"/>
		<line fill="#212413" stroke="#404041" stroke-miterlimit="10" x1="9.813" y1="-15.833" x2="6.77" y2="40.607"/>
		<line fill="#212413" stroke="#404041" stroke-miterlimit="10" x1="0.905" y1="38.421" x2="7.263" y2="34.903"/>
		<line fill="#212413" stroke="#404041" stroke-miterlimit="10" x1="7.263" y1="34.903" x2="20.683" y2="34.903"/>
		<line fill="#212413" stroke="#404041" stroke-miterlimit="10" x1="20.683" y1="34.903" x2="18.717" y2="38.421"/>
		<line fill="#212413" stroke="#404041" stroke-miterlimit="10" x1="5.131" y1="12.316" x2="8.354" y2="11.223"/>
		<line fill="#212413" stroke="#404041" stroke-miterlimit="10" x1="8.354" y1="11.223" x2="15.583" y2="11.223"/>
		<line fill="#212413" stroke="#404041" stroke-miterlimit="10" x1="15.583" y1="11.223" x2="14.492" y2="12.316"/>
		<line fill="#212413" stroke="#404041" stroke-miterlimit="10" x1="7.399" y1="-0.599" x2="8.953" y2="-1.083"/>
		<line fill="#212413" stroke="#404041" stroke-miterlimit="10" x1="8.953" y1="-1.083" x2="12.983" y2="-1.083"/>
		<line fill="#212413" stroke="#404041" stroke-miterlimit="10" x1="12.425" y1="-0.504" x2="12.983" y2="-1.083"/>
	</g>
	<use xlink:href="#SVGID_2_"  overflow="visible" fill="none" stroke="#404041" stroke-miterlimit="10"/>
</g>
<g>
	<defs>
		<path id="SVGID_30_" d="M47.393,24.156c0,12.896-10.46,23.358-23.359,23.358c-12.901,0-23.359-10.462-23.359-23.358
			c0-12.903,10.458-23.361,23.359-23.361C36.933,0.795,47.393,11.253,47.393,24.156z"/>
	</defs>
	<clipPath id="SVGID_31_">
		<use xlink:href="#SVGID_30_"  overflow="visible"/>
	</clipPath>
	<g clip-path="url(#SVGID_31_)">
		<path fill-rule="evenodd" clip-rule="evenodd" fill="#404041" d="M-6.423,59.979c-0.982,0.984-1.845-0.343-2.702-1.198l0,0
			c-0.859-0.851-1.96-1.475-0.979-2.465c0,0,13.587-13.157,11.457-11.012c-1.259,1.263,10.986-11.216,10.986-11.216
			c0.98-0.988,1.601-0.222,2.459,0.634l0,0c0.857,0.853,1.627,1.465,0.648,2.453c0,0-9.325,9.21-11.154,11.049
			C2.463,50.063-6.423,59.979-6.423,59.979z"/>
		<g>
			<path fill-rule="evenodd" clip-rule="evenodd" fill="#404041" d="M12.812,33.613c0.029-0.029-0.19,0.073-0.214,0.068
				c0.092-0.253,0.186-0.688,0.342-0.893c0.431-0.564,0.821-1.147,0.947-1.855c0.039-0.234,0.03-0.525-0.081-0.724
				c-0.542-0.979-1.276-1.802-2.197-2.45c-0.187-0.13-0.441-0.161-0.666-0.238c-0.062-0.023-0.14-0.031-0.178-0.072
				c-0.384-0.399-0.768-0.797-1.132-1.214c-0.049-0.055-0.026-0.233,0.025-0.316c0.916-1.394,2.046-2.57,3.536-3.372
				c0.268-0.145,0.439-0.126,0.617,0.119c0.116,0.164,0.273,0.298,0.413,0.445c0.31,0.33,0.523,0.708,0.738,1.119
				c0.637,1.217,1.52,2.212,2.971,2.515c0.22,0.047,0.459,0.179,0.612,0.342c1.396,1.469,2.792,2.934,4.149,4.435
				c1.396,1.545,1.897,3.419,1.825,5.462c-0.074,2.124-0.744,4.07-1.816,5.891c-0.059,0.099-0.158,0.174-0.237,0.26
				c-0.038-0.018-0.076-0.043-0.116-0.057c0.053-0.194,0.095-0.396,0.159-0.584c0.591-1.86,0.719-3.73-0.015-5.588
				c-0.473-1.188-1.327-2.02-2.556-2.419c-0.183-0.061-0.465-0.027-0.623,0.081c-0.924,0.633-1.824,1.301-2.732,1.954
				c0.362-0.264-0.596,0.367-0.52,0.326 M15.737,36.523 M11.113,27.166c0.294,0.159,0.497,0.237,0.669,0.361
				c0.945,0.679,1.723,1.519,2.272,2.541c0.149,0.279,0.21,0.716,0.101,0.997c-0.253,0.645-0.612,1.248-0.972,1.84
				c-0.157,0.256-0.225,0.401,0.025,0.646c0.896,0.877,1.773,1.773,2.64,2.682c0.217,0.224,0.352,0.216,0.602,0.029
				c0.929-0.692,1.879-1.36,2.832-2.018c0.138-0.094,0.378-0.161,0.514-0.107c0.505,0.21,1.042,0.408,1.475,0.729
				c1.356,0.988,1.861,2.445,1.968,4.042c0.054,0.801-0.028,1.61-0.047,2.396c0.819-1.856,1.24-3.809,0.958-5.868
				c-0.189-1.409-0.713-2.689-1.689-3.745c-1.318-1.424-2.641-2.846-3.985-4.255c-0.179-0.186-0.448-0.353-0.702-0.407
				c-0.547-0.114-1.009-0.354-1.432-0.708c-0.74-0.627-1.452-1.271-1.832-2.346C13.352,25.066,12.257,26.092,11.113,27.166z
				 M9.883,26.099c0.347,0.367,0.674,0.713,0.961,1.019c1.218-1.143,2.395-2.243,3.584-3.357c-0.284-0.305-0.621-0.666-0.957-1.019
				C11.939,23.518,10.826,24.676,9.883,26.099z"/>
			<path fill-rule="evenodd" clip-rule="evenodd" fill="#404041" d="M15.737,36.523"/>
			<path fill-rule="evenodd" clip-rule="evenodd" fill="#404041" d="M11.113,27.166c1.144-1.074,2.239-2.1,3.398-3.191
				c0.38,1.074,1.091,1.719,1.832,2.346c0.423,0.354,0.885,0.594,1.432,0.708c0.254,0.055,0.523,0.222,0.702,0.407
				c1.344,1.409,2.667,2.831,3.985,4.255c0.976,1.056,1.5,2.336,1.689,3.745c0.283,2.06-0.138,4.012-0.958,5.868
				c0.019-0.785,0.101-1.595,0.047-2.396c-0.106-1.597-0.611-3.054-1.968-4.042c-0.434-0.321-0.97-0.52-1.475-0.729
				c-0.136-0.054-0.376,0.014-0.514,0.107c-0.953,0.657-1.903,1.325-2.832,2.018c-0.25,0.187-0.385,0.194-0.602-0.029
				c-0.867-0.908-1.744-1.805-2.64-2.682c-0.25-0.244-0.182-0.39-0.025-0.646c0.36-0.592,0.719-1.195,0.972-1.84
				c0.109-0.281,0.048-0.718-0.101-0.997c-0.55-1.022-1.327-1.862-2.272-2.541C11.61,27.403,11.407,27.325,11.113,27.166z"/>
			<path fill-rule="evenodd" clip-rule="evenodd" fill="#404041" d="M9.883,26.099c0.943-1.423,2.057-2.581,3.589-3.357
				c0.335,0.353,0.673,0.714,0.957,1.019c-1.19,1.114-2.367,2.215-3.584,3.357C10.557,26.812,10.229,26.466,9.883,26.099z"/>
		</g>
		<path fill-rule="evenodd" clip-rule="evenodd" fill="#404041" d="M15.743,36.972"/>
		<polygon fill-rule="evenodd" clip-rule="evenodd" fill="#404041" points="15.776,36.844 16.061,36.848 16.16,36.634 
			15.989,36.461 		"/>
	</g>
	<g clip-path="url(#SVGID_31_)">
		<defs>
			<path id="SVGID_32_" d="M49.083,16.226c0,9.456-7.667,17.127-17.125,17.127c-9.462,0-17.128-7.672-17.128-17.127
				C14.83,6.77,22.496-0.9,31.958-0.9C41.416-0.9,49.083,6.77,49.083,16.226z"/>
		</defs>
		<clipPath id="SVGID_33_">
			<use xlink:href="#SVGID_32_"  overflow="visible"/>
		</clipPath>
		<g clip-path="url(#SVGID_33_)">
			<path fill-rule="evenodd" clip-rule="evenodd" fill="#404041" d="M44.2,13.789c0.39-0.255,0.788-0.519,1.206-0.793
				C60.575,2.902,60.815-13.852,60.815-13.852s-16.74,0.777-26.342,16.26c-0.267,0.428-0.51,0.829-0.755,1.228l-11.146-0.29
				L21.309,7.54l5.907,0.302l-4.757,4.91l6.784-1.078c-0.786,1.726-0.903,2.502-0.753,2.796l-0.002,0.004l0.008,0.006l0.126,0.119
				l0,0l2.38,2.333l0.16,0.132l2.244,2.173c0.026,0.05,0.067,0.092,0.129,0.125l0.009,0.008l0.004-0.004
				c0.304,0.14,1.07-0.004,2.766-0.843l-0.863,6.816l4.756-4.913l0.488,5.892l4.153-1.398L44.2,13.789z"/>
			<path fill-rule="evenodd" clip-rule="evenodd" fill="#F37825" d="M21.44,25.353c0.064-2.163,0.376-4.27,1.278-6.268
				c0.628-1.39,1.543-2.556,2.713-3.532c0.143-0.123,0.212-0.147,0.338,0.031c0.237,0.345,0.326,0.606,0.034,1.024
				c-0.847,1.216-1.223,2.631-1.452,4.082c-0.151,0.947-0.206,1.908-0.181,2.869c0.004,0.297,0.078,0.432,0.411,0.42
				c2.565-0.067,5.024-0.489,7.172-2.025c0.17-0.115,0.828,0.088,0.904,0.284c0.051,0.13-0.08,0.181-0.144,0.257
				c-1.515,1.995-3.583,3.111-5.961,3.728c-1.537,0.396-3.107,0.564-4.694,0.563c-0.293,0.002-0.426-0.064-0.407-0.375
				C21.468,26.057,21.444,25.703,21.44,25.353z"/>
			<path fill-rule="evenodd" clip-rule="evenodd" fill="#EE3E23" d="M25.291,21.922c0.038-1.348,0.235-2.666,0.798-3.911
				c0.395-0.865,0.961-1.598,1.693-2.208c0.089-0.075,0.131-0.092,0.21,0.021c0.149,0.217,0.203,0.379,0.023,0.641
				c-0.53,0.759-0.763,1.639-0.907,2.544c-0.096,0.595-0.126,1.189-0.11,1.792c0,0.187,0.048,0.267,0.255,0.263
				c1.6-0.042,3.135-0.305,4.476-1.264c0.107-0.077,0.519,0.053,0.564,0.176c0.032,0.082-0.05,0.113-0.087,0.164
				c-0.946,1.244-2.241,1.941-3.721,2.322c-0.964,0.249-1.942,0.355-2.934,0.353c-0.181,0.002-0.265-0.039-0.255-0.234
				C25.309,22.363,25.293,22.145,25.291,21.922z"/>
			<g>
				
					<linearGradient id="SVGID_34_" gradientUnits="userSpaceOnUse" x1="-190.1533" y1="-290.6763" x2="-190.1533" y2="-296.9414" gradientTransform="matrix(0.7183 0.6957 -0.6957 0.7183 -17.5918 340.002)">
					<stop  offset="0.0099" style="stop-color:#26A9E0"/>
					<stop  offset="1" style="stop-color:#F1F1F2"/>
				</linearGradient>
				<path fill="url(#SVGID_34_)" d="M52.466-1.162c-1.202,1.243-3.187,1.275-4.428,0.071c-1.245-1.204-1.273-3.188-0.071-4.427
					c1.204-1.246,3.188-1.276,4.429-0.074C53.639-4.387,53.668-2.404,52.466-1.162z"/>
				<path opacity="0.24" fill="url(#Arrows_Dark)" d="M52.466-1.162c-1.202,1.243-3.187,1.275-4.428,0.071
					c-1.245-1.204-1.273-3.188-0.071-4.427c1.204-1.246,3.188-1.276,4.429-0.074C53.639-4.387,53.668-2.404,52.466-1.162z"/>
				
					<radialGradient id="SVGID_35_" cx="-189.2446" cy="-291.7036" r="4.711" gradientTransform="matrix(0.7183 0.6957 -0.3397 0.3508 86.2491 232.7826)" gradientUnits="userSpaceOnUse">
					<stop  offset="0.8111" style="stop-color:#28AAE1;stop-opacity:0"/>
					<stop  offset="0.8802" style="stop-color:#7BCBED;stop-opacity:0.3331"/>
					<stop  offset="0.9627" style="stop-color:#D9F0FA;stop-opacity:0.7305"/>
					<stop  offset="1" style="stop-color:#FFFFFF;stop-opacity:0.91"/>
				</radialGradient>
				<path opacity="0.56" fill="url(#SVGID_35_)" d="M52.466-1.162c-1.202,1.243-3.187,1.275-4.428,0.071
					c-1.245-1.204-1.273-3.188-0.071-4.427c1.204-1.246,3.188-1.276,4.429-0.074C53.639-4.387,53.668-2.404,52.466-1.162z"/>
			</g>
		</g>
	</g>
</g>
</svg>
