<?xml version="1.0" encoding="utf-8"?>
<!-- Generator: Adobe Illustrator 16.0.0, SVG Export Plug-In . SVG Version: 6.00 Build 0)  -->
<!DOCTYPE svg PUBLIC "-//W3C//DTD SVG 1.0//EN" "http://www.w3.org/TR/2001/REC-SVG-20010904/DTD/svg10.dtd">
<svg version="1.0" id="Layer_1" xmlns="http://www.w3.org/2000/svg" xmlns:xlink="http://www.w3.org/1999/xlink" x="0px" y="0px"
	 width="48px" height="48px" viewBox="0 0 48 48" enable-background="new 0 0 48 48" xml:space="preserve">
<pattern  width="37.971" height="41.93" patternUnits="userSpaceOnUse" id="Arrows_Dark" viewBox="0 -41.93 37.971 41.93" overflow="visible">
	<g>
		<polygon fill="none" points="0,0 37.971,0 37.971,-41.93 0,-41.93 		"/>
		
			<linearGradient id="SVGID_1_" gradientUnits="userSpaceOnUse" x1="6893.2358" y1="-8021.2764" x2="6893.2358" y2="-8063.2061" gradientTransform="matrix(1 0 0 -1 -6874.25 -8063.2061)">
			<stop  offset="0" style="stop-color:#454B52"/>
			<stop  offset="0.8598" style="stop-color:#4E565E"/>
			<stop  offset="1" style="stop-color:#505861"/>
		</linearGradient>
		<path fill="url(#SVGID_1_)" d="M26.715-31.444L15.457-41.93v9.345H1.188C0.532-32.585,0-31.934,0-31.133v20.336
			c0,0.803,0.532,1.451,1.188,1.451h14.269V0l11.258-10.48l11.256-10.482L26.715-31.444z"/>
	</g>
</pattern>
<path fill="#FCE786" d="M47.214,24.025c0,12.88-10.446,23.327-23.329,23.327c-12.883,0-23.327-10.446-23.327-23.327
	c0-12.886,10.443-23.331,23.327-23.331C36.768,0.694,47.214,11.139,47.214,24.025z"/>
<g opacity="0.3">
	<defs>
		<path id="SVGID_2_" opacity="0.3" d="M47.395,24.025c0,12.88-10.443,23.327-23.327,23.327c-12.884,0-23.329-10.446-23.329-23.327
			c0-12.886,10.445-23.331,23.329-23.331C36.951,0.694,47.395,11.139,47.395,24.025z"/>
	</defs>
	<clipPath id="SVGID_3_">
		<use xlink:href="#SVGID_2_"  overflow="visible"/>
	</clipPath>
	<g clip-path="url(#SVGID_3_)">
		<line fill="#C01E58" stroke="#716558" stroke-miterlimit="10" x1="27.451" y1="53.946" x2="35.781" y2="3.832"/>
		<line fill="#C01E58" stroke="#716558" stroke-miterlimit="10" x1="29.089" y1="44.608" x2="42.476" y2="44.608"/>
		<line fill="#C01E58" stroke="#716558" stroke-miterlimit="10" x1="30.599" y1="34.563" x2="40.89" y2="34.563"/>
		<line fill="#C01E58" stroke="#716558" stroke-miterlimit="10" x1="33.865" y1="15.354" x2="37.746" y2="15.354"/>
		<line fill="#C01E58" stroke="#716558" stroke-miterlimit="10" x1="32.265" y1="24.99" x2="39.469" y2="24.99"/>
		<line fill="#C01E58" stroke="#716558" stroke-miterlimit="10" x1="44.114" y1="53.946" x2="35.781" y2="3.832"/>
		<line fill="#C01E58" stroke="#716558" stroke-miterlimit="10" x1="29.089" y1="44.608" x2="34.114" y2="34.563"/>
		<line fill="#C01E58" stroke="#716558" stroke-miterlimit="10" x1="37.329" y1="34.563" x2="42.476" y2="44.608"/>
		<line fill="#C01E58" stroke="#716558" stroke-miterlimit="10" x1="30.599" y1="34.563" x2="34.903" y2="24.99"/>
		<line fill="#C01E58" stroke="#716558" stroke-miterlimit="10" x1="36.933" y1="24.99" x2="40.691" y2="34.563"/>
		<line fill="#C01E58" stroke="#716558" stroke-miterlimit="10" x1="32.265" y1="24.99" x2="35.259" y2="15.354"/>
		<line fill="#C01E58" stroke="#716558" stroke-miterlimit="10" x1="36.314" y1="15.354" x2="39.469" y2="24.99"/>
		<line fill="#C01E58" stroke="#716558" stroke-miterlimit="10" x1="30.599" y1="34.563" x2="34.114" y2="32.946"/>
		<line fill="#C01E58" stroke="#716558" stroke-miterlimit="10" x1="34.114" y1="32.946" x2="42.12" y2="32.946"/>
		<line fill="#C01E58" stroke="#716558" stroke-miterlimit="10" x1="35.781" y1="3.832" x2="44.833" y2="46.251"/>
		<line fill="#C01E58" stroke="#716558" stroke-miterlimit="10" x1="40.89" y1="34.563" x2="42.12" y2="32.946"/>
		<line fill="#C01E58" stroke="#716558" stroke-miterlimit="10" x1="35.781" y1="3.832" x2="33.494" y2="46.251"/>
		<line fill="#C01E58" stroke="#716558" stroke-miterlimit="10" x1="29.089" y1="44.608" x2="33.865" y2="41.964"/>
		<line fill="#C01E58" stroke="#716558" stroke-miterlimit="10" x1="33.865" y1="41.964" x2="43.952" y2="41.964"/>
		<line fill="#C01E58" stroke="#716558" stroke-miterlimit="10" x1="43.952" y1="41.964" x2="42.476" y2="44.608"/>
		<line fill="#C01E58" stroke="#716558" stroke-miterlimit="10" x1="32.265" y1="24.99" x2="34.688" y2="24.167"/>
		<line fill="#C01E58" stroke="#716558" stroke-miterlimit="10" x1="34.688" y1="24.167" x2="40.12" y2="24.167"/>
		<line fill="#C01E58" stroke="#716558" stroke-miterlimit="10" x1="40.12" y1="24.167" x2="39.298" y2="24.99"/>
		<line fill="#C01E58" stroke="#716558" stroke-miterlimit="10" x1="33.966" y1="15.28" x2="35.136" y2="14.919"/>
		<line fill="#C01E58" stroke="#716558" stroke-miterlimit="10" x1="35.136" y1="14.919" x2="38.164" y2="14.919"/>
		<line fill="#C01E58" stroke="#716558" stroke-miterlimit="10" x1="37.746" y1="15.354" x2="38.164" y2="14.919"/>
	</g>
	<g clip-path="url(#SVGID_3_)">
		<linearGradient id="SVGID_4_" gradientUnits="userSpaceOnUse" x1="18.8667" y1="21.1147" x2="23.0708" y2="21.1147">
			<stop  offset="0" style="stop-color:#D64826"/>
			<stop  offset="0.618" style="stop-color:#C64327"/>
			<stop  offset="0.6292" style="stop-color:#C64127"/>
			<stop  offset="0.9831" style="stop-color:#CE4327"/>
		</linearGradient>
		
			<line fill="url(#SVGID_4_)" stroke="#716558" stroke-width="0.5" stroke-miterlimit="10" x1="18.867" y1="33.755" x2="23.071" y2="8.475"/>
		<linearGradient id="SVGID_5_" gradientUnits="userSpaceOnUse" x1="19.6934" y1="29.043" x2="26.4453" y2="29.043">
			<stop  offset="0" style="stop-color:#D64826"/>
			<stop  offset="0.618" style="stop-color:#C64327"/>
			<stop  offset="0.6292" style="stop-color:#C64127"/>
			<stop  offset="0.9831" style="stop-color:#CE4327"/>
		</linearGradient>
		
			<line fill="url(#SVGID_5_)" stroke="#716558" stroke-width="0.5" stroke-miterlimit="10" x1="19.693" y1="29.043" x2="26.445" y2="29.043"/>
		<linearGradient id="SVGID_6_" gradientUnits="userSpaceOnUse" x1="20.4565" y1="23.9771" x2="25.6475" y2="23.9771">
			<stop  offset="0" style="stop-color:#D64826"/>
			<stop  offset="0.618" style="stop-color:#C64327"/>
			<stop  offset="0.6292" style="stop-color:#C64127"/>
			<stop  offset="0.9831" style="stop-color:#CE4327"/>
		</linearGradient>
		
			<line fill="url(#SVGID_6_)" stroke="#716558" stroke-width="0.5" stroke-miterlimit="10" x1="20.457" y1="23.977" x2="25.647" y2="23.977"/>
		<linearGradient id="SVGID_7_" gradientUnits="userSpaceOnUse" x1="22.104" y1="14.2876" x2="24.061" y2="14.2876">
			<stop  offset="0" style="stop-color:#D64826"/>
			<stop  offset="0.618" style="stop-color:#C64327"/>
			<stop  offset="0.6292" style="stop-color:#C64127"/>
			<stop  offset="0.9831" style="stop-color:#CE4327"/>
		</linearGradient>
		
			<line fill="url(#SVGID_7_)" stroke="#716558" stroke-width="0.5" stroke-miterlimit="10" x1="22.104" y1="14.288" x2="24.061" y2="14.288"/>
		<linearGradient id="SVGID_8_" gradientUnits="userSpaceOnUse" x1="21.2954" y1="19.147" x2="24.9302" y2="19.147">
			<stop  offset="0" style="stop-color:#D64826"/>
			<stop  offset="0.618" style="stop-color:#C64327"/>
			<stop  offset="0.6292" style="stop-color:#C64127"/>
			<stop  offset="0.9831" style="stop-color:#CE4327"/>
		</linearGradient>
		
			<line fill="url(#SVGID_8_)" stroke="#716558" stroke-width="0.5" stroke-miterlimit="10" x1="21.295" y1="19.147" x2="24.93" y2="19.147"/>
		<linearGradient id="SVGID_9_" gradientUnits="userSpaceOnUse" x1="23.0708" y1="21.1147" x2="27.2725" y2="21.1147">
			<stop  offset="0" style="stop-color:#D64826"/>
			<stop  offset="0.618" style="stop-color:#C64327"/>
			<stop  offset="0.6292" style="stop-color:#C64127"/>
			<stop  offset="0.9831" style="stop-color:#CE4327"/>
		</linearGradient>
		
			<line fill="url(#SVGID_9_)" stroke="#716558" stroke-width="0.5" stroke-miterlimit="10" x1="27.272" y1="33.755" x2="23.071" y2="8.475"/>
		<linearGradient id="SVGID_10_" gradientUnits="userSpaceOnUse" x1="19.6934" y1="26.5098" x2="22.228" y2="26.5098">
			<stop  offset="0" style="stop-color:#D64826"/>
			<stop  offset="0.618" style="stop-color:#C64327"/>
			<stop  offset="0.6292" style="stop-color:#C64127"/>
			<stop  offset="0.9831" style="stop-color:#CE4327"/>
		</linearGradient>
		
			<line fill="url(#SVGID_10_)" stroke="#716558" stroke-width="0.5" stroke-miterlimit="10" x1="19.693" y1="29.043" x2="22.228" y2="23.977"/>
		<linearGradient id="SVGID_11_" gradientUnits="userSpaceOnUse" x1="23.8506" y1="26.5098" x2="26.4453" y2="26.5098">
			<stop  offset="0" style="stop-color:#D64826"/>
			<stop  offset="0.618" style="stop-color:#C64327"/>
			<stop  offset="0.6292" style="stop-color:#C64127"/>
			<stop  offset="0.9831" style="stop-color:#CE4327"/>
		</linearGradient>
		
			<line fill="url(#SVGID_11_)" stroke="#716558" stroke-width="0.5" stroke-miterlimit="10" x1="23.851" y1="23.977" x2="26.445" y2="29.043"/>
		<linearGradient id="SVGID_12_" gradientUnits="userSpaceOnUse" x1="20.4565" y1="21.562" x2="22.6279" y2="21.562">
			<stop  offset="0" style="stop-color:#D64826"/>
			<stop  offset="0.618" style="stop-color:#C64327"/>
			<stop  offset="0.6292" style="stop-color:#C64127"/>
			<stop  offset="0.9831" style="stop-color:#CE4327"/>
		</linearGradient>
		
			<line fill="url(#SVGID_12_)" stroke="#716558" stroke-width="0.5" stroke-miterlimit="10" x1="20.457" y1="23.977" x2="22.628" y2="19.147"/>
		<linearGradient id="SVGID_13_" gradientUnits="userSpaceOnUse" x1="23.6494" y1="21.562" x2="25.5469" y2="21.562">
			<stop  offset="0" style="stop-color:#D64826"/>
			<stop  offset="0.618" style="stop-color:#C64327"/>
			<stop  offset="0.6292" style="stop-color:#C64127"/>
			<stop  offset="0.9831" style="stop-color:#CE4327"/>
		</linearGradient>
		
			<line fill="url(#SVGID_13_)" stroke="#716558" stroke-width="0.5" stroke-miterlimit="10" x1="23.649" y1="19.147" x2="25.547" y2="23.977"/>
		<linearGradient id="SVGID_14_" gradientUnits="userSpaceOnUse" x1="21.2954" y1="16.7173" x2="22.8047" y2="16.7173">
			<stop  offset="0" style="stop-color:#D64826"/>
			<stop  offset="0.618" style="stop-color:#C64327"/>
			<stop  offset="0.6292" style="stop-color:#C64127"/>
			<stop  offset="0.9831" style="stop-color:#CE4327"/>
		</linearGradient>
		
			<line fill="url(#SVGID_14_)" stroke="#716558" stroke-width="0.5" stroke-miterlimit="10" x1="21.295" y1="19.147" x2="22.805" y2="14.288"/>
		<linearGradient id="SVGID_15_" gradientUnits="userSpaceOnUse" x1="23.3389" y1="16.7173" x2="24.9302" y2="16.7173">
			<stop  offset="0" style="stop-color:#D64826"/>
			<stop  offset="0.618" style="stop-color:#C64327"/>
			<stop  offset="0.6292" style="stop-color:#C64127"/>
			<stop  offset="0.9831" style="stop-color:#CE4327"/>
		</linearGradient>
		
			<line fill="url(#SVGID_15_)" stroke="#716558" stroke-width="0.5" stroke-miterlimit="10" x1="23.339" y1="14.288" x2="24.93" y2="19.147"/>
		<linearGradient id="SVGID_16_" gradientUnits="userSpaceOnUse" x1="20.4565" y1="23.5693" x2="22.228" y2="23.5693">
			<stop  offset="0" style="stop-color:#D64826"/>
			<stop  offset="0.618" style="stop-color:#C64327"/>
			<stop  offset="0.6292" style="stop-color:#C64127"/>
			<stop  offset="0.9831" style="stop-color:#CE4327"/>
		</linearGradient>
		
			<line fill="url(#SVGID_16_)" stroke="#716558" stroke-width="0.5" stroke-miterlimit="10" x1="20.457" y1="23.977" x2="22.228" y2="23.161"/>
		<linearGradient id="SVGID_17_" gradientUnits="userSpaceOnUse" x1="22.228" y1="23.1611" x2="26.2666" y2="23.1611">
			<stop  offset="0" style="stop-color:#D64826"/>
			<stop  offset="0.618" style="stop-color:#C64327"/>
			<stop  offset="0.6292" style="stop-color:#C64127"/>
			<stop  offset="0.9831" style="stop-color:#CE4327"/>
		</linearGradient>
		
			<line fill="url(#SVGID_17_)" stroke="#716558" stroke-width="0.5" stroke-miterlimit="10" x1="22.228" y1="23.161" x2="26.267" y2="23.161"/>
		<linearGradient id="SVGID_18_" gradientUnits="userSpaceOnUse" x1="23.0708" y1="19.1738" x2="27.6367" y2="19.1738">
			<stop  offset="0" style="stop-color:#D64826"/>
			<stop  offset="0.618" style="stop-color:#C64327"/>
			<stop  offset="0.6292" style="stop-color:#C64127"/>
			<stop  offset="0.9831" style="stop-color:#CE4327"/>
		</linearGradient>
		
			<line fill="url(#SVGID_18_)" stroke="#716558" stroke-width="0.5" stroke-miterlimit="10" x1="23.071" y1="8.475" x2="27.637" y2="29.873"/>
		<linearGradient id="SVGID_19_" gradientUnits="userSpaceOnUse" x1="25.6475" y1="23.5693" x2="26.2666" y2="23.5693">
			<stop  offset="0" style="stop-color:#D64826"/>
			<stop  offset="0.618" style="stop-color:#C64327"/>
			<stop  offset="0.6292" style="stop-color:#C64127"/>
			<stop  offset="0.9831" style="stop-color:#CE4327"/>
		</linearGradient>
		
			<line fill="url(#SVGID_19_)" stroke="#716558" stroke-width="0.5" stroke-miterlimit="10" x1="25.647" y1="23.977" x2="26.267" y2="23.161"/>
		<linearGradient id="SVGID_20_" gradientUnits="userSpaceOnUse" x1="21.916" y1="19.1738" x2="23.0708" y2="19.1738">
			<stop  offset="0" style="stop-color:#D64826"/>
			<stop  offset="0.618" style="stop-color:#C64327"/>
			<stop  offset="0.6292" style="stop-color:#C64127"/>
			<stop  offset="0.9831" style="stop-color:#CE4327"/>
		</linearGradient>
		
			<line fill="url(#SVGID_20_)" stroke="#716558" stroke-width="0.5" stroke-miterlimit="10" x1="23.071" y1="8.475" x2="21.916" y2="29.873"/>
		<linearGradient id="SVGID_21_" gradientUnits="userSpaceOnUse" x1="19.6934" y1="28.377" x2="22.104" y2="28.377">
			<stop  offset="0" style="stop-color:#D64826"/>
			<stop  offset="0.618" style="stop-color:#C64327"/>
			<stop  offset="0.6292" style="stop-color:#C64127"/>
			<stop  offset="0.9831" style="stop-color:#CE4327"/>
		</linearGradient>
		
			<line fill="url(#SVGID_21_)" stroke="#716558" stroke-width="0.5" stroke-miterlimit="10" x1="19.693" y1="29.043" x2="22.104" y2="27.71"/>
		<linearGradient id="SVGID_22_" gradientUnits="userSpaceOnUse" x1="22.104" y1="27.71" x2="27.1924" y2="27.71">
			<stop  offset="0" style="stop-color:#D64826"/>
			<stop  offset="0.618" style="stop-color:#C64327"/>
			<stop  offset="0.6292" style="stop-color:#C64127"/>
			<stop  offset="0.9831" style="stop-color:#CE4327"/>
		</linearGradient>
		
			<line fill="url(#SVGID_22_)" stroke="#716558" stroke-width="0.5" stroke-miterlimit="10" x1="22.104" y1="27.71" x2="27.192" y2="27.71"/>
		<linearGradient id="SVGID_23_" gradientUnits="userSpaceOnUse" x1="26.4453" y1="28.377" x2="27.1924" y2="28.377">
			<stop  offset="0" style="stop-color:#D64826"/>
			<stop  offset="0.618" style="stop-color:#C64327"/>
			<stop  offset="0.6292" style="stop-color:#C64127"/>
			<stop  offset="0.9831" style="stop-color:#CE4327"/>
		</linearGradient>
		
			<line fill="url(#SVGID_23_)" stroke="#716558" stroke-width="0.5" stroke-miterlimit="10" x1="27.192" y1="27.71" x2="26.445" y2="29.043"/>
		<linearGradient id="SVGID_24_" gradientUnits="userSpaceOnUse" x1="21.2954" y1="18.9399" x2="22.5166" y2="18.9399">
			<stop  offset="0" style="stop-color:#D64826"/>
			<stop  offset="0.618" style="stop-color:#C64327"/>
			<stop  offset="0.6292" style="stop-color:#C64127"/>
			<stop  offset="0.9831" style="stop-color:#CE4327"/>
		</linearGradient>
		
			<line fill="url(#SVGID_24_)" stroke="#716558" stroke-width="0.5" stroke-miterlimit="10" x1="21.295" y1="19.147" x2="22.517" y2="18.733"/>
		<linearGradient id="SVGID_25_" gradientUnits="userSpaceOnUse" x1="22.5166" y1="18.7329" x2="25.2588" y2="18.7329">
			<stop  offset="0" style="stop-color:#D64826"/>
			<stop  offset="0.618" style="stop-color:#C64327"/>
			<stop  offset="0.6292" style="stop-color:#C64127"/>
			<stop  offset="0.9831" style="stop-color:#CE4327"/>
		</linearGradient>
		
			<line fill="url(#SVGID_25_)" stroke="#716558" stroke-width="0.5" stroke-miterlimit="10" x1="22.517" y1="18.733" x2="25.259" y2="18.733"/>
		<linearGradient id="SVGID_26_" gradientUnits="userSpaceOnUse" x1="24.8438" y1="18.9399" x2="25.2588" y2="18.9399">
			<stop  offset="0" style="stop-color:#D64826"/>
			<stop  offset="0.618" style="stop-color:#C64327"/>
			<stop  offset="0.6292" style="stop-color:#C64127"/>
			<stop  offset="0.9831" style="stop-color:#CE4327"/>
		</linearGradient>
		
			<line fill="url(#SVGID_26_)" stroke="#716558" stroke-width="0.5" stroke-miterlimit="10" x1="25.259" y1="18.733" x2="24.844" y2="19.147"/>
		<linearGradient id="SVGID_27_" gradientUnits="userSpaceOnUse" x1="22.1558" y1="14.1572" x2="22.7432" y2="14.1572">
			<stop  offset="0" style="stop-color:#D64826"/>
			<stop  offset="0.618" style="stop-color:#C64327"/>
			<stop  offset="0.6292" style="stop-color:#C64127"/>
			<stop  offset="0.9831" style="stop-color:#CE4327"/>
		</linearGradient>
		
			<line fill="url(#SVGID_27_)" stroke="#716558" stroke-width="0.5" stroke-miterlimit="10" x1="22.156" y1="14.25" x2="22.743" y2="14.065"/>
		<linearGradient id="SVGID_28_" gradientUnits="userSpaceOnUse" x1="22.7432" y1="14.0654" x2="24.272" y2="14.0654">
			<stop  offset="0" style="stop-color:#D64826"/>
			<stop  offset="0.618" style="stop-color:#C64327"/>
			<stop  offset="0.6292" style="stop-color:#C64127"/>
			<stop  offset="0.9831" style="stop-color:#CE4327"/>
		</linearGradient>
		
			<line fill="url(#SVGID_28_)" stroke="#716558" stroke-width="0.5" stroke-miterlimit="10" x1="22.743" y1="14.065" x2="24.272" y2="14.065"/>
		<linearGradient id="SVGID_29_" gradientUnits="userSpaceOnUse" x1="24.061" y1="14.1768" x2="24.272" y2="14.1768">
			<stop  offset="0" style="stop-color:#D64826"/>
			<stop  offset="0.618" style="stop-color:#C64327"/>
			<stop  offset="0.6292" style="stop-color:#C64127"/>
			<stop  offset="0.9831" style="stop-color:#CE4327"/>
		</linearGradient>
		
			<line fill="url(#SVGID_29_)" stroke="#716558" stroke-width="0.5" stroke-miterlimit="10" x1="24.061" y1="14.288" x2="24.272" y2="14.065"/>
	</g>
	<g clip-path="url(#SVGID_3_)">
		<line fill="#212413" stroke="#716558" stroke-miterlimit="10" x1="-1.208" y1="50.858" x2="9.864" y2="-15.729"/>
		<line fill="#212413" stroke="#716558" stroke-miterlimit="10" x1="0.969" y1="38.45" x2="18.759" y2="38.45"/>
		<line fill="#212413" stroke="#716558" stroke-miterlimit="10" x1="2.978" y1="25.104" x2="16.653" y2="25.104"/>
		<line fill="#212413" stroke="#716558" stroke-miterlimit="10" x1="7.318" y1="-0.418" x2="12.473" y2="-0.418"/>
		<line fill="#212413" stroke="#716558" stroke-miterlimit="10" x1="5.189" y1="12.38" x2="14.764" y2="12.38"/>
		<line fill="#212413" stroke="#716558" stroke-miterlimit="10" x1="20.935" y1="50.858" x2="9.864" y2="-15.729"/>
		<line fill="#212413" stroke="#716558" stroke-miterlimit="10" x1="0.969" y1="38.45" x2="7.645" y2="25.104"/>
		<line fill="#212413" stroke="#716558" stroke-miterlimit="10" x1="11.918" y1="25.104" x2="18.759" y2="38.45"/>
		<line fill="#212413" stroke="#716558" stroke-miterlimit="10" x1="2.978" y1="25.104" x2="8.698" y2="12.38"/>
		<line fill="#212413" stroke="#716558" stroke-miterlimit="10" x1="11.393" y1="12.38" x2="16.388" y2="25.104"/>
		<line fill="#212413" stroke="#716558" stroke-miterlimit="10" x1="5.189" y1="12.38" x2="9.167" y2="-0.418"/>
		<line fill="#212413" stroke="#716558" stroke-miterlimit="10" x1="10.571" y1="-0.418" x2="14.764" y2="12.38"/>
		<line fill="#212413" stroke="#716558" stroke-miterlimit="10" x1="2.978" y1="25.104" x2="7.645" y2="22.956"/>
		<line fill="#212413" stroke="#716558" stroke-miterlimit="10" x1="7.645" y1="22.956" x2="18.285" y2="22.956"/>
		<line fill="#212413" stroke="#716558" stroke-miterlimit="10" x1="9.864" y1="-15.729" x2="21.89" y2="40.634"/>
		<line fill="#212413" stroke="#716558" stroke-miterlimit="10" x1="16.653" y1="25.104" x2="18.285" y2="22.956"/>
		<line fill="#212413" stroke="#716558" stroke-miterlimit="10" x1="9.864" y1="-15.729" x2="6.825" y2="40.634"/>
		<line fill="#212413" stroke="#716558" stroke-miterlimit="10" x1="0.969" y1="38.45" x2="7.318" y2="34.938"/>
		<line fill="#212413" stroke="#716558" stroke-miterlimit="10" x1="7.318" y1="34.938" x2="20.722" y2="34.938"/>
		<line fill="#212413" stroke="#716558" stroke-miterlimit="10" x1="20.722" y1="34.938" x2="18.759" y2="38.45"/>
		<line fill="#212413" stroke="#716558" stroke-miterlimit="10" x1="5.189" y1="12.38" x2="8.408" y2="11.29"/>
		<line fill="#212413" stroke="#716558" stroke-miterlimit="10" x1="8.408" y1="11.29" x2="15.628" y2="11.29"/>
		<line fill="#212413" stroke="#716558" stroke-miterlimit="10" x1="15.628" y1="11.29" x2="14.538" y2="12.38"/>
		<line fill="#212413" stroke="#716558" stroke-miterlimit="10" x1="7.455" y1="-0.518" x2="9.007" y2="-0.999"/>
		<line fill="#212413" stroke="#716558" stroke-miterlimit="10" x1="9.007" y1="-0.999" x2="13.033" y2="-0.999"/>
		<line fill="#212413" stroke="#716558" stroke-miterlimit="10" x1="12.473" y1="-0.418" x2="13.033" y2="-0.999"/>
	</g>
	<use xlink:href="#SVGID_2_"  overflow="visible" fill="none" stroke="#716558" stroke-miterlimit="10"/>
</g>
<g>
	<defs>
		<path id="SVGID_30_" d="M47.214,24.025c0,12.88-10.446,23.327-23.329,23.327c-12.883,0-23.327-10.446-23.327-23.327
			c0-12.886,10.443-23.331,23.327-23.331C36.768,0.694,47.214,11.139,47.214,24.025z"/>
	</defs>
	<clipPath id="SVGID_31_">
		<use xlink:href="#SVGID_30_"  overflow="visible"/>
	</clipPath>
	<g clip-path="url(#SVGID_31_)">
		<path fill-rule="evenodd" clip-rule="evenodd" fill="#404041" d="M40.563,20.704c0.531-0.349,1.074-0.705,1.641-1.081
			C62.865,5.877,63.189-16.941,63.189-16.941S40.391-15.889,27.316,5.203c-0.363,0.582-0.698,1.128-1.028,1.672L11.106,6.481
			l-1.724,5.713l8.044,0.41l-6.48,6.688l9.243-1.471c-1.07,2.352-1.231,3.409-1.024,3.812l-0.004,0.002l0.01,0.01l0.172,0.166l0,0
			l3.24,3.174l0.221,0.178l3.054,2.959c0.034,0.066,0.092,0.126,0.179,0.17l0.01,0.012l0.005-0.006
			c0.412,0.189,1.461-0.008,3.767-1.149l-1.171,9.284l6.476-6.69l0.663,8.029l5.658-1.906L40.563,20.704z"/>
		<path fill-rule="evenodd" clip-rule="evenodd" fill="#F37825" d="M9.561,36.456c0.085-2.946,0.515-5.821,1.742-8.535
			c0.855-1.893,2.101-3.484,3.695-4.813c0.195-0.169,0.288-0.202,0.459,0.042c0.327,0.471,0.445,0.823,0.051,1.392
			c-1.155,1.658-1.667,3.586-1.98,5.561c-0.209,1.288-0.279,2.596-0.245,3.905c0.005,0.405,0.107,0.587,0.561,0.577
			c3.492-0.094,6.842-0.669,9.769-2.759c0.229-0.162,1.125,0.119,1.231,0.383c0.067,0.181-0.112,0.247-0.198,0.353
			c-2.063,2.718-4.879,4.236-8.117,5.073c-2.095,0.542-4.234,0.772-6.394,0.769c-0.401,0.004-0.581-0.082-0.556-0.51
			C9.601,37.416,9.569,36.931,9.561,36.456z"/>
		<path fill-rule="evenodd" clip-rule="evenodd" fill="#EE3E23" d="M14.807,31.782c0.054-1.837,0.32-3.632,1.085-5.322
			c0.537-1.185,1.313-2.178,2.308-3.01c0.121-0.103,0.18-0.125,0.287,0.029c0.201,0.293,0.276,0.516,0.031,0.872
			c-0.722,1.034-1.04,2.232-1.238,3.467c-0.13,0.807-0.172,1.622-0.152,2.439c0.003,0.254,0.068,0.365,0.35,0.359
			c2.181-0.059,4.271-0.418,6.096-1.723c0.144-0.102,0.707,0.075,0.77,0.237c0.041,0.115-0.068,0.157-0.12,0.221
			c-1.289,1.699-3.049,2.646-5.068,3.165C17.846,32.858,16.514,33,15.162,33c-0.246,0.002-0.359-0.052-0.346-0.317
			C14.831,32.382,14.811,32.083,14.807,31.782z"/>
		<g>
			
				<linearGradient id="SVGID_32_" gradientUnits="userSpaceOnUse" x1="-190.7065" y1="-288.0132" x2="-190.7065" y2="-296.5444" gradientTransform="matrix(0.7183 0.6957 -0.6957 0.7183 -17.5918 340.002)">
				<stop  offset="0.0099" style="stop-color:#26A9E0"/>
				<stop  offset="1" style="stop-color:#F1F1F2"/>
			</linearGradient>
			<circle fill="url(#SVGID_32_)" cx="48.756" cy="-2.626" r="4.267"/>
			<circle opacity="0.24" fill="url(#Arrows_Dark)" cx="48.756" cy="-2.626" r="4.267"/>
			
				<radialGradient id="SVGID_33_" cx="-189.4683" cy="-289.4126" r="6.4183" gradientTransform="matrix(0.7183 0.6957 -0.3397 0.3508 85.4335 233.6247)" gradientUnits="userSpaceOnUse">
				<stop  offset="0.8111" style="stop-color:#28AAE1;stop-opacity:0"/>
				<stop  offset="0.8802" style="stop-color:#7BCBED;stop-opacity:0.3331"/>
				<stop  offset="0.9627" style="stop-color:#D9F0FA;stop-opacity:0.7305"/>
				<stop  offset="1" style="stop-color:#FFFFFF;stop-opacity:0.91"/>
			</radialGradient>
			<circle opacity="0.56" fill="url(#SVGID_33_)" cx="48.756" cy="-2.626" r="4.267"/>
		</g>
	</g>
</g>
</svg>
