<?xml version="1.0" encoding="utf-8"?>
<!-- Generator: Adobe Illustrator 16.0.0, SVG Export Plug-In . SVG Version: 6.00 Build 0)  -->
<!DOCTYPE svg PUBLIC "-//W3C//DTD SVG 1.0//EN" "http://www.w3.org/TR/2001/REC-SVG-20010904/DTD/svg10.dtd">
<svg version="1.0" id="Layer_1" xmlns="http://www.w3.org/2000/svg" xmlns:xlink="http://www.w3.org/1999/xlink" x="0px" y="0px"
	 width="48px" height="48px" viewBox="0 0 48 48" enable-background="new 0 0 48 48" xml:space="preserve">
<circle fill="#FFFFFF" cx="24" cy="24" r="23.788"/>
<g>
	<path fill-rule="evenodd" clip-rule="evenodd" fill="#6DBD45" d="M31.098,13.25c0.463,0,0.924,0.002,1.389,0.002
		c2.348,0.233,4.142,1.371,5.361,3.379c0.808,1.332,1.119,2.81,1.258,4.353c0.206,2.307-0.736,4.199-2.023,5.978
		c-1.838,2.53-4.147,4.599-6.572,6.54c-1.986,1.59-4.061,3.059-6.218,4.412c-0.201,0.127-0.352,0.174-0.576,0.031
		c-3.816-2.434-7.452-5.102-10.616-8.357c-1.539-1.583-2.936-3.28-3.77-5.366c-0.229-0.57-0.409-1.156-0.46-1.773
		c-0.001-0.49-0.002-0.981-0.004-1.476c0.142-2.118,0.729-4.065,2.236-5.639c1.194-1.247,2.664-1.925,4.378-2.083
		c0.463,0,0.925-0.002,1.387-0.002c1.871,0.16,3.491,0.902,4.906,2.118c0.809,0.696,1.476,1.51,1.991,2.444
		c0.169,0.306,0.261,0.298,0.435-0.003c1.263-2.168,3.075-3.648,5.512-4.321C30.164,13.366,30.625,13.268,31.098,13.25z"/>
</g>
<polygon fill-rule="evenodd" clip-rule="evenodd" fill="#FFFFFF" points="28.673,24.418 25.137,24.418 25.137,20.844 22.223,20.844 
	22.223,24.418 18.686,24.418 18.686,27.332 22.223,27.332 22.223,31.144 25.137,31.144 25.137,27.332 28.673,27.332 "/>
<polygon fill-rule="evenodd" clip-rule="evenodd" fill="#FFFFFF" points="34.852,18.734 32.664,18.734 32.664,16.524 30.861,16.524 
	30.861,18.734 28.673,18.734 28.673,20.538 30.861,20.538 30.861,22.895 32.664,22.895 32.664,20.538 34.852,20.538 "/>
<polygon fill-rule="evenodd" clip-rule="evenodd" fill="#6DBD45" points="27.889,10.397 25.795,10.397 25.795,8.28 24.072,8.28 
	24.072,10.397 21.978,10.397 21.978,12.121 24.072,12.121 24.072,14.376 25.795,14.376 25.795,12.121 27.889,12.121 "/>
</svg>
