<?xml version="1.0" encoding="utf-8"?>
<!-- Generator: Adobe Illustrator 16.0.0, SVG Export Plug-In . SVG Version: 6.00 Build 0)  -->
<!DOCTYPE svg PUBLIC "-//W3C//DTD SVG 1.0//EN" "http://www.w3.org/TR/2001/REC-SVG-20010904/DTD/svg10.dtd">
<svg version="1.0" id="Layer_1" xmlns="http://www.w3.org/2000/svg" xmlns:xlink="http://www.w3.org/1999/xlink" x="0px" y="0px"
	 width="48px" height="48px" viewBox="0 0 48 48" enable-background="new 0 0 48 48" xml:space="preserve">
<circle fill="#6DBD45" cx="24.066" cy="24.092" r="23.788"/>
<g>
	<path fill-rule="evenodd" clip-rule="evenodd" fill="#FFFFFF" d="M31.158,13.342c0.464,0.002,0.924,0.002,1.388,0.002
		c2.351,0.235,4.144,1.371,5.362,3.38c0.81,1.331,1.121,2.809,1.259,4.354c0.207,2.309-0.735,4.2-2.025,5.976
		c-1.837,2.532-4.145,4.599-6.569,6.54c-1.986,1.591-4.063,3.06-6.219,4.414c-0.203,0.124-0.351,0.173-0.577,0.03
		c-3.816-2.433-7.452-5.103-10.616-8.356c-1.539-1.582-2.934-3.281-3.77-5.365c-0.229-0.571-0.408-1.157-0.459-1.772
		c-0.001-0.492-0.002-0.984-0.003-1.477c0.143-2.12,0.728-4.066,2.237-5.64c1.193-1.246,2.663-1.924,4.378-2.083
		c0.462,0,0.924,0,1.386-0.002c1.872,0.161,3.492,0.902,4.906,2.118c0.81,0.697,1.476,1.512,1.991,2.445
		c0.169,0.306,0.261,0.298,0.434-0.003c1.261-2.169,3.076-3.647,5.512-4.321C30.223,13.458,30.688,13.36,31.158,13.342z"/>
</g>
<polygon fill-rule="evenodd" clip-rule="evenodd" fill="#6DBD45" points="28.736,24.512 25.197,24.512 25.197,20.936 22.284,20.936 
	22.284,24.512 18.747,24.512 18.747,27.425 22.284,27.425 22.284,31.236 25.197,31.236 25.197,27.425 28.736,27.425 "/>
<polygon fill-rule="evenodd" clip-rule="evenodd" fill="#6DBD45" points="34.912,18.828 32.726,18.828 32.726,16.618 30.923,16.618 
	30.923,18.828 28.736,18.828 28.736,20.63 30.923,20.63 30.923,22.987 32.726,22.987 32.726,20.63 34.912,20.63 "/>
<polygon fill-rule="evenodd" clip-rule="evenodd" fill="#FFFFFF" points="27.949,10.49 25.856,10.49 25.856,8.374 24.133,8.374 
	24.133,10.49 22.039,10.49 22.039,12.212 24.133,12.212 24.133,14.469 25.856,14.469 25.856,12.212 27.949,12.212 "/>
</svg>
