<?xml version="1.0" encoding="utf-8"?>
<!-- Generator: Adobe Illustrator 16.0.0, SVG Export Plug-In . SVG Version: 6.00 Build 0)  -->
<!DOCTYPE svg PUBLIC "-//W3C//DTD SVG 1.0//EN" "http://www.w3.org/TR/2001/REC-SVG-20010904/DTD/svg10.dtd">
<svg version="1.0" id="Layer_1" xmlns="http://www.w3.org/2000/svg" xmlns:xlink="http://www.w3.org/1999/xlink" x="0px" y="0px"
	 width="128px" height="128px" viewBox="0 0 128 128" enable-background="new 0 0 128 128" xml:space="preserve">
<path fill="#FF7F00" d="M58.344,14.196C35.961-1.569,3.215,18,0.491,50.487c0,0,23.574-26.946,32.834-16.808
	c0,0-35.622-0.109-28.041,58.005c0,0,7.961,29.839-4.609,30.8c0,0,34.628,2.671,38.55-27.428c3.917-30.12,14.146-6.603,14.146-6.603
	s-5.541,38.702-22.386,38.702c0,0,55.147,5.793,57.677-20.324c2.518-26.096,22.912-17.686,22.912-17.686L53.372,17.908"/>
<path fill="#005CA9" d="M127.844,58.322c0,31.997-25.928,57.917-57.911,57.917c-31.983,0-57.909-25.921-57.909-57.917
	c0-31.976,25.926-57.902,57.909-57.902C101.916,0.419,127.844,26.346,127.844,58.322z"/>
<g>
	<path fill-rule="evenodd" clip-rule="evenodd" fill="#FFFFFF" d="M81.174,69.355c0.883-0.541,1.762-1.108,2.715-1.701
		c34.214-21.638,35.606-58.847,35.606-58.847S82.278,9.679,60.149,43.584c-0.615,0.938-1.179,1.818-1.74,2.697l-24.747-1.214
		l-3.023,9.251l13.099,0.965L32.92,65.951l15.138-2.061c-1.836,3.804-2.141,5.525-1.817,6.189h-0.003l0.011,0.014l0.277,0.281l0,0
		l5.167,5.29l0.351,0.309l4.87,4.931c0.063,0.115,0.152,0.213,0.281,0.296l0.02,0.012l0.011-0.012
		c0.669,0.326,2.376,0.046,6.187-1.731l-2.265,15.107l10.82-10.664l0.776,13.095l9.299-2.883L81.174,69.355z"/>
	<g>
		<path fill="#FF7F00" d="M82.158,71.037c8.158-5.086,15.523-10.938,21.623-18.422c4.896-6.031,8.773-12.765,11.793-19.924
			c3.119-7.442,5.474-15.722,5.86-23.844c0.005-0.012,0.005-0.025,0.005-0.04c0.032-1.042-0.909-1.976-1.944-1.945
			c-7.599,0.194-15.398,2.303-22.451,4.949C80.958,17.838,67.479,28.782,58.11,43.153c-0.466,0.716-0.926,1.424-1.377,2.14
			c0.556-0.319,1.112-0.646,1.677-0.957c-8.252-0.412-16.5-0.809-24.747-1.213c-0.891-0.051-1.617,0.629-1.879,1.424
			c-1.006,3.084-2.014,6.17-3.023,9.252c-0.417,1.283,0.675,2.372,1.879,2.466c4.365,0.315,8.734,0.638,13.099,0.965
			c-0.458-1.102-0.915-2.218-1.372-3.315c-3.607,3.551-7.214,7.104-10.821,10.667c-1.521,1.498,0.105,3.482,1.894,3.245
			c5.047-0.681,10.085-1.369,15.131-2.062c-0.73-0.942-1.463-1.898-2.193-2.849c-0.95,1.993-2.93,5.331-2.016,7.672
			c0.17-0.621,0.334-1.256,0.501-1.892h-0.004c-0.824,0.689-0.685,2.059,0,2.761c0.093,0.1,0.194,0.197,0.288,0.3
			c1.786,1.788,4.389-0.885,2.755-2.761c0,0,0,0-0.003,0c-0.916,0.91-1.833,1.83-2.752,2.747c3.542,3.642,7.221,7.144,10.691,10.851
			c0.762,0.807,1.972,0.674,2.754,0c0-0.016,0-0.016,0.008-0.016c-0.631,0.176-1.268,0.345-1.894,0.496
			c2.338,0.932,5.668-1.009,7.683-1.918c-0.949-0.725-1.902-1.464-2.855-2.198c-0.758,5.032-1.51,10.067-2.261,15.094
			c-0.276,1.821,1.747,3.374,3.249,1.886c3.607-3.546,7.213-7.095,10.809-10.667c-1.097-0.448-2.207-0.914-3.305-1.36
			c0.254,4.363,0.515,8.729,0.771,13.095c0.081,1.232,1.198,2.275,2.468,1.882c3.097-0.96,6.197-1.933,9.295-2.89
			c0.811-0.247,1.458-1.001,1.436-1.875c-0.298-8.256-0.588-16.509-0.876-24.768c-0.087-2.489-3.981-2.501-3.895,0
			c0.303,8.259,0.579,16.512,0.878,24.768c0.479-0.63,0.953-1.253,1.416-1.866c-3.089,0.952-6.189,1.925-9.284,2.884
			c0.814,0.629,1.636,1.254,2.457,1.865c-0.261-4.365-0.527-8.731-0.78-13.095c-0.095-1.671-2.056-2.626-3.325-1.383
			c-3.606,3.548-7.208,7.114-10.818,10.664c1.088,0.635,2.17,1.273,3.251,1.893c0.755-5.031,1.509-10.067,2.264-15.097
			c0.267-1.731-1.217-2.945-2.851-2.199c-1.19,0.551-2.381,1.046-3.637,1.41c-0.176,0.053-0.499,0.144-0.685,0.162
			c-0.521,0.063-0.233,0.02-0.37-0.034c-0.665-0.257-1.404,0.084-1.895,0.501h-0.007c0.919,0,1.836,0,2.754,0
			c-3.477-3.692-7.15-7.197-10.694-10.831c-1.767-1.809-4.39,0.889-2.752,2.747c0,0,0,0,0,0.014
			c0.922-0.931,1.836-1.851,2.755-2.761c-0.101-0.097-0.194-0.194-0.295-0.3c0,0.92,0,1.834,0,2.761
			c0.007-0.018,0.007-0.018,0.011-0.018c0.476-0.39,0.728-1.31,0.501-1.882c-0.163-0.41-0.03,0.455-0.046-0.144
			c-0.008-0.309,0.113-0.612,0.195-0.914c0.335-1.257,0.91-2.448,1.463-3.624c0.793-1.649-0.479-3.085-2.191-2.859
			c-5.044,0.692-10.088,1.366-15.131,2.058c0.629,1.081,1.261,2.171,1.892,3.256c3.602-3.566,7.209-7.119,10.816-10.67
			c1.28-1.269,0.257-3.199-1.377-3.332c-4.364-0.319-8.734-0.645-13.099-0.948c0.622,0.816,1.247,1.633,1.874,2.442
			c1.009-3.081,2.014-6.154,3.024-9.243c-0.627,0.482-1.25,0.949-1.875,1.432c8.248,0.401,16.495,0.801,24.747,1.213
			c0.696,0.032,1.319-0.404,1.677-0.968c5.105-7.953,11.006-15.107,18.534-20.896c5.883-4.536,12.498-8.162,19.453-10.796
			c6.827-2.6,14.341-4.638,21.422-4.813c-0.646-0.646-1.3-1.299-1.941-1.945c-0.096,2.257-0.373,3.809-0.744,5.937
			c-0.93,5.26-2.431,10.427-4.379,15.41c-2.709,6.922-6.482,13.489-11.089,19.31c-5.891,7.438-13.146,13.215-21.148,18.222
			C78.067,69.011,80.025,72.375,82.158,71.037z"/>
	</g>
</g>
<g>
	<path fill="#FF7F00" d="M99.631,37.057c-0.264,5.368-4.84,9.492-10.198,9.219c-5.368-0.272-9.504-4.854-9.225-10.22
		c0.268-5.366,4.848-9.489,10.217-9.217C95.79,27.112,99.918,31.688,99.631,37.057z"/>
	<g opacity="0.24">
		<path fill="#FF7F00" d="M99.631,37.057c-0.264,5.368-4.84,9.492-10.198,9.219c-5.368-0.272-9.504-4.854-9.225-10.22
			c0.268-5.366,4.848-9.489,10.217-9.217C95.79,27.112,99.918,31.688,99.631,37.057z"/>
	</g>
	<g opacity="0.56">
		<path fill="#FF7F00" d="M99.631,37.057c-0.264,5.368-4.84,9.492-10.198,9.219c-5.368-0.272-9.504-4.854-9.225-10.22
			c0.268-5.366,4.848-9.489,10.217-9.217C95.79,27.112,99.918,31.688,99.631,37.057z"/>
	</g>
</g>
</svg>
