<?xml version="1.0" encoding="utf-8"?>
<!-- Generator: Adobe Illustrator 16.0.0, SVG Export Plug-In . SVG Version: 6.00 Build 0)  -->
<!DOCTYPE svg PUBLIC "-//W3C//DTD SVG 1.0//EN" "http://www.w3.org/TR/2001/REC-SVG-20010904/DTD/svg10.dtd">
<svg version="1.0" id="Layer_1" xmlns="http://www.w3.org/2000/svg" xmlns:xlink="http://www.w3.org/1999/xlink" x="0px" y="0px"
	 width="48px" height="48px" viewBox="0 0 48 48" enable-background="new 0 0 48 48" xml:space="preserve">
<pattern  width="37.971" height="41.93" patternUnits="userSpaceOnUse" id="Arrows_Dark" viewBox="0 -41.93 37.971 41.93" overflow="visible">
	<g>
		<polygon fill="none" points="0,0 37.971,0 37.971,-41.93 0,-41.93 		"/>
		
			<linearGradient id="SVGID_1_" gradientUnits="userSpaceOnUse" x1="6893.2358" y1="-8021.2764" x2="6893.2358" y2="-8063.2061" gradientTransform="matrix(1 0 0 -1 -6874.25 -8063.2061)">
			<stop  offset="0" style="stop-color:#454B52"/>
			<stop  offset="0.8598" style="stop-color:#4E565E"/>
			<stop  offset="1" style="stop-color:#505861"/>
		</linearGradient>
		<path fill="url(#SVGID_1_)" d="M26.715-31.444L15.457-41.93v9.345H1.188C0.532-32.585,0-31.934,0-31.133v20.336
			c0,0.803,0.532,1.451,1.188,1.451h14.269V0l11.258-10.48l11.256-10.482L26.715-31.444z"/>
	</g>
</pattern>
<circle fill="#F47F20" cx="24" cy="24" r="23.789"/>
<g>
	<defs>
		<path id="SVGID_2_" d="M47.309,23.977c0,12.921-10.446,23.393-23.337,23.393c-12.887,0-23.335-10.472-23.335-23.393
			c0-12.923,10.448-23.395,23.335-23.395C36.862,0.582,47.309,11.054,47.309,23.977z"/>
	</defs>
	<clipPath id="SVGID_3_">
		<use xlink:href="#SVGID_2_"  overflow="visible"/>
	</clipPath>
	
		<line clip-path="url(#SVGID_3_)" fill="#FFFFFF" stroke="#F1F1F2" stroke-miterlimit="10" x1="1.995" y1="34.501" x2="19.219" y2="34.501"/>
	
		<line clip-path="url(#SVGID_3_)" fill="#FFFFFF" stroke="#F1F1F2" stroke-miterlimit="10" x1="13.296" y1="28.752" x2="13.296" y2="37.203"/>
	
		<line clip-path="url(#SVGID_3_)" fill="#FFFFFF" stroke="#F1F1F2" stroke-miterlimit="10" x1="18.644" y1="40.395" x2="34.433" y2="40.395"/>
	
		<line clip-path="url(#SVGID_3_)" fill="#FFFFFF" stroke="#F1F1F2" stroke-miterlimit="10" x1="36.817" y1="18.191" x2="36.817" y2="30.687"/>
	
		<line clip-path="url(#SVGID_3_)" fill="#FFFFFF" stroke="#F1F1F2" stroke-miterlimit="10" x1="36.194" y1="36.429" x2="42.532" y2="36.429"/>
	
		<line clip-path="url(#SVGID_3_)" fill="#FFFFFF" stroke="#F1F1F2" stroke-miterlimit="10" x1="18.644" y1="34.501" x2="18.644" y2="47.929"/>
	
		<line clip-path="url(#SVGID_3_)" fill="#FFFFFF" stroke="#F1F1F2" stroke-miterlimit="10" x1="5.04" y1="38.29" x2="18.644" y2="38.29"/>
	
		<line clip-path="url(#SVGID_3_)" fill="#FFFFFF" stroke="#F1F1F2" stroke-miterlimit="10" x1="10.657" y1="21.163" x2="10.657" y2="46.588"/>
	
		<line clip-path="url(#SVGID_3_)" fill="#FFFFFF" stroke="#F1F1F2" stroke-miterlimit="10" x1="33.919" y1="32.067" x2="48.44" y2="32.067"/>
	
		<line clip-path="url(#SVGID_3_)" fill="#FFFFFF" stroke="#F1F1F2" stroke-miterlimit="10" x1="34.24" y1="32.139" x2="34.24" y2="47.929"/>
	
		<line clip-path="url(#SVGID_3_)" fill="#FFFFFF" stroke="#F1F1F2" stroke-miterlimit="10" x1="34.433" y1="27.053" x2="48.952" y2="27.053"/>
	<use xlink:href="#SVGID_2_"  overflow="visible" fill="none" stroke="#F1F1F2" stroke-miterlimit="10"/>
</g>
<path fill-rule="evenodd" clip-rule="evenodd" fill="#1F255A" d="M47.83,21.93c-0.045-0.681-0.041-1.365-0.154-2.042
	c-0.471-2.802-1.408-5.438-2.824-7.907c-1.441-2.516-3.271-4.702-5.51-6.549c-2.635-2.172-5.605-3.725-8.902-4.639
	c-1.107-0.307-2.225-0.563-3.379-0.635c-0.545-0.035-1.092-0.021-1.635-0.105c-0.95,0-1.9,0-2.852,0
	c-0.115,0.075-0.244,0.03-0.365,0.036C21.5,0.131,20.786,0.12,20.084,0.238c-4.686,0.783-8.791,2.779-12.305,5.953
	C5.248,8.483,3.32,11.221,1.96,14.351c-0.834,1.918-1.421,3.906-1.69,5.982c-0.083,0.638-0.055,1.284-0.137,1.923
	c0,1.146,0,2.293,0,3.439c0.082,0.639,0.054,1.285,0.137,1.924c0.3,2.316,0.978,4.529,1.98,6.633
	c2.164,4.539,5.419,8.095,9.801,10.607c2.34,1.341,4.838,2.259,7.494,2.756c1.06,0.201,2.128,0.254,3.202,0.293
	c1.536,0.053,3.078,0.081,4.597-0.123c4.916-0.663,9.201-2.713,12.871-6.021c2.549-2.298,4.477-5.051,5.84-8.194
	c0.828-1.907,1.408-3.888,1.674-5.95c0.086-0.639,0.055-1.285,0.139-1.924c0-1.123,0-2.244,0-3.365
	C47.789,22.203,47.838,22.064,47.83,21.93z M23.412,41.673c0.011,0.257-0.051,0.378-0.322,0.325
	c-0.354-0.066-0.466,0.058-0.451,0.43c0.033,0.809,0.002,1.619,0.016,2.428c0.005,0.238-0.063,0.292-0.295,0.27
	c-5.31-0.496-9.871-2.588-13.584-6.41c-2.872-2.957-4.7-6.479-5.505-10.523c-0.165-0.829-0.252-1.666-0.359-2.502
	c-0.034-0.271,0.025-0.389,0.345-0.377c0.762,0.027,1.526-0.007,2.289,0.016c0.295,0.01,0.387-0.088,0.338-0.355
	c-0.069-0.357,0.1-0.432,0.424-0.413c0.488,0.026,0.977,0.021,1.463,0.001c0.264-0.012,0.373,0.063,0.322,0.326
	c-0.067,0.355,0.068,0.504,0.434,0.436c0.074-0.014,0.15-0.001,0.226-0.001c0.505,0,0.521,0,0.516-0.501
	c-0.002-0.229,0.087-0.26,0.282-0.258c1.126,0.008,2.252,0.014,3.377-0.003c0.252-0.004,0.31,0.093,0.27,0.302
	c-0.078,0.41,0.119,0.521,0.486,0.46c0.049-0.008,0.1,0,0.15,0c0.531,0,0.542,0,0.545-0.512c0-0.194,0.053-0.249,0.25-0.247
	c1.138,0.008,2.276,0.014,3.414-0.004c0.272-0.003,0.293,0.125,0.259,0.313c-0.071,0.389,0.094,0.517,0.46,0.449
	c0.037-0.006,0.076,0,0.114,0c0.571,0,0.581,0,0.608-0.556c0.01-0.174,0.07-0.203,0.223-0.203c1.163,0.006,2.326,0.01,3.489,0.002
	c0.207-0.002,0.214,0.096,0.212,0.25c-0.006,0.572-0.002,1.146-0.002,1.719c0,0,0,0,0.002,0c0,0.548-0.012,1.098,0.004,1.645
	c0.008,0.219-0.035,0.305-0.281,0.297c-0.479-0.016-0.48,0.002-0.48,0.496c0,0.036,0,0.073,0,0.109c0,0.542,0,0.551,0.529,0.564
	c0.175,0.004,0.234,0.045,0.232,0.229c-0.009,1.146-0.013,2.293,0.002,3.438c0.004,0.255-0.127,0.266-0.299,0.235
	c-0.404-0.072-0.529,0.108-0.465,0.479c0.01,0.063,0,0.126,0,0.188c0,0.5,0,0.515,0.505,0.51c0.229-0.002,0.259,0.089,0.256,0.283
	 M23.416,6.389c-0.037,0.482-0.025,0.971-0.002,1.455c0.011,0.26-0.086,0.338-0.318,0.293c-0.399-0.079-0.508,0.109-0.447,0.465
	c0.006,0.036,0,0.074,0,0.112c0,0.56,0,0.575,0.561,0.599c0.219,0.012,0.198,0.125,0.198,0.266
	c-0.003,0.572-0.001,1.146-0.001,1.718c0,0.536-0.016,1.071,0.008,1.608c0.01,0.266-0.074,0.366-0.332,0.316
	c-0.37-0.072-0.498,0.086-0.434,0.439c0.012,0.072,0,0.148,0,0.225c0,0.503,0,0.517,0.5,0.51c0.225-0.002,0.264,0.08,0.262,0.279
	c-0.009,1.096-0.016,2.193,0.005,3.289c0.004,0.277-0.065,0.393-0.349,0.34c-0.342-0.064-0.48,0.075-0.418,0.416
	c0.01,0.061,0,0.124,0,0.188c0,0.541,0,0.549,0.552,0.572c0.169,0.008,0.209,0.06,0.209,0.217c-0.007,1.158-0.008,2.316-0.002,3.476
	c0.001,0.161-0.044,0.216-0.21,0.214c-1.164-0.006-2.327-0.008-3.49,0.006c-0.236,0.002-0.219-0.12-0.221-0.279
	c-0.006-0.481-0.008-0.481-0.498-0.481c-0.026,0-0.05,0-0.076,0c-0.563,0-0.572-0.001-0.604,0.558c-0.01,0.178-0.08,0.201-0.229,0.2
	c-1.162-0.003-2.325-0.011-3.488,0.003c-0.289,0.002-0.225-0.187-0.205-0.324c0.053-0.359-0.076-0.506-0.441-0.438
	c-0.072,0.014-0.148,0.002-0.225,0.002c-0.51,0-0.521,0-0.518,0.495c0.002,0.219-0.07,0.266-0.274,0.264
	c-1.114-0.01-2.228-0.014-3.339,0.002c-0.272,0.006-0.366-0.08-0.316-0.333c0.072-0.375-0.098-0.489-0.445-0.43
	c-0.063,0.011-0.125,0.002-0.188,0.002c-0.529,0-0.541,0-0.543,0.507c-0.001,0.195-0.051,0.258-0.251,0.252
	c-0.55-0.014-1.101-0.021-1.649,0.002c-0.278,0.012-0.36-0.089-0.313-0.336c0.074-0.381-0.106-0.446-0.45-0.434
	c-0.725,0.026-1.451-0.01-2.176,0.018c-0.315,0.011-0.373-0.104-0.348-0.377c0.252-2.772,0.932-5.432,2.227-7.909
	C8.191,8.51,12.962,4.848,19.373,3.287c0.979-0.239,1.981-0.354,2.984-0.461c0.227-0.024,0.302,0.025,0.297,0.268
	c-0.014,0.846,0.006,1.693-0.012,2.539c-0.006,0.268,0.072,0.369,0.332,0.32C23.339,5.881,23.441,6.027,23.416,6.389z
	 M24.586,35.068c-0.005-0.281,0.068-0.391,0.348-0.338c0.344,0.064,0.479-0.078,0.42-0.416c-0.011-0.061-0.002-0.127-0.002-0.187
	c0-0.541,0.001-0.55-0.552-0.575c-0.167-0.007-0.21-0.055-0.21-0.213c0.006-1.158,0.008-2.317-0.001-3.477
	c-0.002-0.195,0.079-0.215,0.241-0.219c0.522-0.012,0.521-0.018,0.521-0.533c0-0.037,0-0.076,0-0.111c0-0.508,0-0.523-0.527-0.525
	c-0.214-0.004-0.236-0.088-0.234-0.266c0.009-0.572,0.004-1.146,0.004-1.717h0.002c0-0.551,0.014-1.098-0.007-1.646
	c-0.009-0.241,0.075-0.284,0.297-0.282c1.111,0.01,2.226,0.008,3.337-0.004c0.225-0.002,0.305,0.043,0.297,0.283
	c-0.014,0.477,0.002,0.478,0.498,0.478c0.037,0,0.072,0,0.111,0c0.543,0,0.553,0,0.564-0.526c0.004-0.175,0.047-0.234,0.23-0.232
	c1.148,0.008,2.299,0.014,3.451-0.004c0.293-0.004,0.264,0.164,0.238,0.328c-0.055,0.363,0.084,0.5,0.443,0.436
	c0.072-0.014,0.148-0.001,0.225-0.001c0.508,0,0.521,0,0.516-0.497c-0.002-0.223,0.076-0.264,0.277-0.262
	c1.123,0.008,2.25,0.014,3.375-0.003c0.256-0.004,0.305,0.098,0.268,0.304c-0.063,0.365,0.064,0.535,0.455,0.459
	c0.068-0.014,0.146-0.001,0.225-0.001c0.492,0,0.504,0,0.506-0.506c0.002-0.192,0.045-0.259,0.248-0.255
	c0.561,0.016,1.125,0.019,1.688,0c0.238-0.008,0.32,0.072,0.277,0.294c-0.076,0.401,0.107,0.491,0.484,0.476
	c0.711-0.032,1.426,0.008,2.139-0.017c0.305-0.011,0.379,0.083,0.352,0.368c-0.234,2.595-0.838,5.098-1.99,7.441
	c-2.883,5.857-7.504,9.64-13.809,11.379c-1.199,0.332-2.434,0.497-3.671,0.625c-0.218,0.023-0.276-0.037-0.273-0.252
	c0.011-0.848-0.009-1.695,0.012-2.539c0.008-0.291-0.082-0.389-0.353-0.338c-0.35,0.066-0.441-0.084-0.42-0.416 M44.709,22.639
	c-0.373-0.04-0.752-0.009-1.123-0.009c-0.391,0-0.777,0.018-1.164-0.007c-0.258-0.015-0.35,0.076-0.303,0.313
	c0.074,0.387-0.09,0.481-0.459,0.456c-0.486-0.035-0.975-0.02-1.465-0.002c-0.221,0.006-0.305-0.041-0.295-0.283
	c0.014-0.478-0.002-0.478-0.496-0.478c-0.037,0-0.076,0-0.113,0c-0.547,0-0.555,0-0.568,0.523c-0.004,0.173-0.041,0.237-0.227,0.235
	c-1.148-0.008-2.303-0.016-3.451,0.004c-0.297,0.004-0.262-0.168-0.238-0.332c0.059-0.366-0.084-0.496-0.443-0.433
	c-0.072,0.013-0.148,0.002-0.223,0.002c-0.506,0-0.521,0-0.516,0.499c0.002,0.225-0.082,0.262-0.281,0.26
	c-1.123-0.008-2.25-0.014-3.375,0.002c-0.254,0.004-0.311-0.095-0.268-0.301c0.08-0.413-0.119-0.52-0.488-0.462
	c-0.061,0.011-0.125,0.002-0.188,0.002c-0.494,0-0.506,0-0.508,0.505c-0.002,0.19-0.047,0.256-0.248,0.254
	c-1.15-0.01-2.301-0.01-3.451-0.002c-0.188,0-0.227-0.064-0.227-0.238c0.006-1.145,0.006-2.291-0.002-3.436
	c-0.001-0.176,0.045-0.23,0.229-0.234c0.534-0.012,0.533-0.021,0.533-0.555c0-0.025,0-0.051,0-0.075c0-0.526,0-0.536-0.514-0.539
	c-0.196-0.003-0.251-0.057-0.249-0.252c0.009-1.134,0.011-2.267-0.001-3.4c-0.002-0.226,0.08-0.263,0.279-0.259
	c0.484,0.004,0.484-0.006,0.484-0.492c0-0.024,0-0.049,0-0.075c0-0.563,0.001-0.576-0.561-0.603
	c-0.219-0.011-0.199-0.123-0.199-0.264c0.002-1.109,0.012-2.217-0.005-3.325c-0.005-0.265,0.069-0.368,0.329-0.318
	c0.359,0.07,0.506-0.071,0.438-0.433c-0.012-0.059-0.002-0.123-0.002-0.186c0-0.535,0.001-0.545-0.533-0.559
	c-0.184-0.006-0.231-0.059-0.229-0.234c0.01-0.561,0.016-1.121-0.003-1.682c-0.009-0.244,0.079-0.316,0.298-0.274
	c0.398,0.075,0.49-0.101,0.476-0.479c-0.03-0.784-0.002-1.567-0.014-2.354c-0.003-0.233,0.034-0.32,0.303-0.296
	c4.39,0.396,8.329,1.926,11.735,4.717c3.777,3.098,6.199,7.049,7.264,11.816c0.209,0.945,0.316,1.902,0.438,2.861
	C45.125,22.522,45.072,22.677,44.709,22.639z"/>
<rect x="22.199" y="31.236" fill-rule="evenodd" clip-rule="evenodd" fill="#F47F20" width="3.316" height="9.486"/>
<rect x="20.729" y="41.562" fill-rule="evenodd" clip-rule="evenodd" fill="#F47F20" width="6.982" height="2.5"/>
<rect x="22.959" y="40.277" fill-rule="evenodd" clip-rule="evenodd" fill="#F47F20" width="1.871" height="0.61"/>
<path fill-rule="evenodd" clip-rule="evenodd" fill="#1F255A" d="M28.676,27.202c0.064-0.291,0.131-0.589,0.201-0.902
	C31.359,14.895,24,7.076,24,7.076s-7.358,7.818-4.875,19.224c0.068,0.315,0.135,0.608,0.201,0.902l-5.26,4.836l1.287,2.493
	l2.853-2.493v4.382l2.642-3.523c0.406,1.145,0.698,1.555,0.9,1.623v0.002h0.007h0.112l0,0L24,34.531l0.135-0.01h1.998
	c0.035,0.012,0.072,0.012,0.117,0h0.008v-0.004c0.199-0.07,0.49-0.479,0.895-1.621l2.643,3.523v-4.382l2.854,2.493l1.285-2.493
	L28.676,27.202z"/>
<path fill-rule="evenodd" clip-rule="evenodd" fill="#1F255A" d="M23.352,42.551c-0.936-1.025-1.73-2.135-2.205-3.454
	c-0.329-0.921-0.43-1.866-0.326-2.837c0.012-0.12,0.031-0.162,0.17-0.135c0.263,0.051,0.418,0.133,0.472,0.454
	c0.153,0.938,0.61,1.756,1.15,2.525c0.353,0.505,0.757,0.968,1.196,1.401c0.135,0.135,0.227,0.162,0.378,0.01
	c1.151-1.173,2.096-2.465,2.396-4.129c0.023-0.129,0.42-0.328,0.545-0.272c0.08,0.038,0.041,0.119,0.049,0.185
	c0.189,1.592-0.262,3.028-1.083,4.369c-0.531,0.871-1.179,1.646-1.909,2.354c-0.135,0.131-0.224,0.161-0.355,0.01
	C23.68,42.86,23.511,42.709,23.352,42.551z"/>
<path fill-rule="evenodd" clip-rule="evenodd" fill="#1F255A" d="M23.596,39.256c-0.584-0.641-1.08-1.334-1.377-2.156
	c-0.205-0.576-0.268-1.166-0.205-1.77c0.009-0.076,0.021-0.102,0.107-0.086c0.166,0.032,0.262,0.084,0.295,0.285
	c0.096,0.584,0.381,1.094,0.718,1.575c0.221,0.315,0.472,0.604,0.747,0.874c0.083,0.084,0.143,0.102,0.235,0.007
	c0.718-0.733,1.307-1.539,1.497-2.577c0.017-0.08,0.262-0.207,0.338-0.171c0.051,0.023,0.027,0.075,0.031,0.114
	c0.119,0.996-0.164,1.892-0.676,2.729c-0.332,0.543-0.736,1.028-1.191,1.47c-0.084,0.081-0.139,0.101-0.223,0.005
	C23.801,39.449,23.694,39.355,23.596,39.256z"/>
<g>
	<linearGradient id="SVGID_4_" gradientUnits="userSpaceOnUse" x1="24.0005" y1="19.3623" x2="24.0005" y2="15.1699">
		<stop  offset="0" style="stop-color:#02BFDF"/>
		<stop  offset="1" style="stop-color:#77C1EB"/>
	</linearGradient>
	<path fill="url(#SVGID_4_)" d="M25.484,15.777c0.804,0.795,0.823,2.139,0.008,2.949c-0.826,0.822-2.095,0.869-2.959,0.01
		c-0.854-0.852-0.823-2.121,0.003-2.961C23.336,14.959,24.682,14.977,25.484,15.777z"/>
	<path opacity="0.24" fill="url(#Arrows_Dark)" d="M25.484,15.777c0.804,0.795,0.823,2.139,0.008,2.949
		c-0.826,0.822-2.095,0.869-2.959,0.01c-0.854-0.852-0.823-2.121,0.003-2.961C23.336,14.959,24.682,14.977,25.484,15.777z"/>
	
		<radialGradient id="SVGID_5_" cx="24.6084" cy="18.6748" r="3.1524" gradientTransform="matrix(1 0 0 0.4883 0 9.5557)" gradientUnits="userSpaceOnUse">
		<stop  offset="0.8111" style="stop-color:#28AAE1;stop-opacity:0"/>
		<stop  offset="0.8802" style="stop-color:#7BCBED;stop-opacity:0.3331"/>
		<stop  offset="0.9627" style="stop-color:#D9F0FA;stop-opacity:0.7305"/>
		<stop  offset="1" style="stop-color:#FFFFFF;stop-opacity:0.91"/>
	</radialGradient>
	<path opacity="0.56" fill="url(#SVGID_5_)" d="M25.484,15.777c0.804,0.795,0.823,2.139,0.008,2.949
		c-0.826,0.822-2.095,0.869-2.959,0.01c-0.854-0.852-0.823-2.121,0.003-2.961C23.336,14.959,24.682,14.977,25.484,15.777z"/>
</g>
</svg>
