<?xml version="1.0" encoding="utf-8"?>
<!-- Generator: Adobe Illustrator 16.0.0, SVG Export Plug-In . SVG Version: 6.00 Build 0)  -->
<!DOCTYPE svg PUBLIC "-//W3C//DTD SVG 1.0//EN" "http://www.w3.org/TR/2001/REC-SVG-20010904/DTD/svg10.dtd">
<svg version="1.0" id="Layer_1" xmlns="http://www.w3.org/2000/svg" xmlns:xlink="http://www.w3.org/1999/xlink" x="0px" y="0px"
	 width="48px" height="48px" viewBox="0 0 48 48" enable-background="new 0 0 48 48" xml:space="preserve">
<pattern  width="37.971" height="41.93" patternUnits="userSpaceOnUse" id="Arrows_Dark" viewBox="0 -41.93 37.971 41.93" overflow="visible">
	<g>
		<polygon fill="none" points="0,0 37.971,0 37.971,-41.93 0,-41.93 		"/>
		
			<linearGradient id="SVGID_1_" gradientUnits="userSpaceOnUse" x1="6893.2358" y1="-8021.2764" x2="6893.2358" y2="-8063.2061" gradientTransform="matrix(1 0 0 -1 -6874.25 -8063.2061)">
			<stop  offset="0" style="stop-color:#454B52"/>
			<stop  offset="0.8598" style="stop-color:#4E565E"/>
			<stop  offset="1" style="stop-color:#505861"/>
		</linearGradient>
		<path fill="url(#SVGID_1_)" d="M26.715-31.444L15.457-41.93v9.345H1.188C0.532-32.585,0-31.934,0-31.133v20.336
			c0,0.803,0.532,1.451,1.188,1.451h14.269V0l11.258-10.48l11.256-10.482L26.715-31.444z"/>
	</g>
</pattern>
<circle fill="#FFFFFF" cx="24.062" cy="24.008" r="23.788"/>
<g opacity="0.4">
	<defs>
		<ellipse id="SVGID_2_" opacity="0.4" cx="24" cy="23.867" rx="23.467" ry="23.543"/>
	</defs>
	<clipPath id="SVGID_3_">
		<use xlink:href="#SVGID_2_"  overflow="visible"/>
	</clipPath>
	
		<line clip-path="url(#SVGID_3_)" fill="#404041" stroke="#58595B" stroke-miterlimit="10" x1="1.898" y1="13.273" x2="20.75" y2="13.273"/>
	
		<line clip-path="url(#SVGID_3_)" fill="#404041" stroke="#58595B" stroke-miterlimit="10" x1="13.264" y1="19.059" x2="13.264" y2="10.553"/>
	
		<line clip-path="url(#SVGID_3_)" fill="#404041" stroke="#58595B" stroke-miterlimit="10" x1="18.642" y1="7.344" x2="34.52" y2="7.344"/>
	
		<line clip-path="url(#SVGID_3_)" fill="#404041" stroke="#58595B" stroke-miterlimit="10" x1="36.916" y1="29.686" x2="36.916" y2="17.113"/>
	
		<line clip-path="url(#SVGID_3_)" fill="#404041" stroke="#58595B" stroke-miterlimit="10" x1="36.291" y1="11.334" x2="42.664" y2="11.334"/>
	
		<line clip-path="url(#SVGID_3_)" fill="#404041" stroke="#58595B" stroke-miterlimit="10" x1="18.642" y1="13.273" x2="18.642" y2="-0.238"/>
	
		<line clip-path="url(#SVGID_3_)" fill="#404041" stroke="#58595B" stroke-miterlimit="10" x1="4.961" y1="9.461" x2="18.642" y2="9.461"/>
	
		<line clip-path="url(#SVGID_3_)" fill="#404041" stroke="#58595B" stroke-miterlimit="10" x1="10.609" y1="26.697" x2="10.609" y2="1.109"/>
	
		<line clip-path="url(#SVGID_3_)" fill="#404041" stroke="#58595B" stroke-miterlimit="10" x1="34.002" y1="15.725" x2="48.605" y2="15.725"/>
	
		<line clip-path="url(#SVGID_3_)" fill="#404041" stroke="#58595B" stroke-miterlimit="10" x1="34.326" y1="15.652" x2="34.326" y2="-0.238"/>
	
		<line clip-path="url(#SVGID_3_)" fill="#404041" stroke="#58595B" stroke-miterlimit="10" x1="34.52" y1="20.771" x2="49.119" y2="20.771"/>
	<use xlink:href="#SVGID_2_"  overflow="visible" fill="none" stroke="#58595B" stroke-miterlimit="10"/>
</g>
<path fill-rule="evenodd" clip-rule="evenodd" fill="#404041" d="M47.83,21.93c-0.043-0.68-0.041-1.365-0.154-2.041
	c-0.469-2.803-1.408-5.438-2.824-7.908c-1.441-2.516-3.27-4.703-5.508-6.547c-2.635-2.174-5.605-3.727-8.904-4.641
	c-1.105-0.309-2.225-0.564-3.381-0.635c-0.543-0.035-1.092-0.021-1.633-0.105c-0.951,0-1.9,0-2.852,0
	c-0.113,0.074-0.242,0.029-0.363,0.037c-0.71,0.041-1.424,0.031-2.125,0.15c-4.687,0.781-8.792,2.775-12.305,5.951
	c-2.533,2.293-4.461,5.029-5.82,8.158c-0.834,1.918-1.421,3.906-1.689,5.984c-0.084,0.637-0.055,1.283-0.139,1.922
	c0,1.146,0,2.293,0,3.438c0.084,0.641,0.055,1.287,0.138,1.924c0.3,2.318,0.976,4.531,1.98,6.635
	c2.164,4.541,5.419,8.096,9.801,10.607c2.34,1.342,4.837,2.258,7.491,2.756c1.063,0.201,2.129,0.254,3.203,0.291
	c1.537,0.055,3.078,0.084,4.6-0.121c4.914-0.664,9.201-2.713,12.869-6.021c2.547-2.299,4.48-5.049,5.842-8.193
	c0.826-1.908,1.406-3.887,1.674-5.953c0.084-0.637,0.055-1.283,0.137-1.924c0-1.119,0-2.242,0-3.361
	C47.791,22.201,47.84,22.064,47.83,21.93z M23.413,41.674c0.01,0.256-0.052,0.377-0.321,0.326c-0.354-0.068-0.468,0.057-0.453,0.426
	c0.035,0.811,0.001,1.621,0.018,2.43c0.004,0.238-0.064,0.293-0.296,0.27c-5.31-0.496-9.87-2.586-13.584-6.41
	c-2.872-2.957-4.7-6.48-5.503-10.523c-0.166-0.828-0.254-1.666-0.36-2.502c-0.036-0.271,0.024-0.389,0.345-0.377
	c0.762,0.027,1.525-0.008,2.289,0.018c0.293,0.008,0.387-0.09,0.336-0.357c-0.068-0.357,0.1-0.432,0.426-0.414
	c0.486,0.027,0.975,0.021,1.463,0.002c0.263-0.012,0.373,0.063,0.322,0.324c-0.07,0.359,0.068,0.506,0.434,0.438
	c0.072-0.014,0.15,0,0.225,0c0.504,0,0.519,0,0.514-0.504c-0.001-0.227,0.088-0.256,0.284-0.256
	c1.126,0.008,2.252,0.014,3.377-0.004c0.253-0.002,0.31,0.094,0.27,0.303c-0.078,0.41,0.118,0.521,0.487,0.461
	c0.049-0.008,0.1,0,0.149,0c0.53,0,0.54,0,0.542-0.512c0.002-0.195,0.056-0.25,0.254-0.248c1.138,0.008,2.275,0.014,3.414-0.004
	c0.271-0.004,0.292,0.125,0.256,0.314c-0.07,0.387,0.096,0.516,0.462,0.449c0.037-0.008,0.076,0,0.113,0
	c0.571,0,0.581,0,0.609-0.557c0.009-0.172,0.069-0.203,0.223-0.201c1.163,0.006,2.326,0.01,3.489,0c0.207,0,0.214,0.094,0.213,0.25
	c-0.006,0.574-0.002,1.145-0.002,1.721c0,0,0,0,0.001,0c0,0.547-0.012,1.096,0.005,1.643c0.005,0.219-0.037,0.305-0.283,0.297
	c-0.479-0.014-0.479,0.002-0.479,0.494c0,0.037,0,0.076,0,0.111c0,0.543-0.001,0.551,0.525,0.564
	c0.178,0.004,0.236,0.045,0.235,0.229c-0.007,1.146-0.011,2.293,0.002,3.439c0.003,0.252-0.128,0.264-0.299,0.234
	c-0.405-0.072-0.528,0.107-0.466,0.48c0.011,0.061,0.002,0.125,0.002,0.186c0,0.5,0,0.516,0.503,0.512
	c0.23-0.002,0.259,0.088,0.257,0.281 M23.416,6.387c-0.037,0.484-0.025,0.973-0.003,1.457c0.012,0.26-0.085,0.34-0.315,0.293
	c-0.4-0.08-0.508,0.109-0.448,0.465c0.007,0.037,0.001,0.074,0.001,0.111c0,0.561-0.001,0.576,0.56,0.6
	c0.218,0.012,0.198,0.125,0.198,0.266c-0.002,0.572-0.001,1.145-0.001,1.719c0,0.535-0.017,1.07,0.006,1.607
	c0.011,0.266-0.072,0.367-0.331,0.316c-0.369-0.072-0.496,0.086-0.434,0.439c0.013,0.072,0.002,0.148,0.002,0.225
	c0,0.504,0,0.516,0.499,0.512c0.226-0.004,0.263,0.078,0.262,0.279c-0.009,1.094-0.016,2.191,0.003,3.287
	c0.004,0.279-0.063,0.395-0.347,0.34c-0.341-0.064-0.479,0.076-0.419,0.416c0.011,0.061,0.002,0.125,0.002,0.188
	c0,0.541-0.001,0.549,0.551,0.572c0.168,0.008,0.209,0.059,0.209,0.217c-0.006,1.158-0.006,2.316-0.002,3.475
	c0.001,0.162-0.044,0.215-0.211,0.215c-1.162-0.006-2.326-0.008-3.489,0.006c-0.237,0.004-0.22-0.121-0.22-0.279
	c-0.006-0.48-0.01-0.48-0.5-0.48c-0.025,0-0.049,0-0.074,0c-0.564,0-0.574,0-0.607,0.559c-0.008,0.174-0.077,0.197-0.226,0.197
	c-1.162-0.004-2.325-0.01-3.489,0.004c-0.288,0.004-0.225-0.186-0.204-0.324c0.054-0.359-0.075-0.506-0.442-0.438
	c-0.072,0.012-0.148,0.002-0.223,0.002c-0.511,0-0.523,0-0.519,0.492c0.003,0.223-0.07,0.268-0.275,0.266
	c-1.112-0.008-2.228-0.014-3.339,0.004c-0.271,0.004-0.365-0.084-0.316-0.334c0.074-0.375-0.098-0.49-0.445-0.43
	c-0.061,0.01-0.125,0.002-0.188,0.002c-0.528,0-0.54,0-0.543,0.506c0,0.197-0.05,0.258-0.25,0.252
	c-0.549-0.014-1.102-0.02-1.65,0.004c-0.277,0.01-0.359-0.09-0.313-0.338c0.074-0.381-0.106-0.447-0.45-0.434
	c-0.726,0.027-1.45-0.01-2.175,0.018c-0.316,0.012-0.375-0.102-0.348-0.375c0.252-2.775,0.931-5.432,2.225-7.91
	C8.191,8.51,12.965,4.848,19.373,3.285c0.979-0.236,1.982-0.352,2.984-0.459c0.229-0.023,0.303,0.025,0.299,0.266
	c-0.017,0.848,0.005,1.695-0.014,2.541c-0.006,0.268,0.072,0.369,0.332,0.32C23.341,5.881,23.441,6.027,23.416,6.387z
	 M24.588,35.068c-0.006-0.281,0.066-0.391,0.348-0.338c0.342,0.064,0.477-0.078,0.418-0.416c-0.012-0.061-0.002-0.125-0.002-0.186
	c0-0.541,0.002-0.551-0.552-0.576c-0.165-0.006-0.209-0.055-0.208-0.213c0.005-1.158,0.006-2.318-0.002-3.477
	c-0.001-0.193,0.077-0.215,0.243-0.219c0.521-0.012,0.519-0.016,0.519-0.533c0-0.039,0-0.076,0-0.111c0-0.508,0-0.523-0.523-0.525
	c-0.217-0.002-0.239-0.088-0.236-0.266c0.007-0.572,0.002-1.146,0.002-1.719c0.001,0,0.002,0,0.002,0
	c0-0.549,0.015-1.096-0.005-1.645c-0.009-0.24,0.072-0.283,0.295-0.281c1.112,0.012,2.226,0.01,3.337-0.002
	c0.225-0.004,0.303,0.041,0.297,0.281c-0.016,0.477,0.002,0.479,0.498,0.479c0.039,0,0.074,0,0.113,0c0.541,0,0.551,0,0.563-0.527
	c0.006-0.174,0.047-0.232,0.23-0.232c1.15,0.008,2.301,0.014,3.451-0.004c0.293-0.004,0.266,0.164,0.238,0.328
	c-0.055,0.365,0.084,0.502,0.443,0.436c0.074-0.014,0.15,0,0.225,0c0.508,0,0.52,0,0.516-0.498
	c-0.002-0.223,0.074-0.264,0.279-0.262c1.123,0.008,2.25,0.014,3.375-0.004c0.254-0.002,0.303,0.098,0.268,0.305
	c-0.064,0.365,0.063,0.535,0.451,0.459c0.072-0.014,0.15,0,0.225,0c0.496,0,0.506,0,0.508-0.506
	c0.002-0.193,0.045-0.258,0.248-0.254c0.563,0.014,1.127,0.016,1.688-0.002c0.24-0.008,0.322,0.072,0.279,0.295
	c-0.076,0.4,0.104,0.49,0.482,0.475c0.713-0.031,1.426,0.008,2.137-0.018c0.305-0.01,0.381,0.084,0.354,0.369
	c-0.236,2.596-0.836,5.096-1.99,7.441c-2.883,5.859-7.502,9.641-13.809,11.379c-1.199,0.332-2.434,0.496-3.67,0.627
	c-0.219,0.021-0.277-0.039-0.273-0.254c0.01-0.848-0.01-1.695,0.012-2.541c0.008-0.289-0.082-0.389-0.355-0.334
	c-0.348,0.064-0.438-0.086-0.416-0.418 M44.709,22.639c-0.371-0.039-0.75-0.008-1.125-0.008c-0.389,0-0.775,0.018-1.162-0.006
	c-0.256-0.018-0.35,0.076-0.303,0.313c0.074,0.385-0.09,0.48-0.459,0.457c-0.486-0.037-0.977-0.021-1.463-0.004
	c-0.221,0.006-0.305-0.039-0.297-0.283c0.014-0.477-0.002-0.477-0.496-0.477c-0.039,0-0.074,0-0.113,0c-0.545,0-0.553,0-0.566,0.523
	c-0.004,0.172-0.043,0.236-0.229,0.234c-1.148-0.008-2.301-0.016-3.451,0.004c-0.297,0.004-0.264-0.168-0.238-0.33
	c0.061-0.367-0.084-0.5-0.439-0.434c-0.074,0.012-0.15,0.002-0.227,0.002c-0.506,0-0.52,0-0.514,0.498
	c0,0.225-0.084,0.262-0.281,0.26c-1.125-0.008-2.25-0.014-3.375,0.004c-0.254,0.002-0.311-0.096-0.27-0.303
	c0.078-0.412-0.119-0.521-0.486-0.461c-0.063,0.01-0.127,0.002-0.188,0.002c-0.498,0-0.508,0-0.51,0.504
	c-0.002,0.189-0.045,0.258-0.248,0.254c-1.15-0.01-2.301-0.01-3.451-0.004c-0.186,0.002-0.227-0.063-0.226-0.236
	c0.006-1.145,0.005-2.291-0.002-3.436c-0.001-0.178,0.047-0.23,0.228-0.234c0.535-0.014,0.533-0.021,0.533-0.555
	c0-0.023,0-0.051,0-0.074c0-0.527,0-0.537-0.513-0.541c-0.196-0.002-0.25-0.055-0.249-0.252c0.009-1.133,0.01-2.266,0-3.398
	c-0.003-0.227,0.077-0.262,0.279-0.26c0.482,0.004,0.482-0.008,0.482-0.492c0-0.023,0-0.049,0-0.074c0-0.563,0.002-0.578-0.56-0.604
	c-0.22-0.01-0.198-0.123-0.198-0.264c0.001-1.109,0.01-2.217-0.006-3.324c-0.004-0.266,0.068-0.369,0.33-0.32
	c0.359,0.07,0.504-0.068,0.436-0.43c-0.012-0.061-0.002-0.127-0.002-0.188c0-0.535,0.002-0.545-0.533-0.559
	c-0.182-0.006-0.23-0.059-0.228-0.234c0.009-0.561,0.017-1.121-0.003-1.682c-0.01-0.244,0.077-0.314,0.297-0.275
	c0.4,0.076,0.49-0.1,0.477-0.477c-0.031-0.783-0.002-1.57-0.014-2.354c-0.004-0.232,0.035-0.32,0.303-0.299
	c4.389,0.398,8.328,1.928,11.734,4.719c3.777,3.098,6.197,7.049,7.264,11.816c0.209,0.945,0.318,1.902,0.438,2.861
	C45.125,22.523,45.074,22.678,44.709,22.639z"/>
<rect x="20.51" y="33.162" fill-rule="evenodd" clip-rule="evenodd" fill="#FFFFFF" width="6.98" height="10.877"/>
<path fill-rule="evenodd" clip-rule="evenodd" fill="#404041" d="M28.674,27.203c0.064-0.291,0.133-0.59,0.199-0.904
	c2.484-11.404-4.875-19.223-4.875-19.223s-7.357,7.818-4.873,19.223c0.067,0.318,0.134,0.611,0.199,0.902l-5.26,4.836l1.289,2.494
	l2.85-2.494v4.381l2.643-3.521c0.408,1.145,0.699,1.555,0.901,1.623v0.002h0.007h0.111l0,0l2.133,0.01l0.135-0.01h1.998
	c0.037,0.012,0.074,0.012,0.117,0h0.008v-0.004c0.201-0.07,0.49-0.48,0.896-1.621l2.641,3.521v-4.381l2.852,2.494l1.289-2.494
	L28.674,27.203z"/>
<path fill-rule="evenodd" clip-rule="evenodd" fill="#F37825" d="M23.353,42.672c-0.935-1.023-1.73-2.135-2.204-3.453
	c-0.331-0.92-0.432-1.867-0.328-2.838c0.014-0.119,0.033-0.162,0.17-0.137c0.264,0.053,0.42,0.137,0.473,0.457
	c0.154,0.938,0.609,1.756,1.15,2.525c0.352,0.504,0.756,0.969,1.195,1.4c0.136,0.135,0.229,0.164,0.377,0.012
	c1.152-1.174,2.094-2.465,2.398-4.129c0.027-0.129,0.42-0.33,0.543-0.275c0.082,0.041,0.041,0.121,0.049,0.186
	c0.193,1.594-0.262,3.027-1.082,4.371c-0.533,0.867-1.178,1.646-1.912,2.352c-0.132,0.131-0.221,0.162-0.354,0.01
	C23.68,42.982,23.511,42.83,23.353,42.672z"/>
<path fill-rule="evenodd" clip-rule="evenodd" fill="#EE3E23" d="M23.597,39.375c-0.585-0.639-1.08-1.332-1.376-2.154
	c-0.207-0.574-0.269-1.166-0.204-1.771c0.007-0.074,0.019-0.1,0.105-0.084c0.165,0.033,0.263,0.084,0.296,0.283
	c0.094,0.586,0.38,1.098,0.718,1.58c0.22,0.311,0.471,0.602,0.745,0.871c0.084,0.086,0.143,0.104,0.236,0.006
	c0.718-0.73,1.305-1.537,1.496-2.576c0.016-0.08,0.262-0.205,0.338-0.17c0.051,0.023,0.027,0.074,0.031,0.115
	c0.119,0.992-0.164,1.891-0.676,2.729c-0.331,0.541-0.735,1.025-1.191,1.467c-0.083,0.082-0.14,0.102-0.221,0.006
	C23.801,39.57,23.695,39.477,23.597,39.375z"/>
<g>
	<linearGradient id="SVGID_4_" gradientUnits="userSpaceOnUse" x1="24.063" y1="19.9727" x2="24.063" y2="15.957">
		<stop  offset="0.0099" style="stop-color:#26A9E0"/>
		<stop  offset="1" style="stop-color:#F1F1F2"/>
	</linearGradient>
	<circle fill="url(#SVGID_4_)" cx="24.063" cy="17.967" r="2.008"/>
	<circle opacity="0.24" fill="url(#Arrows_Dark)" cx="24.063" cy="17.967" r="2.008"/>
	
		<radialGradient id="SVGID_5_" cx="24.645" cy="19.314" r="3.0208" gradientTransform="matrix(1 0 0 0.4883 0 9.8827)" gradientUnits="userSpaceOnUse">
		<stop  offset="0.8111" style="stop-color:#28AAE1;stop-opacity:0"/>
		<stop  offset="0.8802" style="stop-color:#7BCBED;stop-opacity:0.3331"/>
		<stop  offset="0.9627" style="stop-color:#D9F0FA;stop-opacity:0.7305"/>
		<stop  offset="1" style="stop-color:#FFFFFF;stop-opacity:0.91"/>
	</radialGradient>
	<circle opacity="0.56" fill="url(#SVGID_5_)" cx="24.063" cy="17.967" r="2.008"/>
</g>
</svg>
