<?xml version="1.0" encoding="utf-8"?>
<!-- Generator: Adobe Illustrator 16.0.0, SVG Export Plug-In . SVG Version: 6.00 Build 0)  -->
<!DOCTYPE svg PUBLIC "-//W3C//DTD SVG 1.0//EN" "http://www.w3.org/TR/2001/REC-SVG-20010904/DTD/svg10.dtd">
<svg version="1.0" id="Layer_1" xmlns="http://www.w3.org/2000/svg" xmlns:xlink="http://www.w3.org/1999/xlink" x="0px" y="0px"
	 width="48px" height="48px" viewBox="0 0 48 48" enable-background="new 0 0 48 48" xml:space="preserve">
<g>
	<circle fill="#3EB44A" cx="24.023" cy="24.162" r="23.788"/>
	<linearGradient id="SVGID_1_" gradientUnits="userSpaceOnUse" x1="24.0229" y1="47.9512" x2="24.0229" y2="0.3755">
		<stop  offset="0" style="stop-color:#915DA5;stop-opacity:0.13"/>
		<stop  offset="0.1757" style="stop-color:#8E5DA5;stop-opacity:0.187"/>
		<stop  offset="0.3073" style="stop-color:#845BA5;stop-opacity:0.2297"/>
		<stop  offset="0.4245" style="stop-color:#7459A4;stop-opacity:0.2678"/>
		<stop  offset="0.5333" style="stop-color:#5E57A3;stop-opacity:0.3031"/>
		<stop  offset="0.6355" style="stop-color:#4053A2;stop-opacity:0.3363"/>
		<stop  offset="0.6778" style="stop-color:#3251A2;stop-opacity:0.35"/>
		<stop  offset="1" style="stop-color:#4865AE"/>
	</linearGradient>
	<circle fill="url(#SVGID_1_)" cx="24.023" cy="24.162" r="23.788"/>
	
		<radialGradient id="SVGID_2_" cx="24.0229" cy="24.1631" r="23.7878" gradientTransform="matrix(1 0 0 0.5 0 12.0815)" gradientUnits="userSpaceOnUse">
		<stop  offset="0" style="stop-color:#78C487;stop-opacity:0"/>
		<stop  offset="0.2308" style="stop-color:#77C38A;stop-opacity:0.1616"/>
		<stop  offset="0.4332" style="stop-color:#72C195;stop-opacity:0.3032"/>
		<stop  offset="0.625" style="stop-color:#6BBDA7;stop-opacity:0.4375"/>
		<stop  offset="0.8101" style="stop-color:#62B8C0;stop-opacity:0.5671"/>
		<stop  offset="0.9891" style="stop-color:#55B0E1;stop-opacity:0.6924"/>
		<stop  offset="1" style="stop-color:#54B0E3;stop-opacity:0.7"/>
	</radialGradient>
	<circle opacity="0.51" fill="url(#SVGID_2_)" cx="24.023" cy="24.162" r="23.788"/>
	<linearGradient id="SVGID_3_" gradientUnits="userSpaceOnUse" x1="24.0229" y1="0.375" x2="24.0229" y2="47.9517">
		<stop  offset="0" style="stop-color:#FFFFFF;stop-opacity:0.77"/>
		<stop  offset="0.45" style="stop-color:#FFFFFF;stop-opacity:0"/>
		<stop  offset="0.4591" style="stop-color:#EEF0F7;stop-opacity:0.0027"/>
		<stop  offset="0.4839" style="stop-color:#C5CDE4;stop-opacity:0.0098"/>
		<stop  offset="0.5116" style="stop-color:#9FADD3;stop-opacity:0.0179"/>
		<stop  offset="0.5419" style="stop-color:#7F91C4;stop-opacity:0.0267"/>
		<stop  offset="0.5752" style="stop-color:#637AB8;stop-opacity:0.0364"/>
		<stop  offset="0.613" style="stop-color:#4D67AE;stop-opacity:0.0474"/>
		<stop  offset="0.657" style="stop-color:#3C59A6;stop-opacity:0.0602"/>
		<stop  offset="0.7115" style="stop-color:#314EA1;stop-opacity:0.0761"/>
		<stop  offset="0.7879" style="stop-color:#2A499E;stop-opacity:0.0983"/>
		<stop  offset="1" style="stop-color:#28479D;stop-opacity:0.16"/>
	</linearGradient>
	<circle opacity="0.7" fill="url(#SVGID_3_)" cx="24.023" cy="24.162" r="23.788"/>
	<g opacity="0.49">
		<path fill="#FFFFFF" d="M24.023,47.453c-12.029-0.195-21.95-9.17-23.315-21.131C-0.851,12.666,10.769,1.09,24.023,0.873
			c12.01-0.193,21.984,9.463,23.315,21.131C48.898,35.66,37.277,47.238,24.023,47.453c-0.003,0,0,0.277,0,0.277
			c12.612-0.205,22.801-10.061,23.415-22.662c0.483-9.904-5.618-18.943-14.644-22.766C20.899-2.738,7.212,3.658,2.301,15.252
			c-3.776,8.91-1.161,19.471,5.682,26.107c4.281,4.154,10.139,6.275,16.041,6.371C24.024,47.73,24.028,47.453,24.023,47.453z"/>
	</g>
	<circle fill="none" stroke="#4B67B0" stroke-width="0.25" stroke-miterlimit="1" cx="24.023" cy="24.162" r="23.788"/>
	<g opacity="0.58">
		<path fill="#4762AC" d="M47.81,23.865c-0.203,12.803-10.24,23.121-23.015,23.729c-12.503,0.596-23.093-9.313-24.45-21.484
			C-1.185,12.4,10.856,0.93,24.023,0.721c13.082-0.209,23.583,10.951,23.786,23.74c0,0.035,0.005-0.459,0.003-0.596
			C47.619,11.611,38.523,1.498,26.315,0.139C13.581-1.279,2.211,8.369,0.428,20.775C-0.959,30.43,3.71,40.012,12.018,45.049
			c10.978,6.654,25.355,2.598,32.173-7.918c2.442-3.766,3.552-8.221,3.622-12.67C47.814,24.326,47.81,23.83,47.81,23.865z"/>
	</g>
</g>
<g>
	<path fill-rule="evenodd" clip-rule="evenodd" fill="#F1F1F2" d="M2.059,15.127c-0.13,0.832,0.107,1.277,0.766,1.514
		c0.364,0.133,0.227,0.535,0.189,0.791c-0.142,0.967,0.326,1.707,0.787,2.473c0.226,0.379,0.611,0.455,0.88,0.285
		c0.265-0.164,0.121-0.529-0.072-0.787c-0.436-0.59-0.795-1.217-0.8-1.98c-0.001-0.152-0.082-0.342,0.139-0.4
		c0.24-0.064,0.364,0.082,0.368,0.301c0.02,1.076,0.72,1.82,1.265,2.643c0.091,0.135,0.173,0.258,0.157,0.438
		c-0.15,1.566,1.179,2.57,2.67,2.031c0.266-0.1,0.692-0.047,0.688,0.16c-0.011,0.6,0.408,0.551,0.743,0.604
		c0.679,0.113,1.187,0.447,1.572,1.014c0.428,0.633,0.988,1.008,1.815,0.943c0.242-0.021,0.732-0.16,0.752,0.355
		c0.017,0.49,0.438,1.039-0.228,1.455c-0.361,0.229-0.917,0.346-0.868,0.943c0.07,0.854-0.458,1.752,0.402,2.555
		c0.567,0.523,1.163,1.129,1.293,1.988c0.042,0.285,0.327,0.23,0.517,0.303c1.286,0.488,1.66,1.02,1.66,2.357
		c0,0.566-0.03,1.137,0.012,1.699c0.031,0.432-0.183,0.887,0.368,1.283c0.318,0.225-0.062,0.855-0.128,1.299
		c-0.054,0.35-0.056,0.627,0.205,0.879c0.465,0.447,0.599,0.99,0.48,1.613c-0.252,1.328,0.556,2.234,1.321,3.119
		c0.524,0.607,1.131,1.166,2.068,0.973c0.182-0.037,0.388,0.018,0.476-0.209c0.088-0.229-0.054-0.367-0.218-0.467
		c-0.639-0.381-0.865-0.881-0.548-1.605c0.108-0.246,0.075-0.486-0.348-0.533c-0.444-0.051-0.804-0.271-0.286-0.773
		c0.287-0.279,0.567-0.615-0.109-0.791c-0.147-0.039-0.25-0.139-0.189-0.291c0.033-0.082,0.15-0.174,0.233-0.18
		c1.573-0.082,2.33-1.199,3.144-2.334c0.533-0.744,1.019-1.367,0.66-2.379c-0.229-0.639,0.272-1.084,0.992-1.061
		c1.126,0.045,1.634-0.398,1.713-1.508c0.079-1.127,0.164-2.219,1.048-3.115c0.536-0.543,0.382-0.914-0.311-1.221
		c-0.151-0.07-0.319-0.115-0.373-0.279c-0.268-0.838-0.934-0.83-1.622-0.785c-0.545,0.035-1.052-0.1-1.575-0.264
		c-0.714-0.221-1.095-0.506-1.11-1.361c-0.012-0.633-0.355-1.336-1.281-1.188c-0.599,0.094-0.943-0.193-1.2-0.707
		c-0.152-0.301-0.298-0.658-0.665-0.777c-0.172-0.055-0.281-0.166-0.579,0.01c-0.48,0.281-1.169,0.529-1.7-0.211
		c-0.487-0.68-1.57-0.617-2.125,0.029c-0.679,0.795-1.337,0.936-2.313,0.518c-0.172-0.074-0.269-0.15-0.267-0.338
		c0.002-0.135-0.006-0.27-0.014-0.404c-0.074-1.375-0.074-1.375-1.39-1.684c-0.011-0.512,0.833-1.008,0.254-1.414
		c-0.328-0.234-0.85,0.4-1.243,0.689c-0.558,0.416-1.168,0.428-1.64,0.066c-0.444-0.334-0.396-0.916-0.23-1.488
		c0.399-1.385,1.695-2.152,2.894-2.092c0.376,0.018,0.755,0,1.133,0.002c0.463,0.002,0.978-0.158,0.918,0.678
		c-0.031,0.434,0.542,0.395,1.016,0.701c-0.514-1.617,0.497-2.229,1.505-2.83c0.31-0.188,0.473-0.426,0.617-0.777
		c0.33-0.814,1.018-1.371,1.713-1.869c0.559-0.402,1.207-0.656,1.628-1.264c0.212-0.311,0.504-0.768,1.052-0.375
		c0.168,0.119,0.308-0.084,0.353-0.221c0.064-0.193-0.122-0.189-0.247-0.211c-0.32-0.053-0.545-0.221-0.351-0.545
		c0.208-0.338,0.621-0.324,0.847-0.092c0.5,0.521,0.937,0.461,1.413,0.02c0.127-0.121,0.25-0.068,0.353,0.021
		c0.119,0.109,0.099,0.25-0.002,0.355c-0.607,0.633-0.057,0.727,0.4,0.867c0.18,0.055,0.357,0.121,0.541,0.156
		c0.177,0.037,0.395,0.105,0.443-0.178c0.032-0.193,0.011-0.361-0.212-0.463c-0.31-0.139-0.689-0.176-0.869-0.582
		c0.173-0.078,0.34-0.15,0.501-0.232c0.484-0.254,0.542-0.855,0.061-1.117c-0.467-0.25-0.673-0.564-0.605-1.088
		c0.071-0.537-0.117-0.701-0.609-0.389c-0.159,0.1-0.333,0.18-0.507,0.246C21.885,8.783,21.627,8.82,21.7,8.258
		c0.155-1.188-0.907-0.725-1.402-0.896c-0.468-0.162-0.945,0.238-0.892,0.84c0.071,0.813-0.032,1.42-1.027,1.521
		c-0.4,0.041-0.431,0.514-0.592,0.807c-0.118,0.215-0.236,0.354-0.484,0.326c-0.358-0.041-0.233-0.332-0.213-0.502
		c0.07-0.592-0.103-0.902-0.757-0.881c-0.292,0.008-0.58-0.115-0.816-0.313c-0.505-0.418-0.479-0.941,0.078-1.264
		c0.695-0.402,1.335-0.918,2.139-1.109c0.15-0.033,0.338-0.264,0.485,0.012c0.113,0.209,0.156,0.693,0.454,0.451
		c0.218-0.18,0.946-0.109,0.633-0.77c-0.023-0.049,0.033-0.189,0.071-0.199c0.895-0.199,1.574-1.014,2.574-0.906
		c0.352,0.037,0.548,0.301,0.821,0.586c-0.534,0.297-1.042,0.584-1.672,0.938c0.725,0.189,1.497,0.648,1.896,0.432
		c0.591-0.326,1.225-0.623,1.801-0.996c0.052-0.033,0.051-0.148,0.073-0.225c-0.871-0.088-0.488-1.215-1.364-1.502
		c-1.132-0.373-2.152-0.77-3.314-0.244c-0.386,0.172-0.618,0.381-0.538,0.848c0.025,0.148,0.139,0.434-0.136,0.459
		c-0.244,0.021-0.557,0.096-0.723-0.207c-0.108-0.195-0.165-0.406,0.021-0.594c0.182-0.186,0.373-0.361,0.711-0.688
		c-0.691,0-1.189-0.002-1.686,0c-0.219,0.002-0.341,0.146-0.422,0.326c-0.118,0.266,0.071,0.283,0.26,0.363
		c0.34,0.146,0.154,0.561,0.034,0.553c-0.767-0.055-1.272,0.752-2.072,0.566c-0.286-0.064-0.489-0.037-0.518-0.426
		c-0.032-0.438,0.21-0.447,0.489-0.402c0.533,0.088,0.851-0.225,1.158-0.572c0.097-0.109,0.289-0.211,0.1-0.383
		c-0.137-0.125-0.275-0.094-0.436,0.006c-1.061,0.65-1.103,0.611-1.964-0.232c-0.503-0.484-1.142-0.344-1.703-0.057
		c-0.351,0.182-0.647,0.467-0.996,0.729c0.212,0.25,0.465,0.104,0.675,0.141c0.154,0.029,0.438-0.021,0.424,0.127
		c-0.085,0.887,0.574,0.506,0.948,0.576c0.221,0.045,0.374,0.139,0.334,0.359c-0.038,0.229-0.257,0.1-0.394,0.135
		c-0.863,0.234-1.405-0.547-2.163-0.701c-0.46-0.096-0.913-0.262-1.397-0.258c-0.083-0.252,0.144-0.26,0.249-0.332
		c8.782-5.98,20.179-5.439,28.375,1.344c0.604,0.5,0.564,0.715-0.185,1.057c-0.269,0.121-0.565,0.209-0.784,0.393
		c-0.397,0.336-0.654,0.725,0.079,0.998c0.157,0.059,0.284,0.129,0.331,0.314c0.113,0.445,0.332,0.654,0.785,0.336
		c0.129-0.09,0.346-0.172,0.414,0.027c0.082,0.25,0.115,0.535,0.084,0.793c-0.026,0.211-0.258,0.141-0.406,0.109
		c-0.953-0.199-1.707,0.035-2.14,0.973c-0.165,0.357-0.519,0.35-0.826,0.408c-0.769,0.152-0.934,0.574-0.427,1.213
		c0.15,0.188,0.121,0.352,0.053,0.518c-0.08,0.195-0.262,0.119-0.42,0.1c-0.447-0.045-0.876-0.143-1.35-0.057
		c-0.621,0.117-0.838,0.453-0.783,1.002c0.059,0.568,0.006,1.262,0.844,1.33c0.48,0.035,0.969-0.016,1.453-0.01
		c0.255,0.002,0.379-0.111,0.469-0.35c0.214-0.561,0.676-0.965,1.012-1.451c0.102-0.15,0.223-0.379,0.436-0.277
		c0.555,0.262,0.848-0.121,1.215-0.494c0.338,0.689,0.998,0.945,1.54,1.35c0.161,0.123,0.474,0.172,0.435,0.416
		c-0.049,0.314-0.357,0.24-0.594,0.242c-0.068,0-0.134,0.045-0.252,0.088c0.241,0.35,0.494,0.439,0.895,0.363
		c0.614-0.115,0.352-0.65,0.516-0.969c0.166-0.32-0.213-0.375-0.394-0.477c-0.539-0.303-1.147-0.531-1.093-1.322
		c1.086-0.145,2.001,0.52,2.117,1.572c0.064,0.588,0.55,0.816,0.877,1.205c0.385-0.482,0.119-1.348,0.998-1.48
		c0.057,0.279,0.07,0.582,0.18,0.842c0.174,0.424,0.404,0.914,0.949,0.822c0.846-0.143,1.036,0.34,1.221,0.99
		c0.285,1.01,0.314,0.969-0.744,1.014c-0.686,0.033-1.229-0.154-1.761-0.594c-0.606-0.502-1.297-0.307-1.574,0.379
		c-0.136,0.338-0.337,0.209-0.499,0.09c-0.412-0.301-0.9-0.383-1.367-0.463c-0.723-0.121-1.221-0.336-1.038-1.211
		c0.069-0.328-0.116-0.389-0.433-0.35c-0.978,0.123-1.99-0.043-2.912,0.51c-0.265,0.16-0.697,0.119-1.03,0.059
		c-0.702-0.135-1.169,0.311-1.708,0.586c-0.281,0.146-0.238,0.42-0.2,0.645c0.103,0.627-0.177,0.994-0.69,1.305
		c-0.552,0.336-1.053,0.75-1.575,1.129c-0.51,0.367-0.365,0.826,0.069,0.986c0.584,0.215,0.258,0.576,0.167,0.748
		c-0.553,1.063-0.489,2.02,0.261,2.895c0.07,0.08,0.132,0.168,0.203,0.248c1.564,1.805,1.714,1.855,4.029,1.477
		c0.242-0.041,0.359-0.213,0.538-0.318c0.423-0.25,0.942-0.342,1.276-0.012c0.441,0.436,0.929,0.479,1.469,0.492
		c0.261,0.008,0.526,0.053,0.418,0.406c-0.455,1.508,0.379,2.646,1.096,3.801c0.318,0.518,0.411,0.949,0.054,1.471
		c-0.548,0.797-0.798,1.586,0.115,2.342c0.274,0.227,0.081,0.617,0.122,0.93c0.051,0.395-0.159,0.852,0.123,1.178
		c0.578,0.664,0.914,1.373,0.778,2.27c-0.074,0.502,0.379,0.314,0.606,0.418c-5.893,7.787-18.554,11.861-29.572,5.664
		C0.537,38.1-2.138,24.48,2.059,15.127z"/>
	<path fill-rule="evenodd" clip-rule="evenodd" fill="#F1F1F2" d="M40.961,8.078c0.294,0.32,0.549,0.582,0.786,0.861
		c0.333,0.393,0.131,0.953-0.38,1.049c-0.154,0.031-0.32,0.021-0.479,0c-0.328-0.047-0.826,0.178-0.945-0.193
		c-0.119-0.377,0.418-0.389,0.666-0.535C41.095,8.975,40.729,8.514,40.961,8.078z"/>
	<path fill-rule="evenodd" clip-rule="evenodd" fill="#F1F1F2" d="M15.336,12.43c-0.501-0.033-1.003-0.059-1.504-0.104
		c-0.275-0.023-0.538-0.172-0.243-0.432c0.368-0.33,0.88-0.398,1.354-0.285c0.422,0.098,0.404,0.486,0.373,0.836L15.336,12.43z"/>
	<path fill-rule="evenodd" clip-rule="evenodd" fill="#F1F1F2" d="M10.463,6.76c-0.154-0.047-0.579,0.158-0.544-0.252
		c0.044-0.529,0.591-0.379,0.932-0.479c0.184-0.055,0.485-0.053,0.448,0.264C11.248,6.729,10.916,6.814,10.463,6.76z"/>
	<path fill-rule="evenodd" clip-rule="evenodd" fill="#F1F1F2" d="M14.688,12.607c-0.29,0.408-0.536,0.76-0.79,1.109
		c-0.097,0.133-0.205,0.232-0.393,0.113c-0.165-0.105-0.199-0.264-0.151-0.416C13.54,12.83,13.876,12.447,14.688,12.607z"/>
	<path fill-rule="evenodd" clip-rule="evenodd" fill="#F1F1F2" d="M13.192,10.082c-0.033,0.438-0.155,0.721-0.549,0.748
		c-0.368,0.029-0.409-0.314-0.461-0.535c-0.089-0.381,0.276-0.391,0.506-0.43C12.897,9.832,13.188,9.803,13.192,10.082z"/>
	<path fill-rule="evenodd" clip-rule="evenodd" fill="#F1F1F2" d="M15.315,12.445c0.193,0.186,0.581-0.068,0.683,0.289
		c0.044,0.158-0.028,0.313-0.175,0.416c-0.186,0.125-0.428,0.242-0.584,0.072c-0.242-0.258-0.049-0.537,0.096-0.791
		C15.336,12.43,15.315,12.445,15.315,12.445z"/>
	<path fill-rule="evenodd" clip-rule="evenodd" fill="#F1F1F2" d="M9.956,7.748c0.091-0.08,0.136-0.146,0.199-0.166
		c0.358-0.113,0.712-0.35,1.098-0.109c0.041,0.025,0.026,0.254-0.021,0.281C10.827,7.967,10.411,8.016,9.956,7.748z"/>
	<path fill-rule="evenodd" clip-rule="evenodd" fill="#F1F1F2" d="M15.183,14.279c-0.16-0.029-0.428,0.08-0.379-0.24
		c0.063-0.41,0.475-0.357,0.735-0.492c0.217-0.109,0.276,0.08,0.258,0.252C15.759,14.158,15.511,14.273,15.183,14.279z"/>
	<path fill-rule="evenodd" clip-rule="evenodd" fill="#F1F1F2" d="M17.172,13.504c0.012,0.318-0.221,0.26-0.391,0.275
		c-0.29,0.025-0.545-0.016-0.583-0.379c-0.02-0.186,0.045-0.361,0.251-0.271C16.697,13.236,17.067,13.148,17.172,13.504z"/>
	<path fill-rule="evenodd" clip-rule="evenodd" fill="#F1F1F2" d="M44.613,13.605c0.099-0.014,0.14-0.027,0.146-0.018
		c0.203,0.289,0.484,0.557,0.354,0.953c-0.018,0.051-0.303,0.096-0.371,0.035C44.406,14.285,44.634,13.93,44.613,13.605z"/>
</g>
<g>
	<g>
		<line fill="none" x1="31.36" y1="12.748" x2="40.099" y2="12.41"/>
		<g>
			<g>
				<polygon fill="#231F20" stroke="#231F20" stroke-width="0.45" points="31.428,13.197 37.316,14.088 37.349,14.898 
					38.496,13.664 39.646,12.43 38.404,11.289 37.164,10.146 37.193,10.928 31.392,12.273 				"/>
			</g>
			<polygon fill="#231F20" points="39.614,12.424 40.089,12.406 37.602,15.012 37.279,15.027 			"/>
			<polygon fill="#231F20" points="39.623,12.432 40.099,12.414 37.418,10.004 37.096,10.021 			"/>
		</g>
	</g>
	<g>
		<line fill="none" x1="30.631" y1="13.938" x2="30.969" y2="22.676"/>
		<g>
			<g>
				<polygon fill="#231F20" stroke="#231F20" stroke-width="0.45" points="30.181,14.008 29.289,19.895 28.479,19.926 
					29.713,21.074 30.947,22.223 32.088,20.984 33.23,19.742 32.451,19.773 31.105,13.971 				"/>
			</g>
			<polygon fill="#231F20" points="30.955,22.193 30.974,22.664 28.367,20.18 28.354,19.857 			"/>
			<polygon fill="#231F20" points="30.945,22.203 30.965,22.676 33.372,19.996 33.359,19.674 			"/>
		</g>
	</g>
	<g>
		<line fill="none" x1="30.551" y1="11.832" x2="30.213" y2="3.098"/>
		<g>
			<g>
				<polygon fill="#231F20" stroke="#231F20" stroke-width="0.45" points="31,11.766 31.893,5.877 32.699,5.848 31.466,4.697 
					30.234,3.549 29.092,4.791 27.951,6.031 28.73,6 30.076,11.805 				"/>
			</g>
			<polygon fill="#231F20" points="30.225,3.58 30.208,3.107 32.814,5.592 32.827,5.914 			"/>
			<polygon fill="#231F20" points="30.235,3.57 30.217,3.098 27.81,5.775 27.822,6.098 			"/>
		</g>
	</g>
	<g>
		<line fill="none" x1="29.701" y1="12.813" x2="20.963" y2="13.15"/>
		<g>
			<g>
				<polygon fill="#231F20" stroke="#231F20" stroke-width="0.45" points="29.635,12.361 23.745,11.469 23.714,10.66 22.565,11.895 
					21.417,13.129 22.658,14.27 23.897,15.41 23.868,14.631 29.67,13.283 				"/>
			</g>
			<polygon fill="#231F20" points="21.446,13.137 20.972,13.154 23.46,10.545 23.78,10.533 			"/>
			<polygon fill="#231F20" points="21.437,13.125 20.962,13.145 23.644,15.553 23.965,15.539 			"/>
		</g>
	</g>
</g>
<g>
	<g>
		<line fill="none" x1="15.812" y1="36.094" x2="19.976" y2="35.93"/>
		<g>
			<g>
				<polygon fill="#231F20" stroke="#231F20" stroke-width="0.45" points="15.843,36.305 18.648,36.734 18.665,37.117 
					19.211,36.527 19.758,35.941 19.168,35.398 18.576,34.855 18.591,35.227 15.827,35.865 				"/>
			</g>
			<polygon fill="#231F20" points="19.744,35.938 19.969,35.928 18.786,37.172 18.631,37.178 			"/>
			<polygon fill="#231F20" points="19.749,35.941 19.976,35.932 18.697,34.785 18.543,34.791 			"/>
		</g>
	</g>
	<g>
		<line fill="none" x1="15.464" y1="36.658" x2="15.625" y2="40.824"/>
		<g>
			<g>
				<polygon fill="#231F20" stroke="#231F20" stroke-width="0.45" points="15.249,36.689 14.823,39.496 14.438,39.512 
					15.026,40.059 15.615,40.607 16.16,40.016 16.702,39.424 16.331,39.438 15.69,36.674 				"/>
			</g>
			<polygon fill="#231F20" points="15.618,40.592 15.628,40.818 14.385,39.635 14.379,39.479 			"/>
			<polygon fill="#231F20" points="15.614,40.596 15.622,40.824 16.771,39.545 16.764,39.393 			"/>
		</g>
	</g>
	<g>
		<line fill="none" x1="15.425" y1="35.656" x2="15.264" y2="31.494"/>
		<g>
			<g>
				<polygon fill="#231F20" stroke="#231F20" stroke-width="0.45" points="15.64,35.625 16.065,32.82 16.45,32.805 15.862,32.256 
					15.276,31.709 14.73,32.303 14.188,32.891 14.559,32.877 15.198,35.641 				"/>
			</g>
			<polygon fill="#231F20" points="15.271,31.725 15.262,31.498 16.504,32.682 16.51,32.836 			"/>
			<polygon fill="#231F20" points="15.276,31.721 15.266,31.494 14.12,32.77 14.125,32.926 			"/>
		</g>
	</g>
	<g>
		<line fill="none" x1="15.021" y1="36.121" x2="10.857" y2="36.283"/>
		<g>
			<g>
				<polygon fill="#231F20" stroke="#231F20" stroke-width="0.45" points="14.989,35.908 12.182,35.484 12.168,35.098 
					11.621,35.686 11.073,36.273 11.665,36.816 12.255,37.361 12.241,36.988 15.006,36.35 				"/>
			</g>
			<polygon fill="#231F20" points="11.089,36.275 10.861,36.287 12.047,35.043 12.2,35.037 			"/>
			<polygon fill="#231F20" points="11.083,36.271 10.857,36.281 12.134,37.428 12.288,37.424 			"/>
		</g>
	</g>
</g>
<g>
	<polygon fill="#F9E83D" stroke="#231F20" stroke-width="0.9253" points="26.825,17.031 22.992,19.795 24.107,22.885 20.839,24.021 
		21.623,26.555 18.506,27.467 19.381,30.393 17.676,29.24 18.472,32.795 22.226,31.984 20.608,31.223 19.98,28.463 22.935,27.783 
		22.465,24.789 25.82,24.043 25.018,20.486 28.992,18.83 	"/>
</g>
</svg>
