<?xml version="1.0" encoding="utf-8"?>
<!-- Generator: Adobe Illustrator 16.0.0, SVG Export Plug-In . SVG Version: 6.00 Build 0)  -->
<!DOCTYPE svg PUBLIC "-//W3C//DTD SVG 1.0//EN" "http://www.w3.org/TR/2001/REC-SVG-20010904/DTD/svg10.dtd">
<svg version="1.0" id="Layer_1" xmlns="http://www.w3.org/2000/svg" xmlns:xlink="http://www.w3.org/1999/xlink" x="0px" y="0px"
	 width="48px" height="48px" viewBox="0 0 48 48" enable-background="new 0 0 48 48" xml:space="preserve">
<g>
	<path fill="#3EB44A" d="M47.813,24.018c0,13.139-10.648,23.789-23.791,23.789c-13.137,0-23.787-10.65-23.787-23.789
		c0-13.137,10.65-23.787,23.787-23.787C37.164,0.23,47.813,10.881,47.813,24.018z"/>
	<linearGradient id="SVGID_1_" gradientUnits="userSpaceOnUse" x1="24.0239" y1="47.8066" x2="24.0239" y2="0.231">
		<stop  offset="0" style="stop-color:#915DA5;stop-opacity:0.13"/>
		<stop  offset="0.1757" style="stop-color:#8E5DA5;stop-opacity:0.187"/>
		<stop  offset="0.3073" style="stop-color:#845BA5;stop-opacity:0.2297"/>
		<stop  offset="0.4245" style="stop-color:#7459A4;stop-opacity:0.2678"/>
		<stop  offset="0.5333" style="stop-color:#5E57A3;stop-opacity:0.3031"/>
		<stop  offset="0.6355" style="stop-color:#4053A2;stop-opacity:0.3363"/>
		<stop  offset="0.6778" style="stop-color:#3251A2;stop-opacity:0.35"/>
		<stop  offset="1" style="stop-color:#4865AE"/>
	</linearGradient>
	<path fill="url(#SVGID_1_)" d="M47.813,24.018c0,13.139-10.648,23.789-23.791,23.789c-13.137,0-23.787-10.65-23.787-23.789
		c0-13.137,10.65-23.787,23.787-23.787C37.164,0.23,47.813,10.881,47.813,24.018z"/>
	
		<radialGradient id="SVGID_2_" cx="24.0234" cy="24.0186" r="23.7886" gradientTransform="matrix(1 0 0 0.5 0 12.0093)" gradientUnits="userSpaceOnUse">
		<stop  offset="0" style="stop-color:#78C487;stop-opacity:0"/>
		<stop  offset="0.2308" style="stop-color:#77C38A;stop-opacity:0.1616"/>
		<stop  offset="0.4332" style="stop-color:#72C195;stop-opacity:0.3032"/>
		<stop  offset="0.625" style="stop-color:#6BBDA7;stop-opacity:0.4375"/>
		<stop  offset="0.8101" style="stop-color:#62B8C0;stop-opacity:0.5671"/>
		<stop  offset="0.9891" style="stop-color:#55B0E1;stop-opacity:0.6924"/>
		<stop  offset="1" style="stop-color:#54B0E3;stop-opacity:0.7"/>
	</radialGradient>
	<path opacity="0.51" fill="url(#SVGID_2_)" d="M47.813,24.018c0,13.139-10.648,23.789-23.791,23.789
		c-13.137,0-23.787-10.65-23.787-23.789c0-13.137,10.65-23.787,23.787-23.787C37.164,0.23,47.813,10.881,47.813,24.018z"/>
	<linearGradient id="SVGID_3_" gradientUnits="userSpaceOnUse" x1="24.0234" y1="0.2305" x2="24.0234" y2="47.8071">
		<stop  offset="0" style="stop-color:#FFFFFF;stop-opacity:0.77"/>
		<stop  offset="0.45" style="stop-color:#FFFFFF;stop-opacity:0"/>
		<stop  offset="0.4591" style="stop-color:#EEF0F7;stop-opacity:0.0027"/>
		<stop  offset="0.4839" style="stop-color:#C5CDE4;stop-opacity:0.0098"/>
		<stop  offset="0.5116" style="stop-color:#9FADD3;stop-opacity:0.0179"/>
		<stop  offset="0.5419" style="stop-color:#7F91C4;stop-opacity:0.0267"/>
		<stop  offset="0.5752" style="stop-color:#637AB8;stop-opacity:0.0364"/>
		<stop  offset="0.613" style="stop-color:#4D67AE;stop-opacity:0.0474"/>
		<stop  offset="0.657" style="stop-color:#3C59A6;stop-opacity:0.0602"/>
		<stop  offset="0.7115" style="stop-color:#314EA1;stop-opacity:0.0761"/>
		<stop  offset="0.7879" style="stop-color:#2A499E;stop-opacity:0.0983"/>
		<stop  offset="1" style="stop-color:#28479D;stop-opacity:0.16"/>
	</linearGradient>
	<path opacity="0.7" fill="url(#SVGID_3_)" d="M47.813,24.018c0,13.139-10.648,23.789-23.791,23.789
		c-13.137,0-23.787-10.65-23.787-23.789c0-13.137,10.65-23.787,23.787-23.787C37.164,0.23,47.813,10.881,47.813,24.018z"/>
	<g opacity="0.49">
		<path fill="#FFFFFF" d="M24.022,47.309c-12.027-0.195-21.948-9.17-23.313-21.131C-0.85,12.521,10.767,0.945,24.022,0.729
			c12.011-0.193,21.984,9.463,23.318,21.131C48.898,35.516,37.279,47.094,24.022,47.309c-0.004,0,0,0.277,0,0.277
			c12.615-0.205,22.8-10.061,23.416-22.66C47.922,15.02,41.82,5.98,32.797,2.158C20.898-2.885,7.212,3.514,2.3,15.107
			c-3.776,8.91-1.161,19.471,5.682,26.107c4.281,4.154,10.138,6.275,16.04,6.371C24.024,47.586,24.026,47.309,24.022,47.309z"/>
	</g>
	<path fill="none" stroke="#4B67B0" stroke-width="0.25" stroke-miterlimit="1" d="M47.813,24.018
		c0,13.139-10.648,23.789-23.791,23.789c-13.137,0-23.787-10.65-23.787-23.789c0-13.137,10.65-23.787,23.787-23.787
		C37.164,0.23,47.813,10.881,47.813,24.018z"/>
	<g opacity="0.58">
		<path fill="#4762AC" d="M47.811,23.721c-0.203,12.803-10.242,23.121-23.019,23.729c-12.5,0.598-23.09-9.313-24.448-21.484
			C-1.185,12.256,10.857,0.785,24.022,0.576c13.082-0.209,23.585,10.951,23.789,23.74c0,0.035,0.006-0.459,0.004-0.596
			c-0.197-12.254-9.293-22.367-21.5-23.727C13.581-1.424,2.21,8.225,0.428,20.631C-0.96,30.285,3.71,39.867,12.017,44.904
			c10.978,6.654,25.356,2.598,32.174-7.918c2.439-3.766,3.551-8.221,3.623-12.67C47.816,24.182,47.811,23.686,47.811,23.721z"/>
	</g>
</g>
<g>
	<path fill-rule="evenodd" clip-rule="evenodd" fill="#404041" d="M2.057,14.982c-0.128,0.832,0.109,1.277,0.767,1.514
		c0.365,0.133,0.229,0.535,0.189,0.791C2.873,18.254,3.341,18.994,3.8,19.76c0.227,0.379,0.611,0.455,0.881,0.285
		c0.264-0.164,0.119-0.529-0.072-0.787c-0.437-0.59-0.795-1.217-0.801-1.98c-0.002-0.152-0.08-0.342,0.139-0.4
		c0.24-0.064,0.365,0.082,0.369,0.301c0.021,1.076,0.72,1.82,1.266,2.643c0.089,0.135,0.173,0.258,0.156,0.438
		c-0.15,1.566,1.178,2.57,2.67,2.031c0.267-0.1,0.691-0.047,0.688,0.16c-0.011,0.6,0.408,0.551,0.742,0.604
		c0.682,0.113,1.188,0.447,1.572,1.014c0.43,0.633,0.988,1.008,1.814,0.943c0.244-0.021,0.734-0.16,0.753,0.355
		c0.017,0.49,0.438,1.039-0.228,1.455c-0.359,0.229-0.918,0.346-0.867,0.943c0.07,0.854-0.459,1.752,0.4,2.555
		c0.567,0.523,1.164,1.129,1.295,1.988c0.042,0.285,0.326,0.23,0.516,0.303c1.287,0.488,1.661,1.02,1.661,2.357
		c0,0.566-0.031,1.137,0.011,1.699c0.031,0.432-0.184,0.887,0.369,1.283c0.316,0.225-0.063,0.855-0.129,1.299
		c-0.053,0.35-0.057,0.627,0.205,0.879c0.465,0.447,0.599,0.99,0.479,1.613c-0.251,1.328,0.556,2.234,1.321,3.119
		c0.523,0.607,1.131,1.166,2.069,0.973c0.183-0.037,0.389,0.018,0.477-0.209c0.086-0.229-0.056-0.367-0.219-0.467
		c-0.64-0.381-0.866-0.881-0.548-1.605c0.107-0.246,0.074-0.486-0.35-0.533c-0.443-0.051-0.803-0.271-0.285-0.773
		c0.287-0.279,0.566-0.615-0.11-0.791c-0.146-0.039-0.249-0.139-0.188-0.291c0.033-0.082,0.15-0.174,0.234-0.18
		c1.572-0.082,2.33-1.199,3.143-2.334c0.536-0.744,1.02-1.367,0.659-2.379c-0.229-0.639,0.273-1.084,0.993-1.061
		c1.125,0.045,1.633-0.398,1.711-1.508c0.08-1.127,0.166-2.219,1.047-3.115c0.539-0.543,0.383-0.914-0.309-1.221
		c-0.152-0.07-0.32-0.115-0.375-0.279c-0.266-0.838-0.932-0.83-1.621-0.785c-0.545,0.035-1.052-0.1-1.573-0.264
		c-0.717-0.221-1.096-0.506-1.112-1.361c-0.012-0.633-0.354-1.336-1.279-1.188c-0.6,0.094-0.944-0.193-1.201-0.707
		c-0.152-0.301-0.298-0.658-0.664-0.777c-0.173-0.055-0.282-0.166-0.579,0.01c-0.48,0.281-1.169,0.529-1.699-0.211
		c-0.488-0.68-1.571-0.617-2.125,0.029c-0.68,0.795-1.339,0.936-2.314,0.518c-0.172-0.074-0.27-0.15-0.266-0.338
		c0-0.135-0.007-0.27-0.012-0.404c-0.076-1.375-0.076-1.375-1.393-1.684c-0.01-0.512,0.834-1.008,0.256-1.414
		c-0.328-0.234-0.851,0.4-1.243,0.689c-0.558,0.416-1.168,0.428-1.641,0.066c-0.442-0.334-0.394-0.916-0.229-1.488
		c0.399-1.385,1.694-2.152,2.894-2.092c0.375,0.018,0.755,0,1.133,0.002c0.464,0.002,0.979-0.158,0.918,0.678
		c-0.031,0.434,0.541,0.395,1.017,0.701c-0.515-1.617,0.497-2.229,1.505-2.83c0.311-0.188,0.473-0.426,0.617-0.777
		c0.33-0.814,1.018-1.371,1.713-1.869c0.56-0.402,1.206-0.656,1.627-1.264c0.214-0.311,0.504-0.768,1.053-0.375
		c0.168,0.119,0.307-0.084,0.354-0.221c0.063-0.193-0.122-0.189-0.247-0.211c-0.321-0.053-0.546-0.221-0.351-0.545
		c0.207-0.338,0.621-0.324,0.846-0.092c0.5,0.521,0.938,0.461,1.414,0.02c0.127-0.121,0.249-0.068,0.35,0.021
		c0.121,0.109,0.101,0.25-0.002,0.355c-0.605,0.633-0.055,0.727,0.402,0.867c0.181,0.055,0.357,0.121,0.541,0.156
		c0.175,0.037,0.394,0.105,0.441-0.178c0.033-0.193,0.013-0.361-0.212-0.463c-0.308-0.139-0.688-0.176-0.868-0.582
		c0.172-0.078,0.339-0.15,0.499-0.232c0.484-0.254,0.547-0.855,0.063-1.117c-0.467-0.25-0.673-0.563-0.604-1.086
		c0.069-0.539-0.121-0.703-0.611-0.391c-0.16,0.1-0.334,0.18-0.509,0.246c-0.365,0.141-0.622,0.176-0.548-0.385
		c0.154-1.189-0.908-0.725-1.402-0.898c-0.471-0.162-0.945,0.238-0.892,0.84c0.07,0.814-0.032,1.42-1.026,1.521
		c-0.402,0.041-0.432,0.514-0.594,0.807c-0.117,0.215-0.234,0.354-0.484,0.326c-0.355-0.041-0.23-0.332-0.213-0.502
		c0.071-0.592-0.103-0.902-0.756-0.881c-0.292,0.01-0.582-0.113-0.816-0.311c-0.504-0.42-0.479-0.943,0.078-1.266
		c0.695-0.402,1.336-0.918,2.138-1.109c0.151-0.033,0.338-0.264,0.485,0.012c0.115,0.209,0.158,0.693,0.455,0.451
		c0.217-0.18,0.947-0.109,0.633-0.77c-0.021-0.049,0.033-0.189,0.07-0.197c0.896-0.201,1.575-1.014,2.573-0.908
		c0.354,0.039,0.55,0.301,0.823,0.586c-0.535,0.297-1.041,0.584-1.674,0.938c0.727,0.189,1.496,0.648,1.896,0.432
		c0.593-0.326,1.224-0.623,1.801-0.996c0.052-0.033,0.052-0.148,0.073-0.225c-0.873-0.088-0.488-1.215-1.364-1.502
		c-1.131-0.373-2.152-0.77-3.314-0.244c-0.385,0.172-0.619,0.381-0.537,0.848c0.025,0.148,0.139,0.434-0.137,0.459
		c-0.242,0.021-0.557,0.096-0.723-0.207c-0.109-0.195-0.164-0.406,0.021-0.594c0.182-0.186,0.373-0.359,0.711-0.688
		c-0.689,0-1.188-0.002-1.686,0c-0.217,0.002-0.342,0.146-0.422,0.328c-0.119,0.264,0.07,0.281,0.26,0.361
		c0.34,0.146,0.152,0.561,0.033,0.553c-0.766-0.055-1.271,0.752-2.072,0.568c-0.284-0.066-0.49-0.039-0.518-0.428
		c-0.031-0.438,0.209-0.447,0.488-0.402c0.533,0.088,0.85-0.225,1.158-0.572c0.098-0.109,0.29-0.211,0.101-0.383
		c-0.135-0.125-0.275-0.092-0.437,0.008c-1.059,0.648-1.102,0.609-1.965-0.234c-0.5-0.484-1.14-0.344-1.7-0.057
		c-0.352,0.182-0.648,0.467-0.997,0.73c0.214,0.248,0.466,0.102,0.676,0.139c0.153,0.029,0.438-0.021,0.424,0.127
		c-0.087,0.889,0.573,0.506,0.948,0.576c0.221,0.045,0.372,0.139,0.333,0.359c-0.037,0.229-0.259,0.1-0.395,0.137
		c-0.863,0.232-1.404-0.549-2.163-0.703c-0.459-0.096-0.912-0.262-1.396-0.256c-0.082-0.254,0.144-0.262,0.248-0.332
		C19.23-1.426,30.629-0.885,38.82,5.898c0.605,0.5,0.566,0.715-0.186,1.057c-0.264,0.121-0.564,0.209-0.781,0.393
		c-0.396,0.336-0.654,0.725,0.078,0.998c0.158,0.061,0.285,0.131,0.33,0.314c0.115,0.449,0.332,0.654,0.787,0.336
		c0.127-0.088,0.346-0.17,0.412,0.027c0.084,0.25,0.119,0.535,0.084,0.793c-0.023,0.211-0.254,0.141-0.404,0.109
		C38.188,9.727,37.434,9.961,37,10.898c-0.164,0.357-0.518,0.35-0.826,0.408c-0.77,0.152-0.932,0.574-0.426,1.213
		c0.15,0.188,0.119,0.352,0.053,0.518c-0.08,0.195-0.262,0.119-0.42,0.1c-0.449-0.045-0.877-0.143-1.354-0.057
		c-0.617,0.117-0.836,0.453-0.779,1.002c0.059,0.568,0.006,1.262,0.844,1.33c0.48,0.035,0.969-0.016,1.453-0.01
		c0.254,0.002,0.379-0.111,0.467-0.35c0.215-0.561,0.676-0.965,1.012-1.451c0.104-0.15,0.225-0.379,0.438-0.277
		c0.555,0.262,0.848-0.121,1.215-0.494c0.336,0.689,0.996,0.945,1.539,1.35c0.16,0.123,0.477,0.172,0.436,0.416
		c-0.051,0.314-0.355,0.24-0.594,0.242c-0.068,0-0.133,0.045-0.254,0.088c0.242,0.35,0.496,0.439,0.895,0.363
		c0.615-0.115,0.354-0.65,0.52-0.969C41.381,14,41,13.945,40.822,13.844c-0.541-0.303-1.15-0.531-1.094-1.322
		c1.086-0.145,1.998,0.52,2.117,1.572c0.064,0.588,0.551,0.816,0.877,1.205c0.387-0.482,0.119-1.348,0.998-1.48
		c0.053,0.279,0.07,0.582,0.18,0.842c0.174,0.424,0.404,0.914,0.947,0.822c0.846-0.143,1.037,0.34,1.221,0.99
		c0.289,1.01,0.314,0.969-0.74,1.014c-0.686,0.033-1.23-0.154-1.764-0.594c-0.605-0.502-1.295-0.307-1.574,0.379
		c-0.137,0.338-0.336,0.209-0.498,0.09c-0.412-0.301-0.9-0.383-1.367-0.463c-0.725-0.121-1.221-0.336-1.037-1.211
		c0.068-0.328-0.117-0.389-0.434-0.35c-0.979,0.123-1.99-0.043-2.912,0.51c-0.266,0.16-0.699,0.119-1.029,0.059
		c-0.703-0.135-1.172,0.311-1.711,0.586c-0.279,0.146-0.236,0.42-0.199,0.645c0.104,0.627-0.176,0.994-0.689,1.305
		c-0.551,0.336-1.053,0.75-1.576,1.129c-0.508,0.367-0.365,0.826,0.07,0.986c0.584,0.215,0.258,0.576,0.166,0.748
		c-0.549,1.063-0.492,2.02,0.26,2.895c0.07,0.08,0.133,0.168,0.203,0.248c1.564,1.805,1.715,1.855,4.031,1.477
		c0.242-0.041,0.359-0.213,0.537-0.318c0.424-0.25,0.941-0.342,1.277-0.012c0.441,0.436,0.93,0.479,1.467,0.492
		c0.262,0.008,0.531,0.053,0.42,0.406c-0.455,1.508,0.379,2.646,1.096,3.801c0.316,0.518,0.41,0.949,0.053,1.471
		c-0.547,0.797-0.799,1.586,0.117,2.342c0.271,0.227,0.08,0.617,0.119,0.93c0.053,0.395-0.156,0.852,0.123,1.178
		c0.578,0.664,0.914,1.373,0.781,2.27c-0.076,0.502,0.379,0.314,0.605,0.418c-5.893,7.787-18.553,11.861-29.573,5.664
		C0.536,37.955-2.138,24.336,2.057,14.982z"/>
	<path fill-rule="evenodd" clip-rule="evenodd" fill="#404041" d="M40.963,7.934c0.291,0.32,0.547,0.582,0.783,0.861
		c0.336,0.393,0.133,0.953-0.379,1.049c-0.154,0.031-0.322,0.021-0.479,0c-0.328-0.047-0.828,0.178-0.945-0.193
		c-0.119-0.377,0.416-0.389,0.668-0.535C41.094,8.83,40.729,8.369,40.963,7.934z"/>
	<path fill-rule="evenodd" clip-rule="evenodd" fill="#404041" d="M15.335,12.285c-0.5-0.033-1.002-0.059-1.504-0.104
		c-0.273-0.023-0.537-0.172-0.244-0.432c0.369-0.33,0.88-0.398,1.354-0.285c0.423,0.098,0.404,0.486,0.374,0.836L15.335,12.285z"/>
	<path fill-rule="evenodd" clip-rule="evenodd" fill="#404041" d="M10.463,6.615c-0.154-0.047-0.579,0.158-0.545-0.252
		c0.044-0.529,0.592-0.379,0.933-0.479c0.185-0.055,0.485-0.053,0.447,0.264C11.248,6.584,10.916,6.67,10.463,6.615z"/>
	<path fill-rule="evenodd" clip-rule="evenodd" fill="#404041" d="M14.687,12.463c-0.289,0.408-0.535,0.76-0.789,1.109
		c-0.098,0.133-0.205,0.232-0.394,0.113c-0.163-0.105-0.199-0.264-0.151-0.416C13.539,12.686,13.877,12.303,14.687,12.463z"/>
	<path fill-rule="evenodd" clip-rule="evenodd" fill="#404041" d="M13.191,9.938c-0.033,0.438-0.154,0.721-0.549,0.748
		c-0.367,0.029-0.408-0.314-0.46-0.535c-0.091-0.381,0.276-0.391,0.505-0.43C12.897,9.688,13.187,9.658,13.191,9.938z"/>
	<path fill-rule="evenodd" clip-rule="evenodd" fill="#404041" d="M15.316,12.301c0.191,0.186,0.578-0.068,0.681,0.289
		c0.046,0.158-0.025,0.313-0.175,0.416c-0.186,0.125-0.428,0.242-0.584,0.072c-0.241-0.258-0.047-0.537,0.097-0.791
		C15.335,12.285,15.316,12.301,15.316,12.301z"/>
	<path fill-rule="evenodd" clip-rule="evenodd" fill="#404041" d="M9.956,7.604c0.091-0.08,0.138-0.146,0.198-0.166
		c0.359-0.113,0.715-0.348,1.098-0.109c0.039,0.025,0.028,0.256-0.02,0.281C10.826,7.822,10.412,7.871,9.956,7.604z"/>
	<path fill-rule="evenodd" clip-rule="evenodd" fill="#404041" d="M15.183,14.135c-0.16-0.029-0.43,0.08-0.381-0.24
		c0.063-0.41,0.476-0.357,0.736-0.492c0.216-0.109,0.275,0.08,0.258,0.252C15.759,14.014,15.509,14.129,15.183,14.135z"/>
	<path fill-rule="evenodd" clip-rule="evenodd" fill="#404041" d="M17.171,13.359c0.012,0.318-0.219,0.26-0.391,0.275
		c-0.287,0.025-0.545-0.016-0.584-0.379c-0.018-0.186,0.047-0.361,0.252-0.271C16.697,13.092,17.066,13.004,17.171,13.359z"/>
	<path fill-rule="evenodd" clip-rule="evenodd" fill="#404041" d="M44.613,13.461c0.098-0.014,0.141-0.027,0.146-0.018
		c0.201,0.289,0.486,0.557,0.354,0.953c-0.02,0.051-0.303,0.096-0.371,0.035C44.404,14.141,44.635,13.785,44.613,13.461z"/>
</g>
<g>
	<g>
		<line fill="none" x1="17.431" y1="32.902" x2="21.189" y2="40.797"/>
		<g>
			<g>
				<polygon fill="#FFFFFF" stroke="#231F20" stroke-width="0.45" points="17.86,32.752 21.385,37.553 22.115,37.205 21.557,38.797 
					20.998,40.387 19.41,39.816 17.824,39.248 18.529,38.914 17.025,33.15 				"/>
			</g>
			<polygon fill="#231F20" points="20.976,40.361 21.179,40.789 22.334,37.377 22.197,37.086 			"/>
			<polygon fill="#231F20" points="20.988,40.367 21.193,40.793 17.816,39.539 17.677,39.248 			"/>
		</g>
	</g>
	<g>
		<line fill="none" x1="18.146" y1="31.701" x2="26.043" y2="27.943"/>
		<g>
			<g>
				<polygon fill="#FFFFFF" stroke="#231F20" stroke-width="0.45" points="17.998,31.273 22.798,27.746 22.45,27.016 24.042,27.576 
					25.633,28.135 25.063,29.723 24.495,31.309 24.158,30.604 18.395,32.107 				"/>
			</g>
			<polygon fill="#231F20" points="25.609,28.158 26.035,27.951 22.623,26.797 22.332,26.936 			"/>
			<polygon fill="#231F20" points="25.613,28.145 26.041,27.939 24.785,31.314 24.495,31.455 			"/>
		</g>
	</g>
	<g>
		<line fill="none" x1="16.246" y1="32.607" x2="8.35" y2="36.363"/>
		<g>
			<g>
				<polygon fill="#FFFFFF" stroke="#231F20" stroke-width="0.45" points="16.394,33.037 11.593,36.561 11.942,37.293 
					10.351,36.732 8.761,36.174 9.33,34.586 9.898,33 10.233,33.703 15.997,32.201 				"/>
			</g>
			<polygon fill="#231F20" points="8.785,36.152 8.356,36.355 11.768,37.512 12.06,37.373 			"/>
			<polygon fill="#231F20" points="8.78,36.164 8.352,36.367 9.608,32.992 9.9,32.852 			"/>
		</g>
	</g>
	<g>
		<line fill="none" x1="16.717" y1="31.404" x2="12.958" y2="23.508"/>
		<g>
			<g>
				<polygon fill="#FFFFFF" stroke="#231F20" stroke-width="0.45" points="16.287,31.551 12.763,26.75 12.033,27.1 12.591,25.506 
					13.151,23.918 14.738,24.486 16.324,25.055 15.619,25.391 17.122,31.152 				"/>
			</g>
			<polygon fill="#231F20" points="13.173,23.941 12.967,23.514 11.812,26.926 11.951,27.217 			"/>
			<polygon fill="#231F20" points="13.159,23.938 12.955,23.51 16.332,24.766 16.471,25.057 			"/>
		</g>
	</g>
</g>
<g>
	<g>
		<line fill="none" x1="30.887" y1="8.291" x2="32.676" y2="12.053"/>
		<g>
			<g>
				<polygon fill="#FFFFFF" stroke="#231F20" stroke-width="0.45" points="31.09,8.219 32.771,10.506 33.119,10.34 32.852,11.102 
					32.586,11.857 31.83,11.586 31.072,11.313 31.41,11.154 30.691,8.408 				"/>
			</g>
			<polygon fill="#231F20" points="32.574,11.846 32.672,12.049 33.223,10.426 33.158,10.285 			"/>
			<polygon fill="#231F20" points="32.58,11.848 32.678,12.053 31.068,11.453 31.004,11.313 			"/>
		</g>
	</g>
	<g>
		<line fill="none" x1="31.229" y1="7.719" x2="34.99" y2="5.928"/>
		<g>
			<g>
				<polygon fill="#FFFFFF" stroke="#231F20" stroke-width="0.45" points="31.158,7.516 33.443,5.836 33.277,5.488 34.035,5.752 
					34.793,6.02 34.523,6.773 34.25,7.531 34.092,7.195 31.346,7.912 				"/>
			</g>
			<polygon fill="#231F20" points="34.781,6.029 34.986,5.932 33.361,5.383 33.223,5.449 			"/>
			<polygon fill="#231F20" points="34.783,6.023 34.988,5.926 34.391,7.535 34.25,7.602 			"/>
		</g>
	</g>
	<g>
		<line fill="none" x1="30.322" y1="8.152" x2="26.561" y2="9.941"/>
		<g>
			<g>
				<polygon fill="#FFFFFF" stroke="#231F20" stroke-width="0.45" points="30.393,8.355 28.104,10.035 28.271,10.381 27.514,10.115 
					26.756,9.85 27.027,9.094 27.297,8.338 27.459,8.674 30.203,7.957 				"/>
			</g>
			<polygon fill="#231F20" points="26.768,9.838 26.563,9.938 28.189,10.484 28.328,10.424 			"/>
			<polygon fill="#231F20" points="26.766,9.846 26.561,9.943 27.16,8.334 27.297,8.268 			"/>
		</g>
	</g>
	<g>
		<line fill="none" x1="30.547" y1="7.576" x2="28.754" y2="3.813"/>
		<g>
			<g>
				<polygon fill="#FFFFFF" stroke="#231F20" stroke-width="0.45" points="30.342,7.648 28.662,5.357 28.314,5.525 28.582,4.768 
					28.846,4.01 29.602,4.281 30.359,4.551 30.021,4.713 30.738,7.457 				"/>
			</g>
			<polygon fill="#231F20" points="28.855,4.021 28.76,3.816 28.209,5.443 28.275,5.58 			"/>
			<polygon fill="#231F20" points="28.85,4.018 28.752,3.814 30.363,4.412 30.43,4.551 			"/>
		</g>
	</g>
</g>
<g>
	<polygon fill="#F9E83D" stroke="#231F20" stroke-width="0.9253" points="19.121,26.893 19.785,22.215 23.041,21.771 22.529,18.348 
		25.139,17.865 24.499,14.684 27.498,14.1 25.682,13.123 29.201,12.176 30.229,15.877 28.801,14.801 26.064,15.525 26.836,18.455 
		23.965,19.43 24.863,22.75 21.343,23.689 21.718,27.98 	"/>
</g>
</svg>
